<svg id="Layer_1" data-name="Layer 1" xmlns="http://www.w3.org/2000/svg" viewBox="0 0 84.31 49.02"><defs><style>.cls-1,.cls-7{fill:none;stroke:#000;}.cls-1{stroke-miterlimit:10;stroke-width:0.25px;}.cls-2{fill:#fff;}.cls-3{fill:#c8a977;}.cls-4,.cls-6{fill:#002a5b;}.cls-4,.cls-8{fill-rule:evenodd;}.cls-5{fill:#7badd3;}.cls-7{stroke-width:1.25px;}.cls-9{fill:#ffd500;}</style></defs><title>flinders-bridging-aidown</title><path d="M39.87,55.91l-.93,0V52.07l1.07,0c.83,0,1.22.35,1.22.91a.94.94,0,0,1-.72.9h0a.88.88,0,0,1,.81.89C41.32,55.18,41.07,55.91,39.87,55.91Zm.06-3.51h-.55v1.33h.36c.68,0,1-.27,1-.72S40.6,52.4,39.93,52.4Zm-.18,1.68h-.37v1.44a2.76,2.76,0,0,0,.52,0c.67,0,1-.34,1-.79S40.38,54.08,39.75,54.08Z" transform="translate(-16.56 -15.14)"/><path d="M43.49,53.44c-.63-.1-.92.38-.92,1.32v1.13h-.42V53.08h.41a4.72,4.72,0,0,1-.06.7h0a.9.9,0,0,1,1-.76Z" transform="translate(-16.56 -15.14)"/><path d="M44.36,52.57a.29.29,0,0,1,0-.58.29.29,0,1,1,0,.58Zm-.21,3.32V53.08h.42v2.81Z" transform="translate(-16.56 -15.14)"/><path d="M47.3,55.89a4.18,4.18,0,0,1,.05-.61h0a1,1,0,0,1-1,.67c-.7,0-1-.51-1-1.33A1.4,1.4,0,0,1,46.78,53l.52,0V51.76h.42v4.13Zm0-2.45a2.67,2.67,0,0,0-.56-.06c-.57,0-1,.35-1,1.2,0,.63.22,1,.68,1s.84-.66.84-1.16Z" transform="translate(-16.56 -15.14)"/><path d="M49.65,57.37c-.71,0-1.17-.29-1.17-.83a.85.85,0,0,1,.49-.75.44.44,0,0,1-.29-.4.51.51,0,0,1,.31-.46.9.9,0,0,1-.41-.82A1.1,1.1,0,0,1,49.8,53a1.42,1.42,0,0,1,.42,0h1v.33h-.51a.79.79,0,0,1,.27.62c0,.6-.41,1.06-1.22,1.06a2.34,2.34,0,0,1-.39,0,.28.28,0,0,0-.21.25c0,.17.16.24.51.24h.55c.61,0,1,.3,1,.79S50.52,57.37,49.65,57.37Zm.41-1.46h-.75a.66.66,0,0,0-.41.57c0,.36.35.55.82.55.62,0,1-.26,1-.63S50.49,55.91,50.06,55.91Zm-.28-2.56a.71.71,0,0,0-.78.72.66.66,0,0,0,.75.7.68.68,0,0,0,.77-.7A.67.67,0,0,0,49.78,53.35Z" transform="translate(-16.56 -15.14)"/><path d="M52.11,52.57a.29.29,0,1,1,.29-.29A.29.29,0,0,1,52.11,52.57Zm-.21,3.32V53.08h.42v2.81Z" transform="translate(-16.56 -15.14)"/><path d="M55.16,55.89V54.07c0-.44-.12-.7-.53-.7s-.86.5-.86,1.17v1.35h-.42V53.08h.42a4.21,4.21,0,0,1-.05.62h0a1.05,1.05,0,0,1,1-.68c.65,0,.84.41.84.91v2Z" transform="translate(-16.56 -15.14)"/><path d="M57.51,57.37c-.71,0-1.17-.29-1.17-.83a.85.85,0,0,1,.49-.75.44.44,0,0,1-.29-.4.5.5,0,0,1,.32-.46.88.88,0,0,1-.42-.82A1.1,1.1,0,0,1,57.66,53a1.42,1.42,0,0,1,.42,0h1v.33h-.51a.76.76,0,0,1,.27.62c0,.6-.41,1.06-1.22,1.06a2.11,2.11,0,0,1-.38,0,.27.27,0,0,0-.21.25c0,.17.15.24.51.24H58c.62,0,1,.3,1,.79S58.38,57.37,57.51,57.37Zm.42-1.46h-.76a.66.66,0,0,0-.41.57c0,.36.36.55.83.55s1-.26,1-.63S58.36,55.91,57.93,55.91Zm-.29-2.56a.71.71,0,0,0-.78.72.66.66,0,0,0,.75.7.68.68,0,0,0,.77-.7A.67.67,0,0,0,57.64,53.35Z" transform="translate(-16.56 -15.14)"/><path d="M61.83,55.94c-.57,0-.73-.25-.73-.84V53.41h-.61v-.33h.61v-.94l.42-.12v1.06h.83v.33h-.83v1.52c0,.5.09.63.43.63a1.68,1.68,0,0,0,.4-.05v.37A2.85,2.85,0,0,1,61.83,55.94Z" transform="translate(-16.56 -15.14)"/><path d="M64.89,55.89V54.07c0-.44-.12-.7-.52-.7s-.86.5-.86,1.17v1.35h-.43V51.76h.43v1.37a2.38,2.38,0,0,1,0,.56h0a1,1,0,0,1,1-.68c.65,0,.85.41.85.91v2Z" transform="translate(-16.56 -15.14)"/><path d="M68.4,54.4H66.52c0,.84.31,1.19.94,1.19a1.86,1.86,0,0,0,.81-.18l0,.36a2.41,2.41,0,0,1-.93.17c-.85,0-1.3-.46-1.3-1.44S66.53,53,67.31,53a1,1,0,0,1,1.1,1.16A1.79,1.79,0,0,1,68.4,54.4Zm-1.11-1a.77.77,0,0,0-.75.73H68A.65.65,0,0,0,67.29,53.35Z" transform="translate(-16.56 -15.14)"/><path d="M73.19,52.59a2.81,2.81,0,0,0-1-.2A1.47,1.47,0,0,0,70.64,54a1.42,1.42,0,0,0,1.49,1.58,2.13,2.13,0,0,0,.74-.12V54h.44v1.76a3.77,3.77,0,0,1-1.25.21,1.75,1.75,0,0,1-1.88-1.89,1.92,1.92,0,0,1,2-2,3.32,3.32,0,0,1,1,.16Z" transform="translate(-16.56 -15.14)"/><path d="M75.81,55.89a3.51,3.51,0,0,1,0-.59h0a1,1,0,0,1-1,.64.68.68,0,0,1-.77-.68c0-.59.61-1,1.71-1V54c0-.43-.16-.66-.64-.66a1.64,1.64,0,0,0-.86.24l0-.37a2.32,2.32,0,0,1,1-.21c.78,0,1,.38,1,.91v1.11c0,.27,0,.59,0,.84Zm0-1.32c-1.06,0-1.29.34-1.29.61a.42.42,0,0,0,.46.42.92.92,0,0,0,.83-1Z" transform="translate(-16.56 -15.14)"/><path d="M78.19,55.92a2.28,2.28,0,0,1-.52,0V57.3h-.42V53.08h.42a3.14,3.14,0,0,1,0,.61h0a1,1,0,0,1,1-.66c.66,0,1,.45,1,1.33A1.38,1.38,0,0,1,78.19,55.92Zm.32-2.54c-.56,0-.84.65-.84,1.15v1a1.88,1.88,0,0,0,.55.07c.59,0,1-.35,1-1.2C79.18,53.76,79,53.38,78.51,53.38Z" transform="translate(-16.56 -15.14)"/><path d="M80.9,54a.3.3,0,0,1-.3.31.31.31,0,0,1,0-.62A.3.3,0,0,1,80.9,54Zm0,1.68a.3.3,0,0,1-.3.31.31.31,0,0,1,0-.62A.3.3,0,0,1,80.9,55.63Z" transform="translate(-16.56 -15.14)"/><path d="M83.38,55.94a2.86,2.86,0,0,1-.76-.1l0-.42a2.4,2.4,0,0,0,.78.14c.49,0,.91-.2.91-.72,0-.9-1.78-.56-1.78-1.76,0-.61.49-1.06,1.33-1.06a3.73,3.73,0,0,1,.68.07l0,.39a2.68,2.68,0,0,0-.69-.1c-.55,0-.85.26-.85.65,0,.88,1.77.56,1.77,1.76C84.77,55.46,84.25,55.94,83.38,55.94Z" transform="translate(-16.56 -15.14)"/><path d="M86.58,52.43v3.46h-.43V52.43H85v-.36h2.72v.36Z" transform="translate(-16.56 -15.14)"/><path d="M88.3,55.89V52.07h1.92v.35H88.73v1.32h1.42v.36H88.73v1.43h1.49v.36Z" transform="translate(-16.56 -15.14)"/><path d="M94.92,55.89l-.34-2.35c-.07-.47-.1-.75-.12-1h0c0,.16-.1.38-.19.64l-.9,2.67h-.49L92,53.39a7,7,0,0,1-.24-.81h0c0,.3,0,.61-.1,1l-.28,2.31H91l.54-3.82H92l.87,2.58a5.26,5.26,0,0,1,.22.74h0a4,4,0,0,1,.21-.7l.89-2.62h.57l.56,3.82Z" transform="translate(-16.56 -15.14)"/><path d="M38.94,62.68V58.86h.44v3.82Z" transform="translate(-16.56 -15.14)"/><path d="M42.22,62.68V60.85c0-.44-.12-.69-.53-.69s-.86.5-.86,1.16v1.36h-.42V59.86h.42a4.34,4.34,0,0,1,0,.63h0a1,1,0,0,1,1-.68c.65,0,.84.4.84.9v2Z" transform="translate(-16.56 -15.14)"/><path d="M45.37,62.68a4.18,4.18,0,0,1,.05-.61h0a1,1,0,0,1-1,.67c-.69,0-1-.51-1-1.33a1.39,1.39,0,0,1,1.44-1.57l.52,0V58.54h.42v4.14Zm0-2.45a2.67,2.67,0,0,0-.55-.07c-.58,0-1,.35-1,1.2,0,.64.22,1,.68,1s.84-.66.84-1.16Z" transform="translate(-16.56 -15.14)"/><path d="M48.64,62.68a4.34,4.34,0,0,1,0-.63h0a1,1,0,0,1-1,.68c-.65,0-.85-.4-.85-.9v-2h.43v1.83c0,.44.12.69.52.69s.87-.5.87-1.16V59.86h.42v2.82Z" transform="translate(-16.56 -15.14)"/><path d="M50.51,62.73a3.46,3.46,0,0,1-.59-.06v-.39a2.45,2.45,0,0,0,.63.09c.4,0,.69-.18.69-.47,0-.68-1.37-.26-1.37-1.26,0-.47.38-.83,1.1-.83a3.31,3.31,0,0,1,.54.06v.37a1.9,1.9,0,0,0-.58-.09c-.41,0-.62.17-.62.44,0,.68,1.38.29,1.38,1.25C51.69,62.34,51.25,62.73,50.51,62.73Z" transform="translate(-16.56 -15.14)"/><path d="M53.35,62.72c-.57,0-.73-.25-.73-.83V60.2H52v-.34h.62v-.93l.42-.12v1h.83v.34H53v1.51c0,.51.09.64.42.64a1.7,1.7,0,0,0,.41-.05v.37A2.87,2.87,0,0,1,53.35,62.72Z" transform="translate(-16.56 -15.14)"/><path d="M55.94,60.23c-.62-.1-.92.37-.92,1.32v1.13H54.6V59.86H55a4.74,4.74,0,0,1-.06.71h0a.91.91,0,0,1,1-.77Z" transform="translate(-16.56 -15.14)"/><path d="M57.52,63c-.33.87-.58,1.16-1.2,1.16l-.35,0,0-.39a1.06,1.06,0,0,0,.35,0c.34,0,.51-.16.74-.75l.12-.33-1.07-2.82h.49l.58,1.62a6.36,6.36,0,0,1,.22.66h0c0-.18.17-.53.28-.85l.5-1.43h.47Z" transform="translate(-16.56 -15.14)"/><path d="M60.5,62.68V58.86h1.92v.35H60.93v1.32h1.42v.35H60.93v1.43h1.49v.37Z" transform="translate(-16.56 -15.14)"/><path d="M65.17,62.68V60.85c0-.44-.12-.69-.53-.69s-.86.5-.86,1.16v1.36h-.42V59.86h.41a4.35,4.35,0,0,1,0,.63h0a1,1,0,0,1,1-.68c.64,0,.84.4.84.9v2Z" transform="translate(-16.56 -15.14)"/><path d="M67.52,64.15c-.71,0-1.17-.28-1.17-.82a.86.86,0,0,1,.48-.75.45.45,0,0,1-.28-.41.51.51,0,0,1,.31-.46.88.88,0,0,1-.42-.81,1.12,1.12,0,0,1,1.23-1.09,2,2,0,0,1,.42,0h1v.34h-.51a.78.78,0,0,1,.27.61c0,.6-.41,1.06-1.22,1.06a1.56,1.56,0,0,1-.39,0,.29.29,0,0,0-.21.26c0,.16.16.24.51.24h.55c.61,0,1,.3,1,.79S68.39,64.15,67.52,64.15Zm.41-1.46h-.76a.66.66,0,0,0-.4.56c0,.37.35.56.82.56s1-.26,1-.64S68.36,62.69,67.93,62.69Zm-.29-2.55a.7.7,0,0,0-.77.71.66.66,0,0,0,.75.71.68.68,0,0,0,.77-.71A.67.67,0,0,0,67.64,60.14Z" transform="translate(-16.56 -15.14)"/><path d="M71.26,62.68a3.7,3.7,0,0,1,0-.6h0a1,1,0,0,1-1,.65.68.68,0,0,1-.77-.69c0-.59.61-1,1.71-1v-.24c0-.42-.16-.66-.64-.66a1.72,1.72,0,0,0-.87.25l0-.38a2.32,2.32,0,0,1,1-.21c.77,0,1,.39,1,.92v1.1c0,.28,0,.6,0,.85Zm0-1.32c-1.06,0-1.29.33-1.29.6a.41.41,0,0,0,.46.42.92.92,0,0,0,.83-1Z" transform="translate(-16.56 -15.14)"/><path d="M73.6,64.15c-.71,0-1.17-.28-1.17-.82a.86.86,0,0,1,.48-.75.45.45,0,0,1-.28-.41.51.51,0,0,1,.31-.46.88.88,0,0,1-.42-.81,1.12,1.12,0,0,1,1.23-1.09,2,2,0,0,1,.42,0h1v.34h-.51a.78.78,0,0,1,.27.61c0,.6-.41,1.06-1.22,1.06a1.56,1.56,0,0,1-.39,0,.29.29,0,0,0-.21.26c0,.16.16.24.51.24h.55c.61,0,1,.3,1,.79S74.46,64.15,73.6,64.15ZM74,62.69h-.76a.66.66,0,0,0-.4.56c0,.37.35.56.82.56.62,0,1-.26,1-.64S74.44,62.69,74,62.69Zm-.29-2.55a.7.7,0,0,0-.77.71.66.66,0,0,0,.75.71.68.68,0,0,0,.76-.71A.66.66,0,0,0,73.72,60.14Z" transform="translate(-16.56 -15.14)"/><path d="M77.9,61.18H76c0,.85.3,1.2.93,1.2a2,2,0,0,0,.82-.18l0,.36a2.41,2.41,0,0,1-.93.17c-.85,0-1.3-.46-1.3-1.45s.45-1.47,1.23-1.47A1,1,0,0,1,77.91,61,1.7,1.7,0,0,1,77.9,61.18Zm-1.11-1a.77.77,0,0,0-.75.74h1.43A.66.66,0,0,0,76.79,60.13Z" transform="translate(-16.56 -15.14)"/><path d="M82.25,62.68V60.86c0-.43-.1-.7-.51-.7s-.84.44-.84,1.17v1.35h-.42V60.85c0-.38-.08-.69-.51-.69s-.85.48-.85,1.17v1.35H78.7V59.86h.42a3.35,3.35,0,0,1-.05.63h0a1,1,0,0,1,1-.68.7.7,0,0,1,.79.67,1,1,0,0,1,1-.67c.53,0,.83.28.83.91v2Z" transform="translate(-16.56 -15.14)"/><path d="M85.75,61.18H83.87c0,.85.31,1.2.94,1.2a2,2,0,0,0,.81-.18l0,.36a2.38,2.38,0,0,1-.93.17c-.84,0-1.3-.46-1.3-1.45s.46-1.47,1.24-1.47A1,1,0,0,1,85.76,61,1.7,1.7,0,0,1,85.75,61.18Zm-1.11-1a.76.76,0,0,0-.74.74h1.42A.66.66,0,0,0,84.64,60.13Z" transform="translate(-16.56 -15.14)"/><path d="M88.37,62.68V60.85c0-.44-.12-.69-.53-.69s-.86.5-.86,1.16v1.36h-.42V59.86H87a4.35,4.35,0,0,1,0,.63h0a1,1,0,0,1,1-.68c.64,0,.84.4.84.9v2Z" transform="translate(-16.56 -15.14)"/><path d="M90.66,62.72c-.57,0-.73-.25-.73-.83V60.2h-.62v-.34h.62v-.93l.42-.12v1h.83v.34h-.83v1.51c0,.51.09.64.42.64a1.7,1.7,0,0,0,.41-.05v.37A2.87,2.87,0,0,1,90.66,62.72Z" transform="translate(-16.56 -15.14)"/><line class="cls-1" x1="21.86" y1="34.04" x2="84.31" y2="34.04"/><path d="M100.49,41.74,99,44.56V46h-.76V44.57l-1.5-2.83h.84l.69,1.34a6.91,6.91,0,0,1,.36.78c.13-.29.27-.57.41-.83l.69-1.29Z" transform="translate(-16.56 -15.14)"/><path d="M43.15,44.4c0,.92-.55,1.7-1.91,1.7-1.19,0-1.81-.56-1.81-1.55V41.74h.75v2.68c0,.73.41,1.06,1.12,1.06a1,1,0,0,0,1.11-1.14v-2.6h.74Z" transform="translate(-16.56 -15.14)"/><path d="M50.19,46h-1l-1.63-2.52c-.17-.27-.34-.59-.47-.85,0,.27,0,.56,0,1V46h-.73v-4.3h1L49,44.22a9.17,9.17,0,0,1,.5.86c0-.28,0-.75,0-1.38v-2h.74Z" transform="translate(-16.56 -15.14)"/><rect x="37.91" y="26.6" width="0.75" height="4.3"/><path d="M62.93,41.74,61.24,46h-.86l-1.67-4.3h.84l.91,2.4a9.44,9.44,0,0,1,.36,1.1c.13-.37.24-.75.37-1.08l1-2.42Z" transform="translate(-16.56 -15.14)"/><polygon points="52.29 30.9 49.86 30.9 49.86 26.6 52.29 26.6 52.29 27.18 50.61 27.18 50.61 28.4 52.21 28.4 52.21 28.97 50.61 28.97 50.61 30.3 52.29 30.3 52.29 30.9"/><path d="M76,46h-1l-1.38-1.85,0,1.85H72.9v-4.3c.28,0,.76,0,1.28,0,1,0,1.58.4,1.58,1.16a1.26,1.26,0,0,1-1.29,1.23c.11.12.23.28.37.46ZM75,42.94c0-.43-.34-.65-.88-.65l-.43,0v1.35l.45,0c.52,0,.86-.29.86-.74" transform="translate(-16.56 -15.14)"/><path d="M82.29,44.71c0,.87-.77,1.4-1.81,1.4a5.1,5.1,0,0,1-.93-.1l0-.71a2.38,2.38,0,0,0,1,.18c.46,0,.91-.19.91-.69,0-.85-2-.44-2-1.82,0-.79.63-1.3,1.73-1.3a4.76,4.76,0,0,1,.84.07l0,.66a3,3,0,0,0-.86-.13c-.61,0-.88.24-.88.62,0,.83,2,.45,2,1.82" transform="translate(-16.56 -15.14)"/><rect x="69.66" y="26.6" width="0.75" height="4.3"/><polygon points="77.24 27.23 75.99 27.23 75.99 30.9 75.24 30.9 75.24 27.23 73.99 27.23 73.99 26.6 77.24 26.6 77.24 27.23"/><path d="M100.33,32.81h-.56a2,2,0,0,0-1.92-2,1.33,1.33,0,0,0-1.44,1.26c0,1.26,2.23,1.74,3.43,2.68a2.49,2.49,0,0,1,1,2.07c0,1.59-1.26,2.64-3.49,2.64a11.37,11.37,0,0,1-2.7-.35l-.11-2.6h.56a2.19,2.19,0,0,0,2.19,2.29,1.6,1.6,0,0,0,1.77-1.48c0-1.25-1.9-1.62-3.07-2.42a2.47,2.47,0,0,1-1.39-2.25c0-1.75,1.53-2.5,3.37-2.5a8.12,8.12,0,0,1,2.21.33Zm-61.91,6.5v-.49c1.36,0,1.65-.29,1.65-1.8V28.67c0-1.51-.29-1.8-1.65-1.8v-.48h8.94l.12,2.81h-.56c-.08-1.05-.31-1.92-2.31-1.92H43.35c-1,0-1.15.31-1.15,1.39v3.44h2.54c1.27,0,1.46-.27,1.46-1.55h.52v4H46.2C46.2,33.41,46,33,44.74,33H42.2v4c0,1.51.3,1.8,1.65,1.8v.49Zm9.56,0v-.43c1.15,0,1.46-.35,1.46-1.69V28.27c0-1.38-.7-1.55-1.46-1.55v-.43l3.42-.47V37.19c0,1.34.33,1.69,1.45,1.69v.43Zm5.44,0v-.43c1.14,0,1.45-.35,1.45-1.69V32.63c0-1.37-.7-1.55-1.45-1.55v-.43l3.41-.46v7c0,1.34.31,1.69,1.46,1.69v.43Zm2.46-10.69a1.22,1.22,0,0,1,0-2.43,1.22,1.22,0,1,1,0,2.43m2.86,10.69v-.43c1.12,0,1.45-.35,1.45-1.69V32.63c0-1.37-.7-1.55-1.45-1.55v-.43l3.41-.46v2.29a3.85,3.85,0,0,1,3.22-2.29c2,0,2.35,1.1,2.35,2.58v4.42c0,1.34.33,1.69,1.45,1.69v.43H64.3v-.43c1.13,0,1.46-.35,1.46-1.69V34.34c0-2.35-.29-3-1.24-3-1.13,0-2.37,2-2.37,3.22v2.6c0,1.34.33,1.69,1.46,1.69v.43Zm16.53.19V37.91a3.17,3.17,0,0,1-2.85,1.59c-2.66,0-3.28-2.39-3.28-4.66,0-2.62,1-4.65,3.67-4.65a2.69,2.69,0,0,1,2.42,1.39l0-3.31c0-1.38-.7-1.55-1.46-1.55v-.43l3.42-.47V37.06c0,1.37.68,1.55,1.45,1.55V39Zm-4-4.66c0,2,.45,3.55,2.06,3.55s2-1.68,2-3.55c0-2.36-.45-3.72-2-3.72s-2.06,1.9-2.06,3.72M86.1,38.3V39a7.56,7.56,0,0,1-2.68.51c-3,0-4.75-1.75-4.75-5,0-2.93,1.45-4.34,4-4.34,3,0,3.55,2,3.55,3.66H80.78c0,2,.78,4.78,3.53,4.78a5.26,5.26,0,0,0,1.79-.33m-5.32-5.24h3.53c0-1.22-.33-2.21-1.66-2.21-1.48,0-1.87,1.45-1.87,2.21m6,6.25v-.43c1.12,0,1.45-.35,1.45-1.69V32.63c0-1.37-.7-1.55-1.45-1.55v-.43l3.41-.46v2.25c.37-.87,1.09-2.25,2.68-2.25a1.06,1.06,0,0,1,1,1,1,1,0,0,1-1,1.08c-.7,0-.56-.44-1.21-.44S90.22,33,90.22,35v2.17c0,1.34.33,1.69,1.46,1.69v.43Z" transform="translate(-16.56 -15.14)"/><path class="cls-2" d="M31.88,22.12a5.58,5.58,0,0,1-.64-2.77l-1.65.83a.47.47,0,0,1,0,.4.43.43,0,0,1,0,.44.45.45,0,0,1,0,.36v.05a.4.4,0,0,1,0,.42.38.38,0,0,1,.06.28.52.52,0,0,1,.42.05.56.56,0,0,1,.57,0,.39.39,0,0,1,.48,0l.09-.05c.15-.08.23,0,.37,0a.49.49,0,0,1,.24-.07Z" transform="translate(-16.56 -15.14)"/><polygon class="cls-2" points="12.84 7.84 12.71 4.3 12.69 7.85 12.82 7.84 12.84 7.84"/><polygon class="cls-2" points="10.17 8.01 10.29 8 10.18 4.37 10.17 8.01"/><polygon class="cls-2" points="6.88 8.32 6.77 4.71 6.75 8.32 6.88 8.32"/><path class="cls-3" d="M21.88,23.34l-.18.2,0,0,0,0,0,0h-.71l.07.05a.87.87,0,0,1,.64.47h8.9a.37.37,0,0,1,.31-.26l.58-.81,0,0,0-.05-4.57.31-.32.3-3.8,0a1.93,1.93,0,0,1-.78-.28" transform="translate(-16.56 -15.14)"/><path d="M23.86,23.88a.06.06,0,0,0-.06-.05,0,0,0,0,0-.05.05.06.06,0,0,0,.05.06.06.06,0,0,0,.06-.06m.12,0a.18.18,0,1,1-.18-.18.18.18,0,0,1,.18.18" transform="translate(-16.56 -15.14)"/><path d="M30.79,23.46h0l.12-.18h-.15Zm-1-.23,1.37-.1-.3.45-1.07,0Zm.3.25v-.14H30v.14Zm.4-.17v.16h.14V23.3Zm-.13.16v-.15h-.14v.15Z" transform="translate(-16.56 -15.14)"/><path d="M25.13,23.88a0,0,0,0,0-.05-.05s-.06,0-.06.05a.06.06,0,0,0,.06.06.06.06,0,0,0,.05-.06m.13,0a.18.18,0,0,1-.18.18.18.18,0,1,1,0-.36.18.18,0,0,1,.18.18" transform="translate(-16.56 -15.14)"/><path d="M26.41,23.88a.06.06,0,0,0-.06-.05,0,0,0,0,0-.05.05.06.06,0,0,0,.05.06.06.06,0,0,0,.06-.06m.12,0a.18.18,0,1,1-.18-.18.18.18,0,0,1,.18.18" transform="translate(-16.56 -15.14)"/><path d="M26.85,23.13l-.12-3.62v3.62Zm-.07.17-.32.3-3.8,0a1.93,1.93,0,0,1-.78-.28l-.18.2,0,0-.05.05h-.71l.07.05a.87.87,0,0,1,.64.47h8.9a.37.37,0,0,1,.31-.26l.58-.81,0,0,0-.05-1.83.12-.13,0h-.13ZM29.4,23l-.13-3.51,0,3.52Zm2.37-.56h-.41l-.07.33Zm-.3-1.29a5.54,5.54,0,0,1-.23-1.75l-1.65.83a.47.47,0,0,1,0,.4.43.43,0,0,1,0,.44.45.45,0,0,1,0,.36v.05a.4.4,0,0,1,0,.42.38.38,0,0,1,.06.28.52.52,0,0,1,.42.05.56.56,0,0,1,.57,0,.39.39,0,0,1,.48,0l.09-.05Zm.41,1c-.12-.27-.23-.51-.31-.75l-.15.73a.4.4,0,0,1,.2.08.49.49,0,0,1,.24-.07ZM30,22.3a.38.38,0,0,0-.36,0Zm.56,0a.38.38,0,0,0-.37,0Zm.49,0a.24.24,0,0,0-.28,0Zm.47,0a.26.26,0,0,0-.14-.05v.05Zm.39,0-.07,0a.23.23,0,0,0-.14,0h.21Zm-2.46-1.77a.32.32,0,0,0,0-.29Zm0,.42a.26.26,0,0,0,0-.29Zm0,.42a.31.31,0,0,0,0-.25Zm0,.42a.26.26,0,0,0,0-.27Zm0,.4a.26.26,0,0,0,0-.24Zm1.6.66.09-.45H29.53l0,.55Zm.27-3.56a6,6,0,0,0,.14,1.51L31.89,19Zm-8.23,4.17,0-6.11h0l-.07-.1h.12V15.73h.13l.06,1.51h.14l-.09.1h0l.18,6.11h2.79a2.08,2.08,0,0,0,.21-.21V16.42h-.05l-.08-.1h.13V15.8c-.15-.08-.29-.12-.39,0s-.13-.13-.15-.15c-.27-.1-.47.18-.71.12-.05,0-.14-.06-.19,0-.23.15-.4-.11-.47-.11s-.16.08-.36,0a.22.22,0,0,0-.16,0,.37.37,0,0,0-.25.1s.16-.43.45-.29.41-.1.6,0c0,0,0,0,.05,0l0,0a.23.23,0,0,1,.16,0l.07,0,.06,0c.26,0,.5-.29.78-.14,0,0,.05.08.06.12h0l.05,0a.37.37,0,0,1,.32,0v-.16h.13l.06,1.18h.13l-.08.1h0l.22,6.7L29.1,23l0-6.85h.13l.17,3.95,2.66-1.31-.48,2.33c.13.41.52,1.23.52,1.23l-.08.05-.66.45.22.24-.7,1c-.21,0-.21.08-.28.28H21.5a.68.68,0,0,0-.59-.48l-.46-.38h1.11l.11-.12.12-.13.15,0s0,0,0-.06a1.8,1.8,0,0,0,.73.27Zm.28,0-.11-3.61,0,3.61Z" transform="translate(-16.56 -15.14)"/><path class="cls-2" d="M23.86,23.88a.06.06,0,0,0-.06-.05,0,0,0,0,0-.05.05.06.06,0,0,0,.05.06.06.06,0,0,0,.06-.06" transform="translate(-16.56 -15.14)"/><path class="cls-2" d="M25.13,23.88a0,0,0,0,0-.05-.05s-.06,0-.06.05a.06.06,0,0,0,.06.06.06.06,0,0,0,.05-.06" transform="translate(-16.56 -15.14)"/><path class="cls-2" d="M26.41,23.88a.06.06,0,0,0-.06-.05,0,0,0,0,0-.05.05.06.06,0,0,0,.05.06.06.06,0,0,0,.06-.06" transform="translate(-16.56 -15.14)"/><polygon class="cls-2" points="14.23 8.32 14.26 8.32 14.38 8.14 14.23 8.15 14.23 8.32"/><polygon class="cls-2" points="13.56 8.35 13.56 8.2 13.39 8.21 13.39 8.35 13.56 8.35"/><polygon class="cls-2" points="13.96 8.17 13.96 8.33 14.1 8.33 14.1 8.16 13.96 8.17"/><polygon class="cls-2" points="13.83 8.34 13.83 8.18 13.69 8.19 13.69 8.34 13.83 8.34"/><path class="cls-2" d="M21.9,23.12a2.79,2.79,0,0,1,2.57.14,1.7,1.7,0,0,1,0-1.73H21.86a1.29,1.29,0,0,0,0,1.54l0,.05" transform="translate(-16.56 -15.14)"/><path class="cls-2" d="M24.39,17.59l-2.27,0A1.35,1.35,0,0,0,22,19.36a2.44,2.44,0,0,1,2.39-.14,1.59,1.59,0,0,1,0-1.63" transform="translate(-16.56 -15.14)"/><path class="cls-2" d="M24.47,19.55H22a1.57,1.57,0,0,0-.13,1.8,2.73,2.73,0,0,1,2.59-.09,1.84,1.84,0,0,1,0-1.71" transform="translate(-16.56 -15.14)"/><path d="M20.09,23a1,1,0,0,0-1-.4Zm-1.3.23.6-.26-.48-.24Zm.77-.17-.59.25,1.36.13Zm1.16.41h.15l-.81-.33.66.33Zm-2.38-1-.72-.36.9,1Zm.18.09.16.54.1-.41Zm3.38.6a2.79,2.79,0,0,1,2.57.14,1.7,1.7,0,0,1,0-1.73H21.86a1.29,1.29,0,0,0,0,1.54l0,.05M23,17.58h-.75l-.38.33a1.11,1.11,0,0,0-.15.62Zm1.42,0H23.22l-1.51,1.11a2,2,0,0,0,.25.67,2.44,2.44,0,0,1,2.39-.14,1.59,1.59,0,0,1,0-1.63M22.16,19.4H23l.32-.24c.08-.06.17,0,.1.1l-.1.14h1.09a2.39,2.39,0,0,0-2.22,0m2.17,2a2.62,2.62,0,0,0-2.27,0Zm-2.78-2.76a1.35,1.35,0,0,1,0-.49l-3,2.7Zm-.08,1.88a1.63,1.63,0,0,1,.38-1,2.61,2.61,0,0,1-.27-.68l-4.14,3,1.35.67Zm.17.76a2,2,0,0,1-.16-.58l-2.37,1.75a1.14,1.14,0,0,1,1.17.56Zm3.11-1.79-.06.06a1.63,1.63,0,0,0,0,1.86l0,.05-.08.07a1.55,1.55,0,0,0,.17,1.95l-.11.09a2.75,2.75,0,0,0-2.72-.3c0,.12-.19,0-.23-.09a1.46,1.46,0,0,1,0-1.71l0,0L20.38,23.1l.91.37,0,.14H20.7l-2.05-.2-1.44-1.59,4.51-4a2,2,0,0,1,.34-.39h.1l1.1-1,.1.11-1,.87h.79l.06,0,0,0h1.38a1.46,1.46,0,0,0,.05,2Zm-3.13,1.11a2.17,2.17,0,0,0,.12.55l1.2-1.53Zm1.15-1H22a1.39,1.39,0,0,0-.35.84Zm1.7,0h-1.3l-1.36,1.73,0,.07a2.73,2.73,0,0,1,2.59-.09,1.84,1.84,0,0,1,0-1.71" transform="translate(-16.56 -15.14)"/><path class="cls-2" d="M22.94,19.6l-3.83,2.83a1.14,1.14,0,0,1,1.17.56Z" transform="translate(-16.56 -15.14)"/><path class="cls-2" d="M28,21.07H25.48A1.53,1.53,0,0,0,25.41,23a3.35,3.35,0,0,1,2.9,0A1.58,1.58,0,0,1,28,21.07" transform="translate(-16.56 -15.14)"/><path d="M28,21.07H25.48A1.53,1.53,0,0,0,25.41,23a3.35,3.35,0,0,1,2.9,0A1.58,1.58,0,0,1,28,21.07m-2-4.22h-.45a1.83,1.83,0,0,0-.36.63Zm1.75,0H26.26l-1.1.85a1.27,1.27,0,0,0,.31,1,2,2,0,0,1,2.29-.08,1.81,1.81,0,0,1,0-1.8m-2.05,1.9h.59l.31-.23.09.12v.11h.92a1.87,1.87,0,0,0-1.91,0m2,2.18a2.29,2.29,0,0,0-2,0Zm.32-2.11,0,.05c-.53.76-.15,1.39.19,2.1l0,0,0,0a1.38,1.38,0,0,0,.11,1.72c.09.13.19.24.25.32l-.15.09a3.28,3.28,0,0,0-3.06,0,1.68,1.68,0,0,1,0-2.2A1.51,1.51,0,0,1,25,19.94l-.6.45-.09-.12.71-.53a2.22,2.22,0,0,1,.37-.91,1.44,1.44,0,0,1-.35-1l-.76.59-.09-.12.88-.68a1.92,1.92,0,0,1,.47-.9h.7l.41-.32.09.12-.26.2H28a2.76,2.76,0,0,0-.32.84A1.6,1.6,0,0,0,28,18.78Zm-1.94.08h-.63a2.15,2.15,0,0,0-.34.72Zm1.71,0H26.36l-1.24.93a1.39,1.39,0,0,0,.34,1.08,2.58,2.58,0,0,1,2.55,0c-.32-.66-.61-1.25-.18-2" transform="translate(-16.56 -15.14)"/><path d="M28.62,17.38l-.62.43A1.2,1.2,0,0,0,28.28,19a1.91,1.91,0,0,1,1.92-.1,2.22,2.22,0,0,1,.08-1.53Zm-.53.19.27-.19h-.17a1.74,1.74,0,0,0-.1.19m2,1.45a2.1,2.1,0,0,0-.9-.18l0,0,0,.14Zm-1.05-.17a1.74,1.74,0,0,0-.56.17h.37Zm1.17.32H28.94l-1.05.95a1.43,1.43,0,0,0,.26.68,2.19,2.19,0,0,1,2-.11,1.19,1.19,0,0,1,.06-1.52m-1.52,0H28.3a1.22,1.22,0,0,0-.4.74Zm-.36,1.68h1.87a2.12,2.12,0,0,0-1.87,0m2.15.15H28.13a1.33,1.33,0,0,1,0-1.91,1.28,1.28,0,0,1-.34-1.16l-.14.1-.09-.12.28-.2a2.1,2.1,0,0,1,.23-.48h.46l.6-.42.09.12-.43.3H30.5a2,2,0,0,0,0,1.83l0,.05,0,0a1.12,1.12,0,0,0,.07,1.71Z" transform="translate(-16.56 -15.14)"/><path class="cls-2" d="M27.77,16.85H26.26l-1.1.85a1.27,1.27,0,0,0,.31,1,2,2,0,0,1,2.29-.08,1.81,1.81,0,0,1,0-1.8" transform="translate(-16.56 -15.14)"/><path class="cls-2" d="M26.12,18.9h-.63a2.15,2.15,0,0,0-.34.72Z" transform="translate(-16.56 -15.14)"/><path class="cls-2" d="M27.83,18.9H26.36l-1.24.93a1.39,1.39,0,0,0,.34,1.08,2.58,2.58,0,0,1,2.55,0c-.32-.66-.61-1.25-.18-2" transform="translate(-16.56 -15.14)"/><path class="cls-2" d="M28.62,17.38l-.62.43A1.2,1.2,0,0,0,28.28,19a1.91,1.91,0,0,1,1.92-.1,2.22,2.22,0,0,1,.08-1.53Z" transform="translate(-16.56 -15.14)"/><path class="cls-2" d="M30.25,19.17H28.94l-1.05.95a1.43,1.43,0,0,0,.26.68,2.19,2.19,0,0,1,2-.11,1.19,1.19,0,0,1,.06-1.52" transform="translate(-16.56 -15.14)"/><path class="cls-2" d="M28.73,19.17H28.3a1.22,1.22,0,0,0-.4.74Z" transform="translate(-16.56 -15.14)"/><path d="M20.26,24.14H31.1a.61.61,0,1,1,0,1.22H20.26a.61.61,0,1,1,0-1.22" transform="translate(-16.56 -15.14)"/><path class="cls-4" d="M19.75,24.75a.46.46,0,0,1,.51-.44H31.1a.45.45,0,1,1,0,.88H20.26a.46.46,0,0,1-.51-.44" transform="translate(-16.56 -15.14)"/><path class="cls-2" d="M28,24.31c-.38.14-.7.77-1,.88H25.89c.29-.11.62-.74,1-.88Z" transform="translate(-16.56 -15.14)"/><path class="cls-5" d="M29.52,24.31c-.38.14-.71.77-1,.88H27c.29-.11.61-.74,1-.88Z" transform="translate(-16.56 -15.14)"/><path class="cls-2" d="M30.75,24.31c-.38.14-.71.77-1,.88H28.53c.28-.11.61-.74,1-.88Z" transform="translate(-16.56 -15.14)"/><path class="cls-2" d="M22.84,24.31c-.38.14-.71.77-1,.88H20.73c.29-.11.61-.74,1-.88Z" transform="translate(-16.56 -15.14)"/><path class="cls-5" d="M24.36,24.31c-.38.14-.71.77-1,.88H21.85c.28-.11.61-.74,1-.88Z" transform="translate(-16.56 -15.14)"/><path class="cls-2" d="M25.59,24.31c-.38.14-.71.77-1,.88H23.37c.28-.11.61-.74,1-.88Z" transform="translate(-16.56 -15.14)"/><path d="M34.85,26.34v6.59c0,7.9-4.43,11.34-9,13.13l-.11,0-.11,0c-4.6-1.79-9-5.23-9-13.13V26.34Z" transform="translate(-16.56 -15.14)"/><path class="cls-6" d="M34.63,32.93c0,7.78-4.34,11.16-8.89,12.93l0,0,0,0c-4.55-1.77-8.9-5.15-8.9-12.93V26.56H34.63Z" transform="translate(-16.56 -15.14)"/><path d="M31.16,33H20.08v-.65h-.56v-.87h.56v-.94h-.54v-.86h.54v-.2h.29v-.27h.25v-.38h.24v-.31h.27v-.24a3.33,3.33,0,0,0,2.07,0,3.81,3.81,0,0,1,2.49.28c1.07-.69,2-.28,3.12-.23a4.93,4.93,0,0,0,1.43-.14v.38h.27v.31h.26v.24H31v.15h.25v.19l.55,0v.86h-.55v1.06h.53v.89h-.53V33ZM20.08,31.71h-.36v.49h.36Zm0-1.8h-.34v.47h.34Zm11.18.28h.36v-.47h-.36Zm0,1.94h.34v-.5h-.34ZM20.44,29.72h-.17v3.13h.52a1.6,1.6,0,0,1-.35-.15Zm5.19-.93a3.56,3.56,0,0,0-2.4-.28,4,4,0,0,1-1.9.09v3.21c1.59.43,2.72-.52,4.3.16Zm4.9,4.06h.53V29.5h-.13v3.2a2.37,2.37,0,0,1-.4.15m-5.23-.49a2.89,2.89,0,0,0-1-.15c-1.14,0-2.27.41-3.39,0V29.07h-.13V32.4a4.92,4.92,0,0,0,2.31.2,5.55,5.55,0,0,1,2.11,0,.9.9,0,0,1,.07-.27m.24-.3c-1.15-.48-1.94-.07-3.08,0a3.79,3.79,0,0,1-1.25-.15V28.76h-.15v3.35c1,.37,2.2,0,3.27,0a2.73,2.73,0,0,1,1,.17.52.52,0,0,1,.19-.2m.23-.06h0a4.45,4.45,0,0,1,2.55-.13A2.06,2.06,0,0,0,30,31.77v-3.3a6.4,6.4,0,0,1-2.35,0,2.55,2.55,0,0,0-1.94.35V32Zm2.56,0a4.34,4.34,0,0,0-2.41.1.47.47,0,0,1,.17.22,3.24,3.24,0,0,1,1.12-.2,6.39,6.39,0,0,1,1,.1,3.73,3.73,0,0,0,2.12-.1V28.81h-.16v3a2.23,2.23,0,0,1-1.83.12m-2.15.66v0a4.17,4.17,0,0,1,1.17-.17,5.92,5.92,0,0,1,1,.09,4.34,4.34,0,0,0,2.26-.23V29.11h-.15v3.06a3.78,3.78,0,0,1-2.25.14,5.15,5.15,0,0,0-1-.1,3.24,3.24,0,0,0-1.08.19c0,.09,0,.17.05.23m1.17,0a4.21,4.21,0,0,0-1.2.19l0,0,0,0h3.83a3.19,3.19,0,0,0,.87-.23V29.35h-.12v3.08a4.39,4.39,0,0,1-2.39.26,6.81,6.81,0,0,0-.95-.09m-6,.25h3.89a.3.3,0,0,1,0-.1,5.49,5.49,0,0,0-2.1,0,4.8,4.8,0,0,1-2.43-.23v-3h-.14v3.18a2.5,2.5,0,0,0,.82.22" transform="translate(-16.56 -15.14)"/><path class="cls-7" d="M25.69,28.71" transform="translate(-16.56 -15.14)"/><path class="cls-2" d="M25.42,32.36a1,1,0,0,0-.08.34c0,.24.69.26.72,0s-.16-.59-.35-.57a.36.36,0,0,0-.29.23" transform="translate(-16.56 -15.14)"/><rect class="cls-2" x="3.16" y="16.57" width="0.36" height="0.49"/><rect class="cls-2" x="3.18" y="14.77" width="0.34" height="0.47"/><rect class="cls-2" x="14.7" y="14.58" width="0.36" height="0.47"/><rect class="cls-2" x="14.7" y="16.49" width="0.34" height="0.5"/><path class="cls-2" d="M20.44,29.72h-.17v3.13h.52a1.6,1.6,0,0,1-.35-.15Z" transform="translate(-16.56 -15.14)"/><path class="cls-2" d="M30.53,32.85h.53V29.5h-.13v3.2a2.37,2.37,0,0,1-.4.15" transform="translate(-16.56 -15.14)"/><path class="cls-2" d="M25.3,32.36a2.89,2.89,0,0,0-1-.15c-1.14,0-2.27.41-3.39,0V29.07h-.13V32.4a4.92,4.92,0,0,0,2.31.2,5.55,5.55,0,0,1,2.11,0,.9.9,0,0,1,.07-.27" transform="translate(-16.56 -15.14)"/><path class="cls-2" d="M25.54,32.06c-1.15-.48-1.94-.07-3.08,0a3.79,3.79,0,0,1-1.25-.15V28.76h-.15v3.35c1,.37,2.2,0,3.27,0a2.73,2.73,0,0,1,1,.17.52.52,0,0,1,.19-.2" transform="translate(-16.56 -15.14)"/><path class="cls-2" d="M28.33,32a4.34,4.34,0,0,0-2.41.1.47.47,0,0,1,.17.22,3.24,3.24,0,0,1,1.12-.2,6.39,6.39,0,0,1,1,.1,3.73,3.73,0,0,0,2.12-.1V28.81h-.16v3a2.23,2.23,0,0,1-1.83.12" transform="translate(-16.56 -15.14)"/><path class="cls-2" d="M26.18,32.63v0a4.17,4.17,0,0,1,1.17-.17,5.92,5.92,0,0,1,1,.09,4.34,4.34,0,0,0,2.26-.23V29.11h-.15v3.06a3.78,3.78,0,0,1-2.25.14,5.15,5.15,0,0,0-1-.1,3.24,3.24,0,0,0-1.08.19c0,.09,0,.17.05.23" transform="translate(-16.56 -15.14)"/><path class="cls-2" d="M27.35,32.6a4.21,4.21,0,0,0-1.2.19l0,0,0,0h3.83a3.19,3.19,0,0,0,.87-.23V29.35h-.12v3.08a4.39,4.39,0,0,1-2.39.26,6.81,6.81,0,0,0-.95-.09" transform="translate(-16.56 -15.14)"/><path class="cls-2" d="M21.38,32.85h3.89a.3.3,0,0,1,0-.1,5.49,5.49,0,0,0-2.1,0,4.8,4.8,0,0,1-2.43-.23v-3h-.14v3.18a2.5,2.5,0,0,0,.82.22" transform="translate(-16.56 -15.14)"/><path class="cls-2" d="M25.63,28.79a3.56,3.56,0,0,0-2.4-.28,4,4,0,0,1-1.9.09v3.21c1.59.43,2.72-.52,4.3.16Z" transform="translate(-16.56 -15.14)"/><path class="cls-2" d="M25.77,32h0a4.45,4.45,0,0,1,2.55-.13A2.06,2.06,0,0,0,30,31.77v-3.3a6.4,6.4,0,0,1-2.35,0,2.55,2.55,0,0,0-1.94.35V32Z" transform="translate(-16.56 -15.14)"/><path class="cls-8" d="M21.77,29.23h-.14v0h0s0,0,0,0h0v.09s0,0,0,0h.06s0,0,0,0v-.09h0s0,0,0,0h0Z" transform="translate(-16.56 -15.14)"/><path class="cls-8" d="M21.88,29.36h0s0,0,0,0h0s0,0,0,0h0v-.07h0s0,0,0,0v.07s0,0,0,0h0s0,0,0,0h0a0,0,0,0,1,0,0s0,0,0,0h0s0,0,0,0h.05Z" transform="translate(-16.56 -15.14)"/><path class="cls-8" d="M21.92,29.31a0,0,0,0,1,0,0s0,0,0,0Zm0,0h0a0,0,0,0,0,0,0,0,0,0,0,0,0,0,0,0,0,0,0,0,0l0,0h0s0,0,0,0" transform="translate(-16.56 -15.14)"/><path d="M22.09,29.32s0,0,0,0h0v0a0,0,0,0,1,0,0s0,0,0,0h0v0h0s0,0,0,0,0,0,0,0h0v0a0,0,0,0,1,0,0s0,0,0,0h0v0h0s0,0,0,0l0,0" transform="translate(-16.56 -15.14)"/><path class="cls-8" d="M22.16,29.33h0s0,0,0,0v0h0s0,0,0,0h0s0,0,0,0h.05Zm0-.1a0,0,0,0,0,0,0s0,0,0,0h0" transform="translate(-16.56 -15.14)"/><path d="M22.18,29.27v0s0,0,0,0h0a0,0,0,0,1,0,0s0,0,0,0v0h0v0h0s0,0,0,0h0Z" transform="translate(-16.56 -15.14)"/><path d="M22.34,29.31h0s0,0,0,0v0h0s0,0,0,0v0s0,0,0,0,0,0,0,0v0h0s0,0,0,0v0s0,0,0,0h.06Z" transform="translate(-16.56 -15.14)"/><path class="cls-8" d="M22.43,29.29h0v0s0,0,0,0a0,0,0,0,0,0,0h0a0,0,0,0,0,0,0s0,0,0,0,0,0,0,0,0,0,0,0,0,0,0,0l0,0a0,0,0,0,0,0,0h0m0,0h0s0,0,0,0,0,0,0,0Z" transform="translate(-16.56 -15.14)"/><path d="M22.45,29.23v0s0,0,0,0l0,0h0a0,0,0,0,1,0,0v0h0v0h0s0,0,0,0h0Z" transform="translate(-16.56 -15.14)"/><path class="cls-8" d="M22.55,29.28h0s0,0,0,0V29.2h0s0,0,0,0h0s0,0,0,0h.05Zm0-.11a0,0,0,0,0,0,0,0,0,0,0,0,0,0h0" transform="translate(-16.56 -15.14)"/><path class="cls-8" d="M22.66,29.22a0,0,0,0,0-.05,0,0,0,0,0,0,0,0s0,0,0,0,.05,0,.05-.05m0,0s0,0,0,0,0,0,0,0,0,0,0,0,0,0,0,0" transform="translate(-16.56 -15.14)"/><path d="M22.71,29.19v0h0s0,0,0,0h0s0,0,0,0h0s0,0,0,0v0a0,0,0,0,1,0,0s0,0,0,0h0s0,0,0,0h.05s0,0,0,0v0s0,0,0,0l0,0" transform="translate(-16.56 -15.14)"/><path class="cls-8" d="M22.94,29.17a0,0,0,0,0-.05,0,0,0,0,0,0,0,.05s0,0,0,0,.05,0,.05,0m0,0s0,0,0,0,0,0,0,0,0,0,0,0,0,0,0,0" transform="translate(-16.56 -15.14)"/><path d="M23,29.13h0v0a.05.05,0,0,1,0,0s0,0,0,0h0s0,0,0,0,0,0,0,0v0h0v0s0,0,0,0H23s0,0,0,0Z" transform="translate(-16.56 -15.14)"/><path class="cls-8" d="M23.1,29.07l0,.1h0l0-.11v.07s0,0,0,0h.06s0,0,0,0v-.07s0,0,0,0h0l-.05.11-.05-.1h0s0,0,0,0v.07s0,0,0,0h.05s0,0,0,0Z" transform="translate(-16.56 -15.14)"/><path class="cls-8" d="M23.35,29.1s0,0-.05,0a0,0,0,0,0,0,.05s0,0,0,0a0,0,0,0,0,.05,0m0,0a0,0,0,0,1,0,0s0,0,0,0,0,0,0,0,0,0,0,0" transform="translate(-16.56 -15.14)"/><path d="M23.47,29.12h0s0,0,0,0v0h0s0,0,0,0v0l0,0s0,0,0,0v0h0s0,0,0,0h0s0,0,0,0h.06Z" transform="translate(-16.56 -15.14)"/><path d="M23.51,29.05h0s0,0,0,0h0s0,0,0,0h.05s0,0,0,0h0s0,0,0,0,0,0,0,0h0s0,0,0,0h.05s0,0,0,0v0a0,0,0,0,0,0,0l0,0" transform="translate(-16.56 -15.14)"/><path d="M23.61,29v0s0,0,0,0a0,0,0,0,0,0,0h0s0,0,0,0v0h0v0h0l0,0h0Z" transform="translate(-16.56 -15.14)"/><path class="cls-8" d="M23.72,29.1h.11v0h-.06s0,0,0,0V29s0,0,0,0h-.06s0,0,0,0v.08s0,0,0,0Z" transform="translate(-16.56 -15.14)"/><path class="cls-8" d="M23.94,29.05a0,0,0,0,0-.05,0,0,0,0,0,0,0,.08,0,0,0,0,0,.05,0m0,0a0,0,0,0,1-.06,0,0,0,0,0,1,.06,0,0,0,0,0,1,0,0" transform="translate(-16.56 -15.14)"/><path d="M24,29h0v0s0,0,0,0,0,0,0,0h0s0,0,0,0a0,0,0,0,0,0,0v0h0v0s0,0,0,0H24s0,0,0,0Z" transform="translate(-16.56 -15.14)"/><path d="M24,29v.05s0,0,0,0h0V29h0v0h0s0,0,0,0h0Z" transform="translate(-16.56 -15.14)"/><path class="cls-8" d="M24.09,29.14h0l0-.11a0,0,0,0,1,0,0h0s0,0,0,0v0l0,0s0,0,0,0h0s0,0,0,0l0,.06v0s0,0,0,0" transform="translate(-16.56 -15.14)"/><path class="cls-8" d="M24.28,29.05l0,.05h0l0-.06h0l0,0,0-.06h0l0,.05,0,0s0,0,0,0h0l0,0,0,.06h0Z" transform="translate(-16.56 -15.14)"/><path class="cls-8" d="M24.42,29.1h0v0a0,0,0,0,0,0,0s0,0,0,0,0,0,0,0h0s0,0,0,0l-.05,0s0,0,0,0l0,0a0,0,0,0,0,0,0h0m0,0h0a0,0,0,0,1,0,0l0,0Z" transform="translate(-16.56 -15.14)"/><path d="M24.49,29.09l0,0h0v0s0,0,0,0l0,0h0v0h0s0,0,0,0a0,0,0,0,0,0,0,0,0,0,0,0,0,0h0s0,0,0,0h0s0,0,0,0h0v0h0a0,0,0,0,0,0,0" transform="translate(-16.56 -15.14)"/><path class="cls-8" d="M24.59,29.06h0v0s0,0,0,0,0,0,0,0h0l0,0a0,0,0,0,0,0,0v0h0v0s0,0,0,0h.06s0,0,0,0Z" transform="translate(-16.56 -15.14)"/><path class="cls-8" d="M24.71,29.11a0,0,0,0,0,0,0,0,0,0,0,0-.05,0s0,0,.05,0a0,0,0,0,0,0,0m0,0a0,0,0,0,1,0,0s0,0,0,0a0,0,0,0,1,0,0s0,0,0,0" transform="translate(-16.56 -15.14)"/><path class="cls-8" d="M24.84,29.18h0s0,0,0,0v0h0s0,0,0,0h0s0,0,0,0,0,0,0,0v0h0s0,0,0,0h0s0,0,0,0h0v0Z" transform="translate(-16.56 -15.14)"/><path class="cls-8" d="M24.88,29.13v0h0s0,0,0,0h0s0,0,0,0h0s0,0,0,0v0s0,0,0,0,0,0,0,0h0s0,0,0,0h0l.05,0h0s0,0,0,0h0s0,0,0,0,0,0,0,0" transform="translate(-16.56 -15.14)"/><path class="cls-8" d="M25,29.21h0s0,0,0,0,0,0,0,0l0,0Zm0,0s0,0,0,0,0,0,0,0a.06.06,0,0,0,0,.06s0,0,0,0v0h0s0,0,0,0v-.1h0s0,0,0,0Z" transform="translate(-16.56 -15.14)"/><path d="M21.67,29.61h0v0s0,0,0,0h0s0,0,0,0,0,0,0,0v0h0v0s0,0,0,0h.05s0,0,0,0Z" transform="translate(-16.56 -15.14)"/><path d="M21.78,29.61h-.07s0,0,0,0v0s0,0,0,0h.05s0,0,0,0v0l0,0h0s0,0,0,0" transform="translate(-16.56 -15.14)"/><path class="cls-8" d="M21.89,29.63s0,0-.05,0a0,0,0,0,0,0,.08,0,0,0,0,0,.05-.05m0,0a0,0,0,0,1,0,0s0,0,0,0,0,0,0,0,0,0,0,0" transform="translate(-16.56 -15.14)"/><path d="M22,29.62a0,0,0,0,1,0,0s0,0,0,0v0s0,0,0,0h.05s0,0,0,0v0a0,0,0,0,0,0,0l0,0s0,0,0,0h-.06s0,0,0,0h0s0,0,0,0h0s0,0,0,0h0s0,0,0,0,0,0,0,0h0s0,0,0,0h0s0,0,0,0Z" transform="translate(-16.56 -15.14)"/><path class="cls-8" d="M22.23,29.64h0s0,0,0,0h0s0,0,0,0l0,0v-.07h0s0,0,0,0v.07s0,0,0,0h0s0,0,0,0h0a0,0,0,0,1,0,0s0,0,0,0h0s0,0,0,0h.05Z" transform="translate(-16.56 -15.14)"/><path class="cls-8" d="M22.27,29.58l0,0s0,0,0,0Zm0,0h.06s0,0,0,0a.07.07,0,0,0,0,.05,0,0,0,0,0,0,0l0,0h0l0,0s0,0,0,0" transform="translate(-16.56 -15.14)"/><path d="M22.37,29.56v0h0s0,0,0,0h0s0,0,0,0h0s0,0,0,0h0s0,0,0,0,0,0,0,0h0s0,0,0,0h.05s0,0,0,0h0a0,0,0,0,0,0,0s0,0,0,0" transform="translate(-16.56 -15.14)"/><path d="M22.5,29.53h0a0,0,0,0,0,0,0s0,0,0,0a.07.07,0,0,0,0,.05s0,0,0,0l0,0h0l0,0s0,0,0,0,0,0,0,0" transform="translate(-16.56 -15.14)"/><path class="cls-8" d="M22.56,29.54l0,0s0,0,0,0Zm0,0h.06a0,0,0,0,0,0,0,.05.05,0,0,0-.05,0,0,0,0,0,0,.05,0l0,0h0s0,0,0,0" transform="translate(-16.56 -15.14)"/><path class="cls-8" d="M22.76,29.55h0v0s0,0,0,0,0,0,0,0h0a0,0,0,0,1,0,0s0,0,0,0-.05,0-.05,0,0,0,0,0l0,0h0m0,0,0,0h0s0,0,0,0Z" transform="translate(-16.56 -15.14)"/><path d="M22.81,29.49v0h0s0,0,0,0h0s0,0,0,0h.05s0,0,0,0v0a0,0,0,0,1,0,0s0,0,0,0h0s0,0,0,0h.05s0,0,0,0v0s0,0,0,0,0,0,0,0" transform="translate(-16.56 -15.14)"/><path class="cls-8" d="M23,29.5a0,0,0,0,1,0,0,0,0,0,0,1,0-.06s0,0,0,0Zm0,0h0s0,0,0,.05a0,0,0,0,0,0,0s0,0,0,0h0s0,0,0,0v-.11h0s0,0,0,0Z" transform="translate(-16.56 -15.14)"/><path d="M23.09,29.43h0v0s0,0,0,0,0,0,0,0h0s0,0,0,0a0,0,0,0,0,0,.05v0h0v0s0,0,0,0h.05s0,0,0,0Z" transform="translate(-16.56 -15.14)"/><path d="M23.2,29.42s0,0,0,0l0,0v0h0s0,0,0,0h0s0,0,0,0h.05s0,0,0,0h0a0,0,0,0,1,0,0h0" transform="translate(-16.56 -15.14)"/><path class="cls-8" d="M23.3,29.43s0,0,0,0a0,0,0,0,0-.05,0s0,0,.05,0a.07.07,0,0,0,0-.05m0,0s0,0,0,0a0,0,0,0,1,0,0s0,0,0,0,0,0,0,0" transform="translate(-16.56 -15.14)"/><path d="M23.41,29.41s0,0,0,0a0,0,0,0,1,0,0v0s0,0,0,0h.05s0,0,0,0h0s0,0,0,0l0,0s0,0,0,0l0,0v0h0s0,0,0,0h0s0,0,0,0h.05s0,0,0,0v0s0,0,0,0,0,0,0,0h0s0,0,0,0h0s0,0,0,0Z" transform="translate(-16.56 -15.14)"/><path d="M23.6,29.4l0,0h0s0,0,0,0h0v0h0s0,0,0,0l0,0h0a0,0,0,0,1,0,0s0,0,0,0,0,0,0,0h0v0h0a0,0,0,0,0,0,0" transform="translate(-16.56 -15.14)"/><path class="cls-8" d="M23.7,29.38a0,0,0,0,0,0,0,0,0,0,0,0-.05.05s0,0,.05,0a0,0,0,0,0,0,0m0,0s0,0,0,0a0,0,0,0,1,0,0,0,0,0,0,1,0,0s0,0,0,0" transform="translate(-16.56 -15.14)"/><path d="M23.81,29.36l0,0a0,0,0,0,1,0,0h0s0,0,0,0h0s0,0,0,0h0s0,0,0,0,0,0,0,0,0,0,0,0a0,0,0,0,0,0,0v0h0s0,0,0,0h0s0,0,0,0h.05s0,0,0,0h0s0,0,0,0,0,0,0,0v0s0,0,0,0h0s0,0,0,0Z" transform="translate(-16.56 -15.14)"/><path class="cls-8" d="M23.91,29.35l0,0s0,0,0,0Zm0,0H24s0,0,0,0a0,0,0,0,0,0,0s0,0,0,0h0a0,0,0,0,1,0,0" transform="translate(-16.56 -15.14)"/><path class="cls-8" d="M24.13,29.36a0,0,0,0,0-.05,0,0,0,0,0,0,0,.08,0,0,0,0,0,.05,0m0,0a0,0,0,0,1,0,0s0,0,0,0,0,0,0,0a0,0,0,0,1,0,0" transform="translate(-16.56 -15.14)"/><path d="M24.16,29.33v.05a0,0,0,0,0,0,0h0s0,0,0,0v-.05h0v0h0l0,0h0Z" transform="translate(-16.56 -15.14)"/><path class="cls-8" d="M24.32,29.4h0s0,0,0,0h0s0,0,0,0l0,0v-.08h0s0,0,0,0v.07s0,0,0,0h.05s0,0,0,0v0s0,0,0,0,0,0,0,0h0s0,0,0,0h.05Z" transform="translate(-16.56 -15.14)"/><path class="cls-8" d="M24.35,29.35s0,0,0,0,0,0,0,0Zm0,0h0s0,0,0,0a0,0,0,0,0,0,0,0,0,0,0,0,0,0h0s0,0,0,0" transform="translate(-16.56 -15.14)"/><path class="cls-8" d="M24.5,29.36l0,0h-.06s0,0,0,0h0s0,0,0,0h0s0,0,0,0h0a0,0,0,0,1,0,0h0a0,0,0,0,0,0,0h0" transform="translate(-16.56 -15.14)"/><path d="M24.6,29.36s0,0,0,0h0s0,0,0,0a0,0,0,0,0,0,0,0,0,0,0,0,0,0,0,0,0,0,0,0,0h0s0,0,0,0,0,0,0,0" transform="translate(-16.56 -15.14)"/><path class="cls-8" d="M24.72,29.39a0,0,0,0,0,0,0h-.05s0,0,0,0h0s0,0,0,0h.05s0,0,0,0h0s0,0,0,0h0" transform="translate(-16.56 -15.14)"/><path class="cls-8" d="M24.82,29.44s0-.05,0-.05a0,0,0,0,0-.05,0s0,0,.05,0,0,0,0,0m0,0a0,0,0,0,1,0,0s0,0,0,0,0,0,0,0a0,0,0,0,1,0,0" transform="translate(-16.56 -15.14)"/><path d="M24.9,29.47a0,0,0,0,0,0,0h0v0s0,0,0,0a0,0,0,0,1,0,0h0v0h0s0,0,0,0a0,0,0,0,0,0,0l0,0h0s0,0,0,0,0,0,0,0h0v0h0s0,0,0,0,0,0,0,0" transform="translate(-16.56 -15.14)"/><path d="M25,29.49l0,0h0v0s0,0,0,0,0,0,0,0h0v0h0s0,0,0,0,0,0,0,0l0,0h0s0,0,0,0,0,0,0,0,0,0,0,0h0v0h0s0,0,0,0,0,0,0,0" transform="translate(-16.56 -15.14)"/><path class="cls-8" d="M21.66,29.94l0,0s0,0,0,0,0,0,0,0l0,0Zm0,0,0,0a0,0,0,0,0,0,0,0,0,0,0,0,0-.05l0,0v-.08h0s0,0,0,0V30h0Z" transform="translate(-16.56 -15.14)"/><path class="cls-8" d="M21.77,29.94s0,0,0,0,0,0,0,0Zm0,0h.06a0,0,0,0,0,0,0,0,0,0,0,0,0,.08h0s0,0,0,0" transform="translate(-16.56 -15.14)"/><path class="cls-8" d="M21.91,30h0v0s0,0,0,0h0s0,0,0,0h0s0,0,0,0-.05,0-.05,0l0,0,0,0h0m0,0h0s0,0,0,0Z" transform="translate(-16.56 -15.14)"/><path d="M22,29.93s0,0,0,0l0,0v0h0s0,0,0,0h0s0,0,0,0h0s0,0,0,0h0s0,0,0,0h0a0,0,0,0,0,0,0" transform="translate(-16.56 -15.14)"/><path class="cls-8" d="M22.05,30h0s0,0,0,0v-.05h0s0,0,0,0h0s0,0,0,0h.05Zm0-.11h0s0,0,0,0" transform="translate(-16.56 -15.14)"/><path d="M22.09,29.92h0s0,0,0,0h0s0,0,0,0h.05s0,0,0,0h0s0,0,0,0,0,0,0,0h0s0,0,0,0h.05s0,0,0,0h0s0,0,0,0l0,0" transform="translate(-16.56 -15.14)"/><path class="cls-8" d="M22.23,29.92s0,0,0,0a0,0,0,0,1,0,0s0,0,0,0a0,0,0,0,1,0,0m0,0,0,0a0,0,0,0,0,0,0v0h0s0,0,0,0h0a0,0,0,0,0,0,0s0,0,0,0l0,0s0,0,0,0,0,0,0,0,0,0,0,0,0,0,0,0h0s0,.05,0,0,0,0,0,0,0,0,0,0h0" transform="translate(-16.56 -15.14)"/><path d="M22.32,29.94s0,0,0,0h0s0,0,0,0h0a0,0,0,0,1,0,0h0v0h0a0,0,0,0,0,0,0s0,0,0,0h0l0,0h0v0h0a0,0,0,0,0,0,0" transform="translate(-16.56 -15.14)"/><path d="M22.36,30l0,0h0s0,0,0,0h0Z" transform="translate(-16.56 -15.14)"/><path d="M22.45,29.88v0s0,0,0,0,0,0,0,0h0s0,0,0,0v0h0v0h0l0,0h0Z" transform="translate(-16.56 -15.14)"/><path class="cls-8" d="M22.59,29.89a0,0,0,0,0,0,0s-.05,0-.05,0a0,0,0,0,0,.05,0,0,0,0,0,0,0,0m0,0s0,0,0,0a0,0,0,0,1,0,0s0,0,0,0,0,0,0,0" transform="translate(-16.56 -15.14)"/><path class="cls-8" d="M22.68,29.86s0,0,0,0a0,0,0,0,1,0,0s0,0,0,0a0,0,0,0,1,0,0Zm0,0s0,0,0,0,0,0,0,0,0,0,0,0l0,0v-.07h0s0,0,0,0v.1h0Z" transform="translate(-16.56 -15.14)"/><path class="cls-8" d="M22.78,29.84a0,0,0,0,1,0,0s0,0,0,0Zm0,0,0,0s0,0,0,0a0,0,0,0,0,0,0,0,0,0,0,0,0,0l0,0h0l0,0s0,0,0,0" transform="translate(-16.56 -15.14)"/><path d="M22.94,29.83s0,0,0,0,0,0,0,0h0s0,0,0,0h0s0,0,0,0a.07.07,0,0,0,0,0,0,0,0,0,0,0,0h0a0,0,0,0,0,0,0s0,0-.05,0-.05,0,0,0h0s0,0,0,0,0,0,0,0,0,0,0,0v0h0" transform="translate(-16.56 -15.14)"/><path class="cls-8" d="M23.06,29.72h0l-.06.1h.05s0,0,0,0h.06s0,0,0,0v0h0v0h0s0,0,0,0h0Zm0,.1h0l0-.07Z" transform="translate(-16.56 -15.14)"/><path class="cls-8" d="M23.14,29.68l0,0a0,0,0,0,0,0,0,0,0,0,0,0,0,0s0,0,0,0m0,0s0,0,0,0a0,0,0,0,1,0,0,0,0,0,0,1,0,0,0,0,0,0,1,0,0" transform="translate(-16.56 -15.14)"/><path class="cls-8" d="M23.26,29.76v0h.06v0h0l0,0h0v.08h0s0,0,0,0a0,0,0,0,1,0,0,.05.05,0,0,1,0,0s0,0,0,0,0,0,0,0,0,0,0,0a0,0,0,0,0,0,0s0,0,0,0a0,0,0,0,0,0,0" transform="translate(-16.56 -15.14)"/><path class="cls-8" d="M23.43,29.73c0-.05,0-.06,0-.05a0,0,0,0,0-.05.05s0,0,.05,0a0,0,0,0,0,0,0s0,.07,0,.07h0s.05-.05.05-.09m0,0,0,0a0,0,0,0,1,0,0,0,0,0,0,1,0,0s0,0,0,0" transform="translate(-16.56 -15.14)"/><path d="M23.46,29.64v0h0a.06.06,0,0,1,0,0,0,0,0,0,0,0,0s0,0,0,0" transform="translate(-16.56 -15.14)"/><path d="M23.6,29.72l0,0h0s0,0,0,0,0,0,0,0h0v0h0a0,0,0,0,0,0,0s0,0,0,0h0s0,0,0,0h0v0h0s0,0,0,0a0,0,0,0,0,0,0" transform="translate(-16.56 -15.14)"/><path class="cls-8" d="M23.7,29.69s0,0,0,0a0,0,0,0,0-.05,0s0,0,.05,0,0,0,0,0m0,0s0,0,0,0a0,0,0,0,1,0-.06s0,0,0,0" transform="translate(-16.56 -15.14)"/><path d="M23.82,29.72h0s0,0,0,0v0h0s0,0,0,0h0a0,0,0,0,1,0,0s0,0,0,0v0h0s0,0,0,0v0a0,0,0,0,0,0,0l0,0h0Z" transform="translate(-16.56 -15.14)"/><path d="M23.84,29.65v.05a0,0,0,0,0,0,0h0a0,0,0,0,1,0,0v-.05h0v0h0l0,0h0Z" transform="translate(-16.56 -15.14)"/><path class="cls-8" d="M24,29.71h0s0,0,0,0h0s0,0,0,0h0v-.07h0s0,0,0,0v.07s0,0,0,0h.05s0,0,0,0h0a0,0,0,0,1,0,0s0,0,0,0h0s0,0,0,0h0Z" transform="translate(-16.56 -15.14)"/><path class="cls-8" d="M24.12,29.7h0v0a0,0,0,0,0,0,0s0,0,0,0a0,0,0,0,0,0,0h0s0,0,0,0,0,0,0,0a0,0,0,0,0,0,0h0a0,0,0,0,0,0,0m0,0h0s0,0,0,0Z" transform="translate(-16.56 -15.14)"/><path d="M24.16,29.65v0h0s0,0,0,0h0s0,0,0,0h.05s0,0,0,0v0s0,0,0,0,0,0,0,0h0s0,0,0,0h0s0,0,0,0h0s0,0,0,0l0,0" transform="translate(-16.56 -15.14)"/><path class="cls-8" d="M24.32,29.69l0,0s0,0,0,0,0,0,0,0l0,0Zm0,0,0,0a0,0,0,0,0,0,.08s0,0,0,0v0h0s0,0,0,0v-.1h0s0,0,0,0Z" transform="translate(-16.56 -15.14)"/><path class="cls-8" d="M24.46,29.73h0s0,0,0,0v0s0,0,0,0h-.05s0,0,0,0v0s0,0,0,0h.05Z" transform="translate(-16.56 -15.14)"/><path d="M24.53,29.71s0,0,0,0a0,0,0,0,1,0,0l0,0a0,0,0,0,0,0,0h0s0,0,.05,0,0,0,0,0a.05.05,0,0,0,0,0h0a0,0,0,0,0,0,0s0,0-.05,0-.05,0,0,.05h0s0,0,0,0a0,0,0,0,1,0,0l0,0h0" transform="translate(-16.56 -15.14)"/><path class="cls-8" d="M24.64,29.67l0,0s0,0,0,0,0,0,0,0a0,0,0,0,1,0,0m0,0s0,0,0,0a0,0,0,0,1,0,0,0,0,0,0,1,0,0s0,0,0,0m0,0s0,0,0,0,0,0,0,0,0,0,0,0l0,0s0,0,0,0a0,0,0,0,0,.05,0s0,0,0,0a.07.07,0,0,0,0,0" transform="translate(-16.56 -15.14)"/><path class="cls-8" d="M24.73,29.63a0,0,0,0,0,0,0s0,0,0,0,0,0,0,0,0,0,0,0m0,0s0,0,0,0l0,0s0,0,0,0a0,0,0,0,1,0,0" transform="translate(-16.56 -15.14)"/><path class="cls-8" d="M24.89,29.69h0l-.07.08h0l.05,0h0s0,0,0,0h.06s0,0,0,0v0h0v0h0Zm0,.09h0l0-.05Z" transform="translate(-16.56 -15.14)"/><path d="M25,29.8l0,0a.07.07,0,0,0,0-.05s-.05,0,0,0h0s0,0,0,0l0,0s0,0,0,0h0l0,0s0,0,0,0h0v0H25Z" transform="translate(-16.56 -15.14)"/><path d="M25.05,29.73a.08.08,0,0,0,0,0h0s0,0,0,0h0s0,0,0,0" transform="translate(-16.56 -15.14)"/><path class="cls-8" d="M21.66,30.25s0,0,0,0,0,0,0,0Zm0,0h.05s0,0,0,0,0,0,0,0a0,0,0,0,0,0,0h0s0,0,0,0,0,0,0,0" transform="translate(-16.56 -15.14)"/><path class="cls-8" d="M21.81,30.31h0v0s0,0,0,0a0,0,0,0,0,0,0h0a0,0,0,0,1,0,0s0,0,0,0-.05,0-.05,0a0,0,0,0,0,0,0h.06m0,0h0s0,0,0,0,0,0,0,0Z" transform="translate(-16.56 -15.14)"/><path d="M21.88,30.29l0,0h0s0,0,0,0a0,0,0,0,1,0,0,0,0,0,0,1,0,0h0v0h0s0,0,0,0,0,0,0,0,0,0,0,0h0s0,0,0,0h0s0,0,0,0h0v0h0s0,0,0,0a0,0,0,0,0,0,0" transform="translate(-16.56 -15.14)"/><path d="M21.9,30.25v0s0,0,0,0h0s0,0,0,0v0h0v0h0a0,0,0,0,1,0,0h0Z" transform="translate(-16.56 -15.14)"/><path d="M22,30.3h0" transform="translate(-16.56 -15.14)"/><path d="M22.19,30.28l-.08-.1h0s0,0,0,0v.07s0,0,0,0h.05s0,0,0,0V30.2l.09.11h0v-.1s0,0,0,0h0s0,0,0,0Z" transform="translate(-16.56 -15.14)"/><path class="cls-8" d="M22.33,30.26s0,0,0,0a0,0,0,0,0,0,0,0,0,0,0,0,0,0,0,0,0,0,0,0,0m0,0a0,0,0,0,1,0,0s0,0,0,0,0,0,0,0a0,0,0,0,1,0,0" transform="translate(-16.56 -15.14)"/><path d="M22.45,30.28h0s0,0,0,0v-.1h0s0,0,0,0v.07s0,0,0,0h.05Z" transform="translate(-16.56 -15.14)"/><path class="cls-8" d="M22.54,30.27h0v0s0,0,0,0l0,0h0a0,0,0,0,0,0,0h0s0,0,0,0-.05,0-.05,0,0,0,0,0l0,0s0,0,0,0h0m0,0h0s0,0,0,0Z" transform="translate(-16.56 -15.14)"/><path d="M22.58,30.2v0l0,0h0s0,0,0,0h0s0,0,0,0h.05s0,0,0,0h0a0,0,0,0,1,0,0s0,0,0,0h0s0,0,0,0h.05s0,0,0,0h0a0,0,0,0,0,0,0l0,0" transform="translate(-16.56 -15.14)"/><path class="cls-8" d="M22.73,30.21l0,0s0,0,0,0,0,0,0,0h0Zm0,0s0,0,0,0a.07.07,0,0,0,0,.05s0,0,0,0l0,0v0h0s0,0,0,0v-.1h0s0,0,0,0Z" transform="translate(-16.56 -15.14)"/><path d="M22.88,30.16l0,0h0l0-.06a0,0,0,0,1,0,0h0s0,0,0,0v0l0-.05h0l0,.05v0s0,0,0,0h0a0,0,0,0,1,0,0l0,.05h0Z" transform="translate(-16.56 -15.14)"/><path class="cls-8" d="M23,30.17h0v0s0,0,0,0l0,0s0,0,0,0h0a0,0,0,0,1,0,0s0,0,0,0,0,0,0,0,0,0,0,0,0,0,0,0h0m0,0s0,0,0,0h0s0,0,0,0Z" transform="translate(-16.56 -15.14)"/><path d="M23.09,30.14a0,0,0,0,0,0,0h0v0a0,0,0,0,1,0,0h0v0h0s0,0,0,0l0,0s0,0,0,0h0l0,0h0v0h0s0,0,0,0l0,0" transform="translate(-16.56 -15.14)"/><path d="M23.23,30.06h0s0,0,0,0v0l0,0h0l0,.05h0l0-.06s0,0,0,0" transform="translate(-16.56 -15.14)"/><path class="cls-8" d="M23.28,30.12h0s0,0,0,0V30h0s0,0,0,0h0s0,0,0,0h.05Zm0-.11h0a0,0,0,0,0,0,0h0" transform="translate(-16.56 -15.14)"/><path d="M23.35,30.08l0,0h0s0,0,0,0,0,0,0,0h0v0h0s0,0,0,0a0,0,0,0,0,0,0h0s0,0,0,0,0,0,0,0,0,0,0,0h0v0h0s0,0,0,0a0,0,0,0,0,0,0" transform="translate(-16.56 -15.14)"/><path class="cls-8" d="M23.41,30.09h0s0,0,0,0v0h0s0,0,0,0h0s0,0,0,0h.05Zm0-.1h0a0,0,0,0,0,0,0h0" transform="translate(-16.56 -15.14)"/><path class="cls-8" d="M23.45,30a0,0,0,0,1,0,0,0,0,0,0,1,0,0s0,0,0,0a0,0,0,0,1,0,0Zm0,0s0,0,0,0a0,0,0,0,0,0,0,0,0,0,0,0,0,0l0,0V30h0s0,0,0,0v.1h0Z" transform="translate(-16.56 -15.14)"/><path d="M23.58,30.06h0s0,0,0,0v-.11h0s0,0,0,0V30s0,0,0,0h0Z" transform="translate(-16.56 -15.14)"/><path class="cls-8" d="M23.61,30s0,0,0,0,0,0,0,0Zm0,0h.05s0,0,0,0a0,0,0,0,0,0,0,0,0,0,0,0,0,0l0,0h0a0,0,0,0,1,0,0" transform="translate(-16.56 -15.14)"/><path d="M23.79,30l0,0h0s0,0,0,0,0,0,0,0h0v0h0a0,0,0,0,0,0,0s0,0,0,0h0s0,0,0,0l0,0h0v0h0a0,0,0,0,0,0,0" transform="translate(-16.56 -15.14)"/><path class="cls-8" d="M23.9,30s0,0,0,0a0,0,0,0,0,0,0,0,0,0,0,0,0,0,0,0,0,0,0,0,0m0,0a0,0,0,0,1,0,0s0,0,0,0,0,0,0,0a0,0,0,0,1,0,0" transform="translate(-16.56 -15.14)"/><path d="M24,30h0v0s0,0,0,0,0,0,0,0h0s0,0,0,0a0,0,0,0,0,0,.05v0h0v0s0,0,0,0H24s0,0,0,0Z" transform="translate(-16.56 -15.14)"/><path class="cls-8" d="M24.11,30h0v0a0,0,0,0,0,0,0s0,0,0,0h0s0,0,0,0,0,0,0,0,0,0,0,0a0,0,0,0,0,0,0h.05m0,0h0a0,0,0,0,1,0,0s0,0,0,0Z" transform="translate(-16.56 -15.14)"/><path d="M24.2,30a0,0,0,0,0,0,0,0,0,0,0,0,0,0v0h0s0,0,0,0h0s0,0,0,0h.05s0,0,0,0h0s0,0,0,0h0" transform="translate(-16.56 -15.14)"/><path class="cls-8" d="M24.27,30v0s0,0,0,0l0,0h0s0,0,0,0v0h0v0h0s0,0,0,0h0Z" transform="translate(-16.56 -15.14)"/><path class="cls-8" d="M24.42,30a0,0,0,0,0-.09,0,0,0,0,0,0,.09,0s0,0,0,0m0,0s0,0,0,0a0,0,0,0,1,0-.06s0,0,0,0" transform="translate(-16.56 -15.14)"/><path class="cls-8" d="M24.5,30v0s0,0,0,0h0s0,0,0,0v0h0v0h0a0,0,0,0,1,0,0h0Z" transform="translate(-16.56 -15.14)"/><path class="cls-8" d="M24.66,30.06h0s0,0,0,0h0s0,0,0,0h0v-.07h0s0,0,0,0V30s0,0,0,0h.05s0,0,0,0h0s0,0,0,0a0,0,0,0,1,0,0v0s0,0,0,0h.05Z" transform="translate(-16.56 -15.14)"/><path class="cls-8" d="M24.69,30s0,0,0,0,0,0,0,0Zm0,0h0s0,0,0,0,0,0,0,0a.07.07,0,0,0,0,0h0s0,0,0,0,0,0,0,0" transform="translate(-16.56 -15.14)"/><path class="cls-8" d="M21.67,30.55h0s0,0,0,0h0s0,0,0,0h.05s0,0,0,0h0s0,0,0,0a0,0,0,0,1,0,0h0s0,0,0,0h.05s0,0,0,0h0a0,0,0,0,0,0,0h0" transform="translate(-16.56 -15.14)"/><path class="cls-8" d="M21.85,30.58a0,0,0,0,0,0,0,0,0,0,1,0,0,.08,0,0,0,0,0,0,0m0,0a0,0,0,1,1-.06,0,0,0,0,0,1,.06,0,0,0,0,0,1,0,0" transform="translate(-16.56 -15.14)"/><path d="M22,30.55h0l0,0v0h0s0,0,0,0h0s0,0,0,0h.05s0,0,0,0h0a0,0,0,0,1,0,0h0" transform="translate(-16.56 -15.14)"/><path d="M22,30.55v.05l0,0s0,0,0,0h0v-.05h0v0h0s0,0,0,0h0Z" transform="translate(-16.56 -15.14)"/><path class="cls-8" d="M22.13,30.61h0s0,0,0,0h0a0,0,0,0,0,0,0l0,0v-.08h0s0,0,0,0v.07s0,0,0,0h.05s0,0,0,0v0s0,0,0,0a0,0,0,0,1,0,0h0s0,0,0,0h.05Z" transform="translate(-16.56 -15.14)"/><path class="cls-8" d="M22.27,30.6h0v0s0,0,0,0a0,0,0,0,0,0,0h0a0,0,0,0,1,0,0s0,0,0,0,0,0,0,0a0,0,0,0,0,0,0l0,0a0,0,0,0,0,0,0h0m0,0h0s0,0,0,0,0,0,0,0Z" transform="translate(-16.56 -15.14)"/><path d="M22.34,30.57l0,0h0s0,0,0,0h0v0h0s0,0,0,0,0,0,0,0a0,0,0,0,0,0,0h0s0,0,0,0,0,0,0,0h0v0h0s0,0,0,0a0,0,0,0,0,0,0" transform="translate(-16.56 -15.14)"/><path d="M22.45,30.53l0,0h0l0-.06,0,0h0s0,0,0,0v0l0,0h0v0l0,0s0,0,0,0h0s0,0,0,0l0,.06h0Z" transform="translate(-16.56 -15.14)"/><path class="cls-8" d="M22.62,30.56h0s0,0,0,0h0s0,0,0,0l0,0v-.08h0s0,0,0,0v.07s0,0,0,0h.05s0,0,0,0v0a0,0,0,0,1,0,0s0,0,0,0h0s0,0,0,0h0Z" transform="translate(-16.56 -15.14)"/><path class="cls-8" d="M22.66,30.5a0,0,0,0,1,0,0s0,0,0,0Zm0,0h.05s0,0,0,0a0,0,0,0,0,0,.05s0,0,0,0l0,0h0l0,0s0,0,0,0" transform="translate(-16.56 -15.14)"/><path d="M22.8,30.46s0,0,0,0a0,0,0,0,0,0,0v0h0s0,0,0,0h0s0,0,0,0h.05s0,0,0,0h0s0,0,0,0h0" transform="translate(-16.56 -15.14)"/><path class="cls-8" d="M22.83,30.47s0,0,0,0,0,0,0,0Zm0,0h.05s0,0,0,0a0,0,0,0,0,0,0,0,0,0,0,0,0,0l0,0h0s0,0,0,0,0,0,0,0" transform="translate(-16.56 -15.14)"/><path d="M23,30.42v0a0,0,0,0,0,0,0,0,0,0,0,0,0,0h0a0,0,0,0,0,0,0s0,0,0,0v0h0v0h0l0,0h0Z" transform="translate(-16.56 -15.14)"/><path class="cls-8" d="M23.12,30.46h0s0,0,0,0v0s0,0,0,0l0,0v-.07h0s0,0,0,0v.07s0,0,0,0h0s0,0,0,0h0a0,0,0,0,1,0,0s0,0,0,0h0s0,0,0,0h.05Z" transform="translate(-16.56 -15.14)"/><path class="cls-8" d="M23.15,30.4a0,0,0,0,1,0,0s0,0,0,0Zm0,0h.05s0,0,0,0a0,0,0,0,0,0,.05s0,0,0,0,0,0,0,0h0l0,0s0,0,0,0" transform="translate(-16.56 -15.14)"/><path d="M23.28,30.36v0s0,0,0,0h0s0,0,0,0v0h0v0h0l0,0h0Z" transform="translate(-16.56 -15.14)"/><path d="M23.41,30.34s0,0,0,0l0,0v0h0s0,0,0,0h0s0,0,0,0h.05s0,0,0,0v0l0,0s0,0,0,0,0,0,0,0h0" transform="translate(-16.56 -15.14)"/><path class="cls-8" d="M23.43,30.34l0,0s0,0,0,0Zm0,0h.06a0,0,0,0,0,0,0,.07.07,0,0,0,0,.05s0,0,0,0l0,0h0s0,0,0,0" transform="translate(-16.56 -15.14)"/><path class="cls-8" d="M23.53,30.33a0,0,0,0,1,0,0s0,0,0,0Zm0,0h.06a0,0,0,0,0,0,0,0,0,0,0,0,0,.05s0,0,0,0l0,0h0a0,0,0,0,1,0,0" transform="translate(-16.56 -15.14)"/><path d="M23.65,30.34s0,0,0,0h0s0,0,0,0h0v0h0s0,0,0,0a0,0,0,0,0,0,0s0,0,0,0h0a0,0,0,0,1,0,0h0s0,0,0,0h0v0h0s0,0,0,0,0,0,0,0" transform="translate(-16.56 -15.14)"/><path class="cls-8" d="M23.79,30.34h0s0,0,0,0v0a0,0,0,0,0,0,0l0,0h0s0,0,0,0-.05,0-.05,0,0,0,0,0h0a0,0,0,0,0,0,0,0,0,0,0,0,0,0m0,0h0s0,0,0,0,0,0,0,0Z" transform="translate(-16.56 -15.14)"/><path class="cls-8" d="M23.88,30.3s0,0,0,0h0v0l0,0s0,0,0,0m0,.07v0s0,0,0,0a0,0,0,0,0,0-.08,0,0,0,0,0,0,0v0h0s0,0,0,0v.07s0,0,0,0h.05s0,0,0,0" transform="translate(-16.56 -15.14)"/><path class="cls-8" d="M24,30.3a0,0,0,0,1,0,0,0,0,0,0,1,0,0v0s0,0,0,0,0,0,0,0m-.05.06v0h0s0,0,0-.05a0,0,0,0,0,0,0h-.07s0,0,0,0v.07s0,0,0,0H24s0,0,0,0" transform="translate(-16.56 -15.14)"/><path class="cls-8" d="M24.05,30.28s0,0,0,0,0,0,0,0Zm0,0h.06a0,0,0,0,0,0,0,0,0,0,0,0,0,0s0,0,0,0h0s0,0,0,0a0,0,0,0,1,0,0" transform="translate(-16.56 -15.14)"/><path class="cls-8" d="M24.2,30.33h0v0a0,0,0,0,0,0,0s0,0,0,0,0,0,0,0h0s0,0,0,0,0,0,0,0h.07m0,0h0a0,0,0,0,1,0,0l0,0Z" transform="translate(-16.56 -15.14)"/><path class="cls-8" d="M24.29,30.27h0v0h0s0,0,0,0h0s0,0,0,0h.05s0,0,0,0h0a0,0,0,0,1,0,0h0s0,0,0,0,0,0,0,0" transform="translate(-16.56 -15.14)"/><path class="cls-8" d="M24.32,30.29a0,0,0,0,1,0,0s0,0,0,0Zm0,0h.05s0,0,0,0a0,0,0,0,0,0,.08s0,0,0,0h0s0,0,0,0" transform="translate(-16.56 -15.14)"/><path class="cls-8" d="M24.46,30.33h0a0,0,0,0,1,0-.06l0,0Zm0,0,0,0a0,0,0,0,0,0,0,0,0,0,0,0,0,0h.06s0,0,0,0v-.1h0s0,0,0,0Z" transform="translate(-16.56 -15.14)"/><path class="cls-8" d="M24.63,30.36h0v0s0,0,0,0,0,0,0,0h0s0,0,0,0,0,0,0,0-.05,0-.05,0a0,0,0,0,0,0,0h0a0,0,0,0,0,0,0,0,0,0,0,0,0,0m0,0h0s0,0,0,0,0,0,0,0Z" transform="translate(-16.56 -15.14)"/><path class="cls-8" d="M24.67,30.33a0,0,0,0,1,0,0s0,0,0,0,0,0,0,0,0,0,0,0Zm0,0,0,0a0,0,0,0,0,0,0,.07.07,0,0,0,0-.05h0v-.07h0s0,0,0,0v.11h0Z" transform="translate(-16.56 -15.14)"/><path class="cls-8" d="M24.84,30.38s0-.05,0-.05a0,0,0,0,0-.05,0s0,0,.05.05,0,0,0,0m0,0s0,0,0,0,0,0,0,0,0,0,0,0,0,0,0,0" transform="translate(-16.56 -15.14)"/><path class="cls-8" d="M24.93,30.37h0v0l0,0v0s0,0,0,0h0l0,.07h0l0-.05h0" transform="translate(-16.56 -15.14)"/><path class="cls-8" d="M25,30.39s0,0,0,0,0,0,0,0Zm0,0,.05,0s0,0,0,0,0,0,0,0a.06.06,0,0,0,0,.06h0a0,0,0,0,1,0-.05" transform="translate(-16.56 -15.14)"/><path class="cls-8" d="M21.65,30.86v0s0,0,0,0h0a0,0,0,0,1,0,0v0h0v0h0s0,0,0,0h0Z" transform="translate(-16.56 -15.14)"/><path class="cls-8" d="M21.81,30.93h0s0,0,0,0v0a0,0,0,0,0,0,0l0,0v-.08h0s0,0,0,0v.07s0,0,0,0h.05s0,0,0,0v0l0,0s0,0,0,0h0s0,0,0,0h0Z" transform="translate(-16.56 -15.14)"/><path class="cls-8" d="M21.84,30.88l0,0s0,0,0,0Zm0,0h.05s0,0,0,0a0,0,0,0,0,0,0s0,0,0,.05a.05.05,0,0,0,0,0h0s0,0,0,0" transform="translate(-16.56 -15.14)"/><path class="cls-8" d="M22.07,30.93h0s0,0,0,0h0s0,0,0,0l0,0v-.08h0s0,0,0,0v.07s0,0,0,0H22s0,0,0,0v0l0,0s0,0,0,0h0s0,0,0,0h.05Z" transform="translate(-16.56 -15.14)"/><path class="cls-8" d="M22.17,30.89a0,0,0,0,0,0,0,0,0,0,0,0-.05,0s0,0,.05,0a0,0,0,0,0,0,0m0,0s0,0,0,0a0,0,0,0,1,0-.06s0,0,0,0" transform="translate(-16.56 -15.14)"/><path d="M22.27,30.86h-.08s0,0,0,0v0s0,0,0,0h0s0,0,0,0h0l0,0h0s0,0,0,0h0" transform="translate(-16.56 -15.14)"/><path class="cls-8" d="M22.33,30.92h0s0,0,0,0v-.05h0s0,0,0,0h0s0,0,0,0h0Zm0-.11h0a0,0,0,0,0,0,0,0,0,0,0,0,0,0" transform="translate(-16.56 -15.14)"/><path class="cls-8" d="M22.4,30.84h-.06v0h0l0,.07h.06v0h-.05l0-.07Z" transform="translate(-16.56 -15.14)"/><path class="cls-8" d="M22.51,30.86s0,0,0,0a0,0,0,1,0,0,.08.07.07,0,0,0,0-.05m0,0s0,0,0,0a0,0,0,0,1,0,0s0,0,0,0,0,0,0,0" transform="translate(-16.56 -15.14)"/><path d="M22.57,30.83h0s0,0,0,0v0s0,0,0,0h0s0,0,0,0h0s0,0,0,0a0,0,0,0,1,0,0v0s0,0,0,0h.05s0,0,0,0h0s0,0,0,0,0,0,0,0" transform="translate(-16.56 -15.14)"/><path d="M22.68,30.88s0,0,0,0h0l0,0a0,0,0,0,0,0,0s0,0,0,0h0" transform="translate(-16.56 -15.14)"/><path d="M22.82,30.8l0,.05h0l0-.06s0,0,0,0h0s0,0,0,0v0l0,0h0v0l0,0s0,0,0,0h0a0,0,0,0,1,0,0l0,.06h0Z" transform="translate(-16.56 -15.14)"/><path class="cls-8" d="M23,30.82h0s0,0,0,0h0a0,0,0,0,0,0,0l0,0V30.7h0s0,0,0,0v.07s0,0,0,0h0s0,0,0,0h0s0,0,0,0a0,0,0,0,1,0,0v0s0,0,0,0h0Z" transform="translate(-16.56 -15.14)"/><path class="cls-8" d="M23.05,30.8h0s0,0,0,0v-.05h0s0,0,0,0h0s0,0,0,0h.05Zm0-.1h0s0,0,0,0h0" transform="translate(-16.56 -15.14)"/><path d="M23.11,30.72h0s0,0,0,0a0,0,0,0,0,0,.05s0,0,0,0l0,0h0l0,0a0,0,0,0,1,0,0s0,0,0,0" transform="translate(-16.56 -15.14)"/><path class="cls-8" d="M23.25,30.76h0s0,0,0,0v0s0,0,0,0l0,0v-.08h0s0,0,0,0v.07s0,0,0,0h0s0,0,0,0v0a0,0,0,0,1,0,0s0,0,0,0h0s0,0,0,0h.05Z" transform="translate(-16.56 -15.14)"/><path d="M23.37,30.72l0,0h0s0,0,0,0a0,0,0,0,1,0,0h0v0h0s0,0,0,0a0,0,0,0,0,0,0s0,0,0,0h0s0,0,0,0a0,0,0,0,1,0,0h0v0h0s0,0,0,0,0,0,0,0" transform="translate(-16.56 -15.14)"/><path class="cls-8" d="M23.49,30.72h0s0,0,0,0h0s0,0,0,0l0,0v-.08l0,0h0s0,0,0,0v.07s0,0,0,0h.05s0,0,0,0h0a0,0,0,0,1,0,0s0,0,0,0h0s0,0,0,0h0Z" transform="translate(-16.56 -15.14)"/><path class="cls-8" d="M23.59,30.66s0,0-.05,0,0,0,0,.05,0,0,0,0a.05.05,0,0,0,.05-.05m0,0s0,0,0,0,0,0,0,0,0,0,0,0,0,0,0,0" transform="translate(-16.56 -15.14)"/><path d="M23.66,30.64l0,.05h0l0-.06s0,0,0,0h0v0l0,0h0l0,.05v0s0,0,0,0h0l0,.06h0Z" transform="translate(-16.56 -15.14)"/><path class="cls-8" d="M23.75,30.63s0,0,0,0,0,0,0,0Zm0,0h.05s0,0,0,0a0,0,0,0,0,0,0,0,0,0,0,0,0,0l0,0h0s0,0,0,0" transform="translate(-16.56 -15.14)"/><path class="cls-8" d="M23.89,30.64l0,0s0,0,0,0,0,0,0,0h0Zm0,0h0a0,0,0,1,0,0,.08l0,0v0h0s0,0,0,0v-.1h0s0,0,0,0Z" transform="translate(-16.56 -15.14)"/><path d="M24,30.59v.05a0,0,0,0,0,0,0h0v-.05h0v0h0s0,0,0,0h0Z" transform="translate(-16.56 -15.14)"/><path class="cls-8" d="M24.15,30.66h0s0,0,0,0v0s0,0,0,0h0v-.07h0s0,0,0,0v.07s0,0,0,0h.05s0,0,0,0v0a0,0,0,0,1,0,0l0,0v0s0,0,0,0h0Z" transform="translate(-16.56 -15.14)"/><path class="cls-8" d="M24.18,30.61l0,0s0,0,0,0Zm0,0h.06a0,0,0,0,0,0,0,0,0,0,1,0,0,.08h0a0,0,0,0,1,0,0" transform="translate(-16.56 -15.14)"/><path d="M24.35,30.6h0a0,0,0,0,0,0,0s0,0,0,0a0,0,0,1,0,0,.08h0s0,0,0,0,0,0,0,0" transform="translate(-16.56 -15.14)"/><path class="cls-8" d="M24.48,30.64a0,0,0,0,0,0,0s0,0,0,0a.07.07,0,0,0,0,.05,0,0,0,0,0,0,0m0,0a0,0,0,0,1,0,0s0,0,0,0a0,0,0,0,1,0,0s0,0,0,0" transform="translate(-16.56 -15.14)"/><path class="cls-8" d="M24.58,30.68h0v0a0,0,0,0,0,0,0s0,0,0,0h0s0,0,0,0,0,0,0,0-.05,0-.05,0a0,0,0,0,0,0,0h0a0,0,0,0,0,0,0,0,0,0,0,0,0,0m0,0h0a0,0,0,0,1,0,0s0,0,0,0Z" transform="translate(-16.56 -15.14)"/><path d="M24.65,30.67l0,0h0a0,0,0,0,1,0,0h0a0,0,0,0,1,0,0h0v0h0a0,0,0,0,0,0,0s0,0,0,0h0l0,0h0s0,0,0,0h0v0h0s0,0,0,0,0,0,0,0" transform="translate(-16.56 -15.14)"/><path class="cls-8" d="M24.67,30.63v.05s0,0,0,0h0s0,0,0,0v0h0v0h0s0,0,0,0h0Z" transform="translate(-16.56 -15.14)"/><path class="cls-8" d="M24.79,30.66v0s0,0,0,0,0,0,0,0h0v-.05h0v0h0l0,0h0Z" transform="translate(-16.56 -15.14)"/><path class="cls-8" d="M24.93,30.72s0,0,0,0a0,0,0,0,0-.05,0s0,0,.05.05,0,0,0,0m0,0s0,0,0,0,0,0,0,0,0,0,0,0,0,0,0,0" transform="translate(-16.56 -15.14)"/><path class="cls-8" d="M21.66,31.18h0s0,0,0,0,0,0,0,0l0,0Zm0,0,0,0a0,0,0,0,0,0-.08h0V31.1h0s0,0,0,0v.11h0Z" transform="translate(-16.56 -15.14)"/><path class="cls-8" d="M21.77,31.19a0,0,0,0,1,0,0s0,0,0,0Zm0,0h.05s0,0,0,0a0,0,0,0,0,0,.08h0s0,0,0,0" transform="translate(-16.56 -15.14)"/><path d="M22,31.18h0s0,0,0,0v0l0,0s0,0,0,0h0l0,0,0,.06h0l0-.06h0" transform="translate(-16.56 -15.14)"/><path class="cls-8" d="M22,31.2l0,0s0,0,0,0Zm0,0h.06s0,0,0,0a0,0,0,0,0,0,0,0,0,0,0,0,0,0h0s0,0,0,0" transform="translate(-16.56 -15.14)"/><path d="M22.14,31.18h-.07s0,0,0,0h0s0,0,0,0h.05s0,0,0,0h0s0,0,0,0h0a0,0,0,0,0,0,0s0,0,0,0" transform="translate(-16.56 -15.14)"/><path d="M22.15,31.3h0l0-.11s0,0,0,0h0s0,0,0,0v0l0,0s0,0,0,0h0l0,0v0s0,0,0,0" transform="translate(-16.56 -15.14)"/><path d="M22.33,31.24h0s0,0,0,0v-.1h0s0,0,0,0v.07s0,0,0,0h0Z" transform="translate(-16.56 -15.14)"/><path class="cls-8" d="M22.44,31.2a0,0,0,0,0-.09,0s0,0,0,0a0,0,0,0,0,.05,0m0,0s0,0,0,0,0,0,0,0,0,0,0,0a0,0,0,0,1,0,0" transform="translate(-16.56 -15.14)"/><path d="M22.51,31.18l0,.05h0l0-.06a0,0,0,0,1,0,0h0s0,0,0,0v0l0-.05h0l0,.05v0s0,0,0,0h0l0,.06h0Z" transform="translate(-16.56 -15.14)"/><path d="M22.6,31.22a0,0,0,0,1,0,0h0a0,0,0,0,0,0,0s0,0,0,0h0Z" transform="translate(-16.56 -15.14)"/><path class="cls-8" d="M22.77,31.2h0v0a0,0,0,0,0,0,0l0,0a0,0,0,0,0,0,0,0,0,0,0,0,0,0h0s0,0,0,0,0,0,0,0,0,0,0,0h0s0,0,0,0a0,0,0,0,0,0,0m0,0h0s0,0,0,0Z" transform="translate(-16.56 -15.14)"/><path d="M22.82,31.14v0h0s0,0,0,0h0s0,0,0,0h0s0,0,0,0h0s0,0,0,0,0,0,0,0h0s0,0,0,0h0s0,0,0,0h0a0,0,0,0,0,0,0s0,0,0,0" transform="translate(-16.56 -15.14)"/><path class="cls-8" d="M23,31.15a0,0,0,0,1,0,0s0,0,0,0,0,0,0,0,0,0,0,0Zm0,0h0s0,0,0,0,0,0,0,0a0,0,0,0,0,0,0v0h0s0,0,0,0V31l0,0h0s0,0,0,0Z" transform="translate(-16.56 -15.14)"/><path class="cls-8" d="M23.16,31.1s0,0,0,0a0,0,0,0,0-.05.05s0,0,.05,0a.07.07,0,0,0,0,0m0,0s0,0,0,0a0,0,0,0,1,0-.06s0,0,0,0" transform="translate(-16.56 -15.14)"/><path d="M23.28,31.1h0s0,0,0,0v0h0s0,0,0,0v0s0,0,0,0,0,0,0,0v0h0s0,0,0,0v0s0,0,0,0l0,0v0Z" transform="translate(-16.56 -15.14)"/><path d="M23.36,31h0l0,0v0h0s0,0,0,0h0s0,0,0,0h.05s0,0,0,0v0s0,0,0,0a0,0,0,0,1,0,0h0v0" transform="translate(-16.56 -15.14)"/><path d="M23.48,31v0h0s0,0,0,0,0,0,0,0h0v0h0s0,0,0,0a0,0,0,0,0,0,0s0,0,0,0h0s0,0,0,0h0s0,0,0,0h0v0h0s0,0,0,0a0,0,0,0,0,0,0" transform="translate(-16.56 -15.14)"/><path class="cls-8" d="M23.59,31a0,0,0,0,0-.05,0s0,0,0,.05,0,0,0,0,.05,0,.05-.05m0,0s0,0,0,0,0,0,0,0,0,0,0,0,0,0,0,0" transform="translate(-16.56 -15.14)"/><path d="M23.71,31h0s0,0,0,0v0h0s0,0,0,0h0s0,0,0,0a0,0,0,0,1,0,0v0h0s0,0,0,0h0s0,0,0,0l0,0v0Z" transform="translate(-16.56 -15.14)"/><path d="M23.75,31h0s0,0,0,0h0s0,0,0,0h.05s0,0,0,0h0a0,0,0,0,1,0,0s0,0,0,0v0s0,0,0,0h0s0,0,0,0h0a0,0,0,0,0,0,0l0,0" transform="translate(-16.56 -15.14)"/><path class="cls-8" d="M23.91,31l0,0s0,0,0,0,0,0,0,0l0,0Zm0-.05h0a0,0,0,0,0,0,0s0,0,0,0h.06s0,0,0,0v-.11h0s0,0,0,0Z" transform="translate(-16.56 -15.14)"/><path class="cls-8" d="M24,31h0s0,0,0,0v0h0s0,0,0,0h0s0,0,0,0H24Zm0-.1a0,0,0,0,0,0,0s0,0,0,0h0" transform="translate(-16.56 -15.14)"/><path d="M24.05,30.93v0h0s0,0,0,0h0s0,0,0,0h0s0,0,0,0h0s0,0,0,0,0,0,0,0h0s0,0,0,0h.06s0,0,0,0h0s0,0,0,0,0,0,0,0" transform="translate(-16.56 -15.14)"/><path class="cls-8" d="M24.19,31a0,0,0,0,1,0,0s0,0,0,0,0,0,0,0,0,0,0,0m0,0h0s0,0,0,0v0h0s0,0,0,0h0a0,0,0,0,0,0,0,0,0,0,0,0,0,0l0,0s0,0,0,0,0,0,0,0h0s0,0,0,0h0s0,0,0,0,0,0,0,0,0,0,0,0h0" transform="translate(-16.56 -15.14)"/><path d="M24.29,31s0,0,0,0h0s0,0,0,0l0,0h0v0h0s0,0,0,0l0,0h0a0,0,0,0,1,0,0h0s0,0,0,0h0v0h0s0,0,0,0l0,0" transform="translate(-16.56 -15.14)"/><path class="cls-8" d="M24.4,31l0,.05h0l0-.06h0s0,0,0,0v0l0-.05h0l0,.05,0,0s0,0,0,0h0s0,0,0,0l0,.06h0Z" transform="translate(-16.56 -15.14)"/><path class="cls-8" d="M24.49,31s0,0,0,0a0,0,0,0,1,0,0Zm0,0h.06a0,0,0,0,0,0,0s0,0,0,0,0,.05,0,.05h0s0,0,0,0" transform="translate(-16.56 -15.14)"/><path class="cls-8" d="M24.64,31h0s0,0,0,0v0h0s0,0,0,0h0s0,0,0,0h.05s0,0,0,0h0s0,0,0,0h0" transform="translate(-16.56 -15.14)"/><path class="cls-8" d="M24.67,31a0,0,0,0,1,0,0l0,0Zm0,0h0s0,0,0,0,0,0,0,0a.07.07,0,0,0,0,.05h0s0,0,0,0,0,0,0,0" transform="translate(-16.56 -15.14)"/><path class="cls-8" d="M21.67,31.48h0v0s0,0,0,0l0,0h0s0,0,0,0,0,0,0,0v0h0v0s0,0,0,0h.05s0,0,0,0Z" transform="translate(-16.56 -15.14)"/><path class="cls-8" d="M21.79,31.55h0v0a0,0,0,0,0,0,0l0,0h0a0,0,0,0,1,0,0s-.05,0-.05,0a0,0,0,0,0,0,0h0s0,0,0,0h0m0,0h0s0,0,0,0Z" transform="translate(-16.56 -15.14)"/><path d="M21.85,31.53s0,0,0,0h0s0,0,0,0h0s0,0,0,0h0v0h0s0,0,0,0a0,0,0,0,0,0,0,0,0,0,0,0,0,0h0s0,0,0,0h0a0,0,0,0,1,0,0h0v0h0s0,0,0,0,0,0,0,0" transform="translate(-16.56 -15.14)"/><path d="M21.88,31.49v0s0,0,0,0a0,0,0,0,0,0,0h0v-.06h0v0h0l0,0h0Z" transform="translate(-16.56 -15.14)"/><path class="cls-8" d="M22.05,31.53l0,0s0,0,0,0,0,0,0,0a0,0,0,0,1,0,0Zm0,0,0,0s0,0,0,.05a0,0,0,0,0,0,0,0,0,0,0,0,0,0v0h0s0,0,0,0v-.1h0s0,0,0,0Z" transform="translate(-16.56 -15.14)"/><path class="cls-8" d="M22.12,31.5a0,0,0,0,1,0,0,0,0,0,0,1,0,0Zm0,0h.05s0,0,0,0,0,0,0,.05a0,0,0,0,0,0,0s0,0,0,0h0s0,0,0,0" transform="translate(-16.56 -15.14)"/><path d="M22.23,31.48h0s0,0,0,0a0,0,0,0,0,0,0s0,0,0,0a0,0,0,0,0,0,.05,0,0,0,0,0,0,0l0,0h0a0,0,0,0,1,0,0s0,0,0,0" transform="translate(-16.56 -15.14)"/><path d="M22.35,31.49s0,0,0,0l0,0v0h0s0,0,0,0h0s0,0,0,0h0s0,0,0,0h0s0,0,0,0h0a0,0,0,0,0,0,0" transform="translate(-16.56 -15.14)"/><path class="cls-8" d="M22.38,31.5l0,0s0,0,0,0Zm0,0h.05s0,0,0,0a0,0,0,0,0,0,.08h0a0,0,0,0,1,0,0" transform="translate(-16.56 -15.14)"/><path class="cls-8" d="M22.53,31.54h0v0s0,0,0,0,0,0,0,0h0l0,0s0,0,0,0-.05,0-.05,0l0,0,0,0,0,0h0m0,0h0s0,0,0,0Z" transform="translate(-16.56 -15.14)"/><path d="M22.6,31.52l0,0h0s0,0,0,0h0v0h0a0,0,0,0,0,0,0s0,0,0,0h0s0,0,0,0,0,0,0,0h0v0h0s0,0,0,0" transform="translate(-16.56 -15.14)"/><path class="cls-8" d="M22.66,31.53h0s0,0,0,0v-.05h0s0,0,0,0h0s0,0,0,0h.05Zm0-.11h0a0,0,0,0,0,0,0h0" transform="translate(-16.56 -15.14)"/><path d="M22.71,31.46h0s0,0,0,0v0s0,0,0,0h0s0,0,0,0h0a0,0,0,0,1,0,0s0,0,0,0h0s0,0,0,0h.05s0,0,0,0v0a0,0,0,0,0,0,0l0,0" transform="translate(-16.56 -15.14)"/><path class="cls-8" d="M22.85,31.46s0,0,0,0,0,0,0,0,0,0,0,0a0,0,0,0,1,0,0m0,.05s0,0,0,0,0,0,0,0v0h0s0,0,0,0h0a0,0,0,0,0,0,0,0,0,0,0,0,0,0,0,0,0,0,0,0,0l0,0s0,0,0,0h0s0,0,0,0,0,0,0,0h0s0,0,0,0a0,0,0,0,0,0,0s0,0,0,0h0" transform="translate(-16.56 -15.14)"/><path d="M22.93,31.49h0a0,0,0,0,0,0,0h0s0,0,0,0" transform="translate(-16.56 -15.14)"/><path d="M26.14,29.12h.06v0l-.1,0h0s0,0,0,0v.07s0,0,0,0h0l.06,0h0s0,0,0,0v0h0s0,0,0,0h0v-.05h0s0,0,0,0h0Z" transform="translate(-16.56 -15.14)"/><path d="M26.27,29.13h0l0,0v0l0,0h0s0,0,0,0h0s0,0,0,0h0l.05,0h0s0,0,0,0h0s0,0,0,0h0s0,0,0,0" transform="translate(-16.56 -15.14)"/><path class="cls-8" d="M26.37,29.13s0,0,0,0a.07.07,0,0,0,0,.06s0,0,0,0a.07.07,0,0,0,0-.06m0,0s0,0,0,0a0,0,0,0,1,0,0s0,0,0,0a0,0,0,0,1,0,0" transform="translate(-16.56 -15.14)"/><path d="M26.48,29.1a0,0,0,0,1,0,0s0,0,0,0h0s0,0,0,0h.05s0,0,0,0v0s0,0,0,0,0,0,0,0,0,0,0,0l0,0v0h0s0,0,0,0h0s0,0,0,0h.05s0,0,0,0v0l0,0s0,0,0,0h0s0,0,0,0h0s0,0,0,0Z" transform="translate(-16.56 -15.14)"/><path d="M26.64,29.06v0h0s0,0,0,0h0s0,0,0,0h.05s0,0,0,0v0s0,0,0,0,0,0,0,0h0s0,0,0,0h0s0,0,0,0h0s0,0,0,0l0,0" transform="translate(-16.56 -15.14)"/><path class="cls-8" d="M26.82,29.06s0,0,0,0a0,0,0,1,0,0,.08.07.07,0,0,0,0-.05m0,0s0,0,0,0a0,0,0,0,1,0,0s0,0,0,0,0,0,0,0" transform="translate(-16.56 -15.14)"/><path class="cls-8" d="M26.93,29.06a0,0,0,0,0,0,0,0,0,0,1,0,0,.08,0,0,0,0,0,0,0m0,0a0,0,0,1,1-.06,0,0,0,0,0,1,.06,0,0,0,0,0,1,0,0" transform="translate(-16.56 -15.14)"/><path d="M27,29h0s0,0,0,0h0s0,0,0,0H27s0,0,0,0h0a0,0,0,0,1,0,0s0,0,0,0h0s0,0,0,0h0s0,0,0,0h0a0,0,0,0,0,0,0s0,0,0,0" transform="translate(-16.56 -15.14)"/><path class="cls-8" d="M27.14,29v0a0,0,0,0,0,0,0h0a0,0,0,0,1,0,0v0h0v0h0l0,0h0Z" transform="translate(-16.56 -15.14)"/><path class="cls-8" d="M27.28,29.07a0,0,0,0,0,0,0s0,0,0,0a0,0,0,0,0,0,.05,0,0,0,0,0,0,0m0,0a0,0,0,0,1,0,0s0,0,0,0a0,0,0,0,1,0,0s0,0,0,0" transform="translate(-16.56 -15.14)"/><path d="M27.41,29.1s0,0,0,0h0s0,0,0,0h0v0h0s0,0,0,0l0,0a0,0,0,0,0,0,0h0s0,0,0,0h0v0h0s0,0,0,0l0,0" transform="translate(-16.56 -15.14)"/><path class="cls-8" d="M27.48,29.13h0s0,0,0,0v0h0s0,0,0,0h0s0,0,0,0h.05Zm0-.11h0s0,0,0,0h0" transform="translate(-16.56 -15.14)"/><path class="cls-8" d="M27.52,29.1v0s0,0,0,0h0l0,0h0s0,0,0,0h0s0,0,0,0h0l0,0h0s0,0,0,0Z" transform="translate(-16.56 -15.14)"/><path class="cls-8" d="M27.72,29.12a.07.07,0,0,0,0-.05s-.05,0-.05,0a0,0,0,0,0,.05,0s0,0,0,0m0,0s0,0,0,0,0,0,0,0a0,0,0,0,1,0,0s0,0,0,0" transform="translate(-16.56 -15.14)"/><path d="M27.75,29a.16.16,0,0,0,0,0h0s0,0,0,0h0" transform="translate(-16.56 -15.14)"/><path d="M27.83,29.1s0,0,0,0h0s0,0,0,0,0,0,0,0a0,0,0,0,0,0,.05h0s0,0,0,0a0,0,0,0,1,0,0s0,0,0,0" transform="translate(-16.56 -15.14)"/><path class="cls-8" d="M27.93,29.19h0s0,0,0,0v-.11h0s0,0,0,0v.07s0,0,0,0h.06Z" transform="translate(-16.56 -15.14)"/><path class="cls-8" d="M28,29.17s0,0-.05-.05a0,0,0,0,0,0,0,0,0,0,0,0,0,0,0,0,0,0,0,.05,0m0,0s0,0,0,0,0,0,0,0,0,0,0,0,0,0,0,0" transform="translate(-16.56 -15.14)"/><path d="M28.09,29.15a0,0,0,0,1,0,0,0,0,0,0,0,0,0h0s0,0,0,0a0,0,0,1,0,0,.08h0s0,0,0,0,0,0,0,0" transform="translate(-16.56 -15.14)"/><path class="cls-8" d="M28.18,29.19l0,0h0s0,0,0,0l0,0v-.1h0s0,0,0,0v.07s0,0,0,0h.05s0,0,0,0h0l0,0h0Z" transform="translate(-16.56 -15.14)"/><path class="cls-8" d="M28.33,29.21l0,.05h0l0-.05s0,0,0,0h0s0,0,0,0v0l0-.06h0l0,.05v0s0,0,0,0h0a0,0,0,0,1,0,0l0,.07h0Z" transform="translate(-16.56 -15.14)"/><path class="cls-8" d="M28.42,29.22a0,0,0,0,1,0,0l0,0Zm0,0h0s0,0,0,0a0,0,0,0,0,0,0,.07.07,0,0,0,0,.05h0s0,0,0,0" transform="translate(-16.56 -15.14)"/><path class="cls-8" d="M28.62,29.23h0s0,0,0,0v0h0s0,0,0,0h0s0,0,0,0h.05s0,0,0,0h0a0,0,0,0,1,0,0,0,0,0,0,1,0,0h0" transform="translate(-16.56 -15.14)"/><path class="cls-8" d="M28.7,29.3h0a0,0,0,0,1,0,0v0a0,0,0,0,0,0,0s0,0,0,0h0s0,0,0,0,0,0,0,0l0,0h0s0,0,0,0h0m0,0h0s0,0,0,0Z" transform="translate(-16.56 -15.14)"/><path class="cls-8" d="M28.75,29.24v0h0s0,0,0,0h0s0,0,0,0h.05s0,0,0,0h0s0,0,0,0,0,0,0,0h0s0,0,0,0h0s0,0,0,0h0a0,0,0,0,0,0,0s0,0,0,0" transform="translate(-16.56 -15.14)"/><path d="M28.9,29.24v.05a0,0,0,0,0,0,0h0a0,0,0,0,1,0,0v-.05h0v0h0s0,0,0,0h0Z" transform="translate(-16.56 -15.14)"/><path class="cls-8" d="M29.06,29.31h0s0,0,0,0v0a0,0,0,0,0,0,0l0,0v-.08h0s0,0,0,0v.07s0,0,0,0H29s0,0,0,0v0s0,0,0,0,0,0,0,0v0s0,0,0,0h0Z" transform="translate(-16.56 -15.14)"/><path class="cls-8" d="M29.12,29.31h0s0,0,0,0v-.05h0s0,0,0,0v0s0,0,0,0h.05Zm0-.11h0" transform="translate(-16.56 -15.14)"/><path d="M29.21,29.24h-.08s0,0,0,0v0s0,0,0,0h.05s0,0,0,0v0a0,0,0,0,1,0,0h0s0,0,0,0h0" transform="translate(-16.56 -15.14)"/><path d="M29.23,29.23v.05s0,0,0,0,0,0,0,0h0v-.05h0v0h0s0,0,0,0h0Z" transform="translate(-16.56 -15.14)"/><path d="M29.28,29.35h0l0-.12h0s0,0,0,0v0l0,0v0h0l0,.05v0s0,0,0,0" transform="translate(-16.56 -15.14)"/><path d="M26.18,29.51s0,0,0,0,0,0,0,0v0s0,0,0,0h.05s0,0,0,0h0a0,0,0,0,0,0,0l0,0s0,0,0,0l0,0v0l0,0h0s0,0,0,0h0s0,0,0,0h0s0,0,0,0h0s0,0,0,0,0,0,0,0h0s0,0,0,0h.05s0,0,0,0Z" transform="translate(-16.56 -15.14)"/><path class="cls-8" d="M26.31,29.53h0s0,0,0,0v-.05l0,0h0s0,0,0,0h0s0,0,0,0h0Zm0-.11h0v0s0,0,0,0h0" transform="translate(-16.56 -15.14)"/><path d="M26.37,29.52h0s0,0,0,0v-.11l0,0h0s0,0,0,0v.07s0,0,0,0h.05Z" transform="translate(-16.56 -15.14)"/><path class="cls-8" d="M26.4,29.46s0,0,0,0h0Zm0,0h.06a0,0,0,0,0,0,0,.05.05,0,0,0-.05.05,0,0,0,0,0,.05,0l0,0h0a0,0,0,0,1,0,0" transform="translate(-16.56 -15.14)"/><path d="M26.53,29.47l0,0h0s0,0,0,0,0,0,0,0h0v0h0a0,0,0,0,0,0,0s0,0,0,0h0s0,0,0,0h0a0,0,0,0,1,0,0h0v0h0s0,0,0,0a0,0,0,0,0,0,0" transform="translate(-16.56 -15.14)"/><path d="M26.6,29.41v.05a0,0,0,0,0,0,0l0,0h0s0,0,0,0v0h0v0h0s0,0,0,0h0Z" transform="translate(-16.56 -15.14)"/><path class="cls-8" d="M26.75,29.42s0,0,0,0a0,0,0,1,0,0,.08,0,0,0,0,0,0-.08m0,0s0,0,0,0a0,0,0,0,1,0-.06s0,0,0,0" transform="translate(-16.56 -15.14)"/><path d="M26.83,29.39v0s0,0,0,0l0,0h0s0,0,0,0v0h0v0h0a0,0,0,0,1,0,0h0Z" transform="translate(-16.56 -15.14)"/><path class="cls-8" d="M27,29.45h0s0,0,0,0v0s0,0,0,0,0,0,0,0v-.08h0s0,0,0,0v.07s0,0,0,0h.05s0,0,0,0h0s0,0,0,0,0,0,0,0h0s0,0,0,0h0Z" transform="translate(-16.56 -15.14)"/><path class="cls-8" d="M27,29.4l0,0s0,0,0,0Zm0,0h.06a0,0,0,0,0,0,0,0,0,0,1,0,0,.08l0,0h0s0,0,0,0,0,0,0,0" transform="translate(-16.56 -15.14)"/><path class="cls-8" d="M27.18,29.39v0h0s0,0,0,0h0s0,0,0,0h0s0,0,0,0v0l0,0s0,0,0,0h0s0,0,0,0h.05s0,0,0,0h0s0,0,0,0l0,0" transform="translate(-16.56 -15.14)"/><path class="cls-8" d="M27.36,29.42a0,0,0,0,0,0,0s-.05,0-.05,0a0,0,0,0,0,.05,0,0,0,0,0,0,0,0m0,0s0,0,0,0a0,0,0,0,1,0,0,0,0,0,0,1,0,0s0,0,0,0" transform="translate(-16.56 -15.14)"/><path class="cls-8" d="M27.45,29.41s0,0,0,0h-.06s0,0,0,0h0s0,0,0,0h.05s0,0,0,0v0s0,0,0,0,0,0,0,0a0,0,0,0,0,0,0h0" transform="translate(-16.56 -15.14)"/><path class="cls-8" d="M27.48,29.41v0s0,0,0,0h0a0,0,0,0,1,0,0v0h0v0h0s0,0,0,0h0Z" transform="translate(-16.56 -15.14)"/><path class="cls-8" d="M27.63,29.49h0s0,0,0,0v0a0,0,0,0,0,0,0s0,0,0,0v-.08h0s0,0,0,0v.07s0,0,0,0h0s0,0,0,0v0s0,0,0,0,0,0,0,0h0s0,0,0,0h0Z" transform="translate(-16.56 -15.14)"/><path class="cls-8" d="M27.7,29.45l0,.06h0l0-.06h0l0,0,0-.05h0l0,.05,0,0s0,0,0,0h0s0,0,0,0l0,.06h0Z" transform="translate(-16.56 -15.14)"/><path class="cls-8" d="M27.84,29.52h0v0s0,0,0,0h0s0,0,0,0h0s0,0,0,0,0,0,0,0,0,0,0,0,0,0,0,0h0l0,0a0,0,0,0,0,0,0m0,0h0s0,0,0,0Z" transform="translate(-16.56 -15.14)"/><path class="cls-8" d="M27.93,29.48a0,0,0,0,0,0,0h-.06s0,0,0,0h0s0,0,0,0h0s0,0,0,0h0s0,0,0,0,0,0,0,0h0" transform="translate(-16.56 -15.14)"/><path class="cls-8" d="M28,29.53l0,0s0,0,0,0,0,0,0,0,0,0,0,0Zm0,0,0,0a0,0,0,0,0,0,0,.05.05,0,0,0,0,0H28s0,0,0,0v-.11h0s0,0,0,0Z" transform="translate(-16.56 -15.14)"/><path d="M28.07,29.57v0h0a0,0,0,0,0,0,0s0,0,0,0h0a0,0,0,0,0,0,0h0" transform="translate(-16.56 -15.14)"/><path d="M28.22,29.58l0,0h0v0s0,0,0,0l0,0h0v0h0s0,0,0,0a0,0,0,0,0,0,0,0,0,0,0,0,0,0h0l0,0s0,0,0,0,0,0,0,0h0v0h0s0,0,0,0,0,0,0,0" transform="translate(-16.56 -15.14)"/><path class="cls-8" d="M28.28,29.56h0a0,0,0,0,1,0,0h0s0,0,0,0h0v-.09h0s0,0,0,0v.07s0,0,0,0h.05s0,0,0,0h0l0,0h0Z" transform="translate(-16.56 -15.14)"/><path class="cls-8" d="M28.38,29.62h0s0,0,0,0v-.05h0s0,0,0,0h0s0,0,0,0h.05Zm0-.11h0s0,0,0,0h0" transform="translate(-16.56 -15.14)"/><path class="cls-8" d="M28.47,29.57h0s0,0,0,0v0h0s0,0,0,0h0s0,0,0,0h.05s0,0,0,0h0a0,0,0,0,1,0,0h0" transform="translate(-16.56 -15.14)"/><path class="cls-8" d="M28.49,29.58v0s0,0,0,0h0v-.06h0v0h0s0,0,0,0h0Z" transform="translate(-16.56 -15.14)"/><path class="cls-8" d="M28.59,29.66h0s0,0,0,0v0h0s0,0,0,0h0s0,0,0,0h.05Zm0-.12h0s0,0,0,0a0,0,0,0,0,0,0" transform="translate(-16.56 -15.14)"/><path class="cls-8" d="M28.64,29.6v0h0s0,0,0,0h0s0,0,0,0h0s0,0,0,0h0s0,0,0,0,0,0,0,0h0s0,0,0,0h.05s0,0,0,0h0a0,0,0,0,0,0,0s0,0,0,0" transform="translate(-16.56 -15.14)"/><path class="cls-8" d="M28.78,29.62l0,0,0,0a0,0,0,0,1,0,0,0,0,0,0,1,0,0m0,0s0,0,0,0a0,0,0,0,0,0,0v0h0s0,0,0,0h0s0,0,0,0a0,0,0,0,0,0,0l0,0s0,0,0,0,0,0,0,0l0,0s0,0,0,0,0,0,0,0h0s0,0,0,.05,0,0,0,0,0,0,0,0h0" transform="translate(-16.56 -15.14)"/><path class="cls-8" d="M29,29.67h0a0,0,0,0,1,0,0v0a0,0,0,0,0,0,0h0s0,0,0,0h0s0,0,0,0-.05,0-.05,0a0,0,0,0,0,0,0l0,0s0,0,0,0h0m0,0h0a0,0,0,0,1,0,0s0,0,0,0Z" transform="translate(-16.56 -15.14)"/><path d="M29.07,29.65l0,0h0s0,0,0,0h0a0,0,0,0,1,0,0h0v0h0s0,0,0,0l0,0s0,0,0,0h0s0,0,0,0a0,0,0,0,1,0,0s0,0,0,0h0v0h0s0,0,0,0a0,0,0,0,0,0,0" transform="translate(-16.56 -15.14)"/><path class="cls-8" d="M29.16,29.67h0v0a0,0,0,0,0,0,0s0,0,0,0h0s0,0,0,0h0s0,0,0,0-.05,0-.05,0,0,0,0,0h0s0,0,0,0h0m0,0h0s0,0,0,0l0,0Z" transform="translate(-16.56 -15.14)"/><path d="M29.2,29.6h0s0,0,0,0h0s0,0,0,0h0s0,0,0,0v0s0,0,0,0,0,0,0,0h0s0,0,0,0h.05s0,0,0,0h0s0,0,0,0h0" transform="translate(-16.56 -15.14)"/><path class="cls-8" d="M29.36,29.63a0,0,0,0,1,0,0,0,0,0,0,1,0,0s0,0,0,0a0,0,0,0,1,0,0Zm0,0s0,0,0,0,0,0,0,0,0,0,0,0,0,0,0,0h0s0,0,0,0v-.11h0s0,0,0,0Z" transform="translate(-16.56 -15.14)"/><path d="M29.41,29.7h0l0-.11s0,0,0,0h0l0,0,0,0s0,0,0,0h0l0,.05v0s0,0,0,0" transform="translate(-16.56 -15.14)"/><path d="M26.19,29.9l0,0h0s0,0,0,0,0,0,0,0h0v0h0a0,0,0,0,0,0,0l0,0h0s0,0,0,0a0,0,0,0,1,0,0s0,0,0,0h0v0h0s0,0,0,0a0,0,0,0,0,0,0" transform="translate(-16.56 -15.14)"/><path class="cls-8" d="M26.3,29.89h0s0,0,0,0h0s0,0,0,0a0,0,0,0,0,0,0v-.07h0s0,0,0,0v.07s0,0,0,0h0s0,0,0,0v0l0,0a0,0,0,0,1,0,0v0s0,0,0,0h.05Z" transform="translate(-16.56 -15.14)"/><path class="cls-8" d="M26.4,29.83s0,0,0,0a.05.05,0,0,0-.05.05s0,0,.05,0a.07.07,0,0,0,0-.05m0,0s0,0,0,0a0,0,0,0,1,0,0,0,0,0,0,1,0,0s0,0,0,0" transform="translate(-16.56 -15.14)"/><path d="M26.49,29.79s0,0,0,0l0,0v0h0s0,0,0,0h0s0,0,0,0h0s0,0,0,0v0l0,0h0s0,0,0,0h0" transform="translate(-16.56 -15.14)"/><path class="cls-8" d="M26.52,29.8l0,0s0,0,0,0Zm0,0h.06s0,0,0,0a0,0,0,1,0,0,.08l0,0h0l0,0s0,0,0,0" transform="translate(-16.56 -15.14)"/><path class="cls-8" d="M26.72,29.81h0v0a0,0,0,0,0,0,0s0,0,0,0h0s0,0,0,0-.05,0-.05,0,0,0,0,0h0s0,0,0,0a0,0,0,0,0,0,0m0,0h0s0,0,0,0,0,0,0,0Z" transform="translate(-16.56 -15.14)"/><path d="M26.74,29.75v0s0,0,0,0h0s0,0,0,0v0h0v0h0s0,0,0,0h0Z" transform="translate(-16.56 -15.14)"/><path d="M26.86,29.74v0s0,0,0,0a0,0,0,0,0,0,0h0v-.06h0v0h0l0,0h0Z" transform="translate(-16.56 -15.14)"/><path class="cls-8" d="M27,29.8h0s0,0,0,0v0a0,0,0,0,0,0,0l0,0v-.08h0s0,0,0,0v.07s0,0,0,0H27s0,0,0,0v0s0,0,0,0,0,0,0,0v0s0,0,0,0H27Z" transform="translate(-16.56 -15.14)"/><path class="cls-8" d="M27.05,29.75a0,0,0,0,1,0,0s0,0,0,0Zm0,0h.05s0,0,0,0a0,0,0,0,0,0,.08h0s0,0,0,0" transform="translate(-16.56 -15.14)"/><path class="cls-8" d="M27.24,29.78a0,0,0,0,1,0,0s0,0,0,0,0,0,0,0,0,0,0,0Zm0,0h0s0,0,0,0,0,0,0,0h.06s0,0,0,0v-.1h0s0,0,0,0Z" transform="translate(-16.56 -15.14)"/><path class="cls-8" d="M27.34,29.81h0s0,0,0,0v-.05h0s0,0,0,0h0s0,0,0,0h.05Zm0-.11h0a0,0,0,0,0,0,0s0,0,0,0" transform="translate(-16.56 -15.14)"/><path d="M27.4,29.8s0,0,0,0h0s0,0,0,0,0,0,0,0h0v0h0s0,0,0,0a0,0,0,0,0,0,0l0,0h0a0,0,0,0,1,0,0h0s0,0,0,0h0v0h0s0,0,0,0a0,0,0,0,0,0,0" transform="translate(-16.56 -15.14)"/><path class="cls-8" d="M27.43,29.76v0s0,0,0,0h0v-.06h0v0h0l0,0h0Z" transform="translate(-16.56 -15.14)"/><path class="cls-8" d="M27.56,29.83h0v0s0,0,0,0,0,0,0,0a0,0,0,0,0,0,0h0s0,0,0,0-.05,0-.05,0a0,0,0,0,0,0,0h0a0,0,0,0,0,0,0,0,0,0,0,0,0,0m0,0h0a0,0,0,0,1,0,0l0,0Z" transform="translate(-16.56 -15.14)"/><path class="cls-8" d="M27.61,29.79v0h0s0,0,0,0h0s0,0,0,0h.05s0,0,0,0v0a0,0,0,0,1,0,0l0,0h0s0,0,0,0h.05s0,0,0,0v0s0,0,0,0,0,0,0,0" transform="translate(-16.56 -15.14)"/><path d="M27.73,29.8h0a0,0,0,0,0,0,0s0,0,0,0l0,0a0,0,0,0,0,0,0,0,0,0,0,0,0,0h0s0,0,0,0,0,0,0,0,0,0,0,0" transform="translate(-16.56 -15.14)"/><path class="cls-8" d="M27.8,29.83h0a0,0,0,0,1,0,0Zm0,0h.05s0,0,0,0,0,0,0,0,0,.05,0,.05,0,0,0,0h0s0,0,0,0" transform="translate(-16.56 -15.14)"/><path class="cls-8" d="M28,29.89a.07.07,0,0,0,0-.05s0,0,0,0a0,0,0,0,0,0,.05s0,0,0,0m0,0s0,0,0,0a0,0,0,0,1,0-.06s0,0,0,0" transform="translate(-16.56 -15.14)"/><path class="cls-8" d="M28.06,29.87h0v0s0,0,0,0l0,0h0s0,0,0,0,0,0,0,0v0h0v0s0,0,0,0h0s0,0,0,0Z" transform="translate(-16.56 -15.14)"/><path class="cls-8" d="M28.18,29.9h0v0s0,0,0,0,0,0,0,0h0a0,0,0,0,0,0,0s0,0,0,0v0h0v0s0,0,0,0h.05s0,0,0,0Z" transform="translate(-16.56 -15.14)"/><path class="cls-8" d="M28.26,30h0s0,0,0,0V29.9h0s0,0,0,0h0s0,0,0,0h.05Zm0-.11a0,0,0,0,0,0,0h0s0,0,0,0h0" transform="translate(-16.56 -15.14)"/><path class="cls-8" d="M28.35,29.92h0l0,0v0s0,0,0,0h0s0,0,0,0l0,.06h0l0,0s0,0,0,0" transform="translate(-16.56 -15.14)"/><path class="cls-8" d="M28.38,30l0,0s0,0,0,0Zm0,0h.05s0,0,0,0a0,0,0,0,0,0,.08s0,0,0,0h0a0,0,0,0,1,0-.05" transform="translate(-16.56 -15.14)"/><path d="M28.47,30s0,0,0,0h0a0,0,0,0,0,0,0,0,0,0,0,0,0,0,0,0,0,0,0,0,0Z" transform="translate(-16.56 -15.14)"/><path class="cls-8" d="M28.64,30h0v0a0,0,0,0,0,0,0s0,0,0,0h0s0,0,0,0,0,0,0,0a0,0,0,0,0,0,0h.05m0,0h0s0,0,0,0Z" transform="translate(-16.56 -15.14)"/><path class="cls-8" d="M28.69,30h0s0,0,0,0h0s0,0,0,0h.05s0,0,0,0h0a0,0,0,0,1,0,0s0,0,0,0h0s0,0,0,0h.05s0,0,0,0v0a0,0,0,0,0,0,0h0" transform="translate(-16.56 -15.14)"/><path class="cls-8" d="M28.84,30a0,0,0,0,1,0,0s0,0,0,0,0,0,0,0l0,0Zm0,0a0,0,0,0,0,0,0,0,0,0,0,0,0,0,0,0,0,0,0,0,0s0,0,0,0v0h0s0,0,0,0v-.1h0s0,0,0,0Z" transform="translate(-16.56 -15.14)"/><path d="M29,30V30s0,0,0,0h0s0,0,0,0V30h0v0h0s0,0,0,0h0Z" transform="translate(-16.56 -15.14)"/><path class="cls-8" d="M29.11,30h0s0,0,0,0h0a0,0,0,0,0,0,0,0,0,0,0,0,0,0V29.9h0s0,0,0,0V30s0,0,0,0h.05s0,0,0,0v0l0,0a0,0,0,0,1,0,0v0s0,0,0,0h.05Z" transform="translate(-16.56 -15.14)"/><path class="cls-8" d="M29.14,30s0,0,0,0h0Zm0,0h.05s0,0,0,0a0,0,0,1,0,0,.08l0,0h0a0,0,0,0,1,0,0" transform="translate(-16.56 -15.14)"/><path d="M29.25,30v0h0s0,0,0,0h0s0,0,0,0h.05s0,0,0,0v0l0,0s0,0,0,0h0s0,0,0,0h.05s0,0,0,0h0a0,0,0,0,0,0,0s0,0,0,0" transform="translate(-16.56 -15.14)"/><path d="M29.38,29.93h0a0,0,0,0,0,0,0,0,0,0,0,0,0,0h0a0,0,0,0,0,0,0s0,0,0,0l0,0h0l0,0s0,0,0,0,0,0,0,0" transform="translate(-16.56 -15.14)"/><path class="cls-8" d="M29.44,29.93a0,0,0,0,1,0,0s0,0,0,0Zm0,0h0s0,0,0,0,0,0,0,.05,0,0,0,0a.05.05,0,0,0,0,0h0a0,0,0,0,1,0,0,0,0,0,0,1,0,0" transform="translate(-16.56 -15.14)"/><path d="M26.12,30.22v0s0,0,0,0l0,0h0v-.05h0v0h0l0,0h0Z" transform="translate(-16.56 -15.14)"/><path class="cls-8" d="M26.27,30.21s0,0-.05,0a.07.07,0,0,0,0,.05s0,0,0,0a0,0,0,0,0,.05-.05m0,0s0,0,0,0,0,0,0,0a.05.05,0,0,1,0,0,0,0,0,0,1,0,0" transform="translate(-16.56 -15.14)"/><path class="cls-8" d="M26.36,30.18l0,0s0,0,0,0Zm0,0h.05a0,0,0,0,0,0,0s0,0,0,.05,0,0,0,0l0,0h0s0,0,0,0" transform="translate(-16.56 -15.14)"/><path class="cls-8" d="M26.48,30.21h0s0,0,0,0v-.05l0,0h0s0,0,0,0h0s0,0,0,0h.05Zm0-.11s0,0,0,0h0s0,0,0,0h0" transform="translate(-16.56 -15.14)"/><path class="cls-8" d="M26.54,30.15s0,0,0,0,0,0,0,0,0,0,0,0a0,0,0,0,1,0,0m0,.05h0s0,0,0,0,0,0,0,0h0s0,0,0,0,0,0,0,0h0a0,0,0,0,0,0,0s0,0,0,0a0,0,0,0,0,0,0h0s0,0,0,0,0,0,0,0,0,0,0,0h0s0,.05,0,0,0,0,0,0,0,0,0,0h0" transform="translate(-16.56 -15.14)"/><path class="cls-8" d="M26.68,30.18h0s0,0,0,0h0a0,0,0,0,0,0,0l0,0v-.08h0s0,0,0,0v.07s0,0,0,0h0s0,0,0,0v0a0,0,0,0,1,0,0s0,0,0,0h0s0,0,0,0h.05Z" transform="translate(-16.56 -15.14)"/><path d="M26.7,30.11v0a0,0,0,0,0,0,0l0,0h0s0,0,0,0v0h0v0h0s0,0,0,0h0Z" transform="translate(-16.56 -15.14)"/><path d="M26.9,30.12s0,0,0,0,0,0,0,0h0s0,0,0,0h0s0,0,0,0v0s0,0,0,0,0,0,0,0,0,0,0,0l0,0h0s0,0,0,0h0s0,0,0,0h.05s0,0,0,0h0s0,0,0,0,0,0,0,0h0s0,0,0,0h0s0,0,0,0Z" transform="translate(-16.56 -15.14)"/><path class="cls-8" d="M27,30.15h0s0,0,0,0v0h0s0,0,0,0h0s0,0,0,0H27Zm0-.1a0,0,0,0,0,0,0s0,0,0,0h0" transform="translate(-16.56 -15.14)"/><path d="M27.09,30.15h0s0,0,0,0V30h0s0,0,0,0v.07s0,0,0,0h.05Z" transform="translate(-16.56 -15.14)"/><path class="cls-8" d="M27.13,30.11s0,0,0,0,0,0,0,0Zm0,0h.06a0,0,0,0,0,0,0,0,0,0,1,0,0,.08h0s0,0,0,0" transform="translate(-16.56 -15.14)"/><path d="M27.25,30.14s0,0,0,0h0s0,0,0,0h0s0,0,0,0h0v0h0s0,0,0,0a0,0,0,0,0,0,0v0h0s0,0,0,0h0v0h0s0,0,0,0l0,0" transform="translate(-16.56 -15.14)"/><path class="cls-8" d="M27.31,30.11h0s0,0,0,0a0,0,0,0,0,0,0m0,.05s0,0,0,0h0s0,0,0,0a0,0,0,0,0,0,0h0s0,0,0,0Z" transform="translate(-16.56 -15.14)"/><path class="cls-8" d="M27.4,30.11v0s0,0,0,0h0a0,0,0,0,1,0,0s0,0,0,0v0h0v0h0a0,0,0,0,1,0,0h0Z" transform="translate(-16.56 -15.14)"/><path class="cls-8" d="M27.56,30.19h0s0,0,0,0v0s0,0,0,0,0,0,0,0V30h0s0,0,0,0v.07s0,0,0,0h.05s0,0,0,0v0s0,0,0,0a0,0,0,0,1,0,0h0s0,0,0,0h0Z" transform="translate(-16.56 -15.14)"/><path class="cls-8" d="M27.59,30.14h0s0,0,0,0Zm0,0h.05s0,0,0,0,0,0,0,0a0,0,0,0,0,0,.05h0s0,0,0,0" transform="translate(-16.56 -15.14)"/><path class="cls-8" d="M27.78,30.21h0s0,0,0,0,0,0,0,0l0,0Zm0-.05h0s0,0,0,0a.05.05,0,0,0,0,.05s0,0,0,0h0s0,0,0,0v-.1h0s0,0,0,0Z" transform="translate(-16.56 -15.14)"/><path class="cls-8" d="M27.85,30.19s0,0,0,0,0,0,0,0Zm0,0h.06s0,0,0,0,0,0,0,0a.05.05,0,0,0,0,.05h0s0,0,0,0" transform="translate(-16.56 -15.14)"/><path class="cls-8" d="M28,30.24s0,0,0,0a0,0,0,0,1,0,0v0s0,0,0,0,0,0,0,0m0,.05v0a0,0,0,0,0,0,0s0,0,0,0a.07.07,0,0,0,0,0h-.06s0,0,0,0v.07s0,0,0,0H28s0,0,0,0" transform="translate(-16.56 -15.14)"/><path class="cls-8" d="M28,30.22v0s0,0,0,0h0s0,0,0,0v-.05h0v0h0s0,0,0,0h0Z" transform="translate(-16.56 -15.14)"/><path class="cls-8" d="M28.19,30.32h0s0,0,0,0h0s0,0,0,0h0v-.07h0s0,0,0,0v.07s0,0,0,0h0s0,0,0,0h0s0,0,0,0,0,0,0,0h0s0,0,0,0h.05Z" transform="translate(-16.56 -15.14)"/><path class="cls-8" d="M28.3,30.29l0,.06h0l0-.06h0s0,0,0,0v0l0-.06h0l0,0,0,0h0l0,.07h0Z" transform="translate(-16.56 -15.14)"/><path class="cls-8" d="M28.45,30.35h0a0,0,0,0,1,0,0v0s0,0,0,0l0,0h0a0,0,0,0,0,0,0h0s0,0,0,0-.05,0-.05,0a0,0,0,0,0,0,0h0a0,0,0,0,0,0,0h0m0,0s0,0,0,0,0,0,0,0l0,0Z" transform="translate(-16.56 -15.14)"/><path d="M28.52,30.35a0,0,0,0,0,0,0h0v0a0,0,0,0,1,0,0s0,0,0,0h0v0h0s0,0,0,0,0,0,0,0l0,0h0a0,0,0,0,1,0,0h0s0,0,0,0h0v0h0s0,0,0,0l0,0" transform="translate(-16.56 -15.14)"/><path class="cls-8" d="M28.59,30.32v0s0,0,0,0h0s0,0,0,0v0h0v0h0s0,0,0,0h0Z" transform="translate(-16.56 -15.14)"/><path class="cls-8" d="M28.75,30.39h0s0,0,0,0h0s0,0,0,0l0,0v-.08h0s0,0,0,0v.07s0,0,0,0h.05s0,0,0,0v0s0,0,0,0,0,0,0,0h0s0,0,0,0h.05Z" transform="translate(-16.56 -15.14)"/><path class="cls-8" d="M28.78,30.34s0,0,0,0,0,0,0,0Zm0,0h0s0,0,0,0a0,0,0,0,0,0,0,0,0,0,0,0,0,0l0,0h0s0,0,0,0,0,0,0,0" transform="translate(-16.56 -15.14)"/><path d="M28.89,30.33h0s0,0,0,0h0s0,0,0,0h0s0,0,0,0h0a0,0,0,0,1,0,0s0,0,0,0h0s0,0,0,0H29s0,0,0,0h0a0,0,0,0,0,0,0h0" transform="translate(-16.56 -15.14)"/><path class="cls-8" d="M29.05,30.35v0h.06v0h0s0,0,0,0h0v.08h0s0,0,0,0,0,0,0,0,0,0,0,0,0,0,0,0h0a0,0,0,0,0,0,0,0,0,0,0,0,0,0s0-.05,0-.05h0" transform="translate(-16.56 -15.14)"/><path class="cls-8" d="M26.14,30.6h0v0s0,0,0,0,0,0,0,0h0a0,0,0,0,0,0,0,.07.07,0,0,0,0,.06v0h0v0s0,0,0,0h0l.06,0h0s0,0,0,0Z" transform="translate(-16.56 -15.14)"/><path class="cls-8" d="M26.25,30.63h0v0s0,0,0,0a0,0,0,0,0,0,0h0s0,0,0,0a0,0,0,0,1,0,0s0,0,0,0,0,0,0,0,0,0,0,0,0,0,0,0,0,0,0,0h0m0,0h0s0,0,0,0,0,0,0,0Z" transform="translate(-16.56 -15.14)"/><path d="M26.26,30.57v0s0,0,0,0l0,0h0a0,0,0,0,1,0,0s0,0,0,0v-.05h0v0h0a.05.05,0,0,1,0,0h0Z" transform="translate(-16.56 -15.14)"/><path class="cls-8" d="M26.42,30.6h0s0,0,0,0h0a0,0,0,0,0,0,0l0,0v-.07h0s0,0,0,0v.07s0,0,0,0h.05s0,0,0,0h0a0,0,0,0,1,0,0s0,0,0,0h0s0,0,0,0h.05Z" transform="translate(-16.56 -15.14)"/><path class="cls-8" d="M26.52,30.55s0,0-.05,0a.07.07,0,0,0,0,0s0,0,0,0a0,0,0,0,0,.05,0m0,0a0,0,0,0,1,0,0s0,0,0,0,0,0,0,0a0,0,0,0,1,0,0" transform="translate(-16.56 -15.14)"/><path d="M26.62,30.52l0,0s0,0,0,0h0s0,0,0,0h0s0,0,0,0v0s0,0,0,0,0,0,0,0a0,0,0,0,0,0,0s0,0,0,0h0s0,0,0,0h0s0,0,0,0h0s0,0,0,0h0s0,0,0,0,0,0,0,0h0s0,0,0,0h0s0,0,0,0Z" transform="translate(-16.56 -15.14)"/><path d="M26.76,30.53a0,0,0,0,0,0,0h0s0,0,0,0h0a0,0,0,0,1,0,0h0v0h0s0,0,0,0a0,0,0,0,0,0,0l0,0h0a0,0,0,0,1,0,0v0s0,0,0,0h0v0h0s0,0,0,0l0,0" transform="translate(-16.56 -15.14)"/><path d="M26.79,30.54a0,0,0,0,1,0,0h0a0,0,0,0,0,0,0s0,0,0,0h0Z" transform="translate(-16.56 -15.14)"/><path class="cls-8" d="M27,30.53h0v0a0,0,0,0,0,0,0s0,0,0,0h0s0,0,0,0,0,0,0,0-.05,0-.05,0a0,0,0,0,0,0,0l0,0a0,0,0,0,0,0,0h0m0,0h0a0,0,0,0,1,0,0s0,0,0,0Z" transform="translate(-16.56 -15.14)"/><path d="M27,30.47v0h0s0,0,0,0h0s0,0,0,0H27s0,0,0,0h0a0,0,0,0,1,0,0s0,0,0,0h0s0,0,0,0h0s0,0,0,0v0a0,0,0,0,0,0,0l0,0" transform="translate(-16.56 -15.14)"/><path class="cls-8" d="M27.16,30.51h0a0,0,0,0,1,0-.06l0,0Zm0,0,0,0a0,0,0,1,0,0,.08h.06s0,0,0,0v-.11h0s0,0,0,0Z" transform="translate(-16.56 -15.14)"/><path class="cls-8" d="M27.3,30.49l0,.05h0l0-.06s0,0,0,0h0s0,0,0,0v0l0-.06h0v.05l0,0s0,0,0,0h0s0,0,0,0l0,.06h0Z" transform="translate(-16.56 -15.14)"/><path class="cls-8" d="M27.39,30.49h0s0,0,0,0Zm0,0h.05s0,0,0,0a0,0,0,0,0,0,0,0,0,0,0,0,0,0h0s0,0,0,0" transform="translate(-16.56 -15.14)"/><path class="cls-8" d="M27.58,30.54l0,0a.05.05,0,0,1,0,0s0,0,0,0l0,0Zm0,0,0,0a0,0,0,0,0,0,.08s0,0,0,0h0s0,0,0,0v-.11h0s0,0,0,0Z" transform="translate(-16.56 -15.14)"/><path class="cls-8" d="M27.69,30.52s0,0,0,0h-.05s0,0,0,0h0s0,0,0,0h.05s0,0,0,0v0a0,0,0,0,1,0,0h0a0,0,0,0,0,0,0" transform="translate(-16.56 -15.14)"/><path class="cls-8" d="M27.79,30.57s0-.05,0-.05a0,0,0,0,0-.05,0,.05.05,0,0,0,.05.05s0,0,0,0m0,0s0,0,0,0,0,0,0,0,0,0,0,0,0,0,0,0" transform="translate(-16.56 -15.14)"/><path class="cls-8" d="M27.89,30.59a0,0,0,0,1,0,0s0,0,0,0v0a0,0,0,0,1,0,0s0,0,0,0m-.05.05v0s0,0,0,0,0,0,0,0,0,0,0,0,0,0,0,0h0s0,0,0,0v.07s0,0,0,0h0l.05,0h0s0,0,0,0" transform="translate(-16.56 -15.14)"/><path class="cls-8" d="M28,30.61s0,0,0,0l0,0v0s0,0,0,0,0,0,0,0m0,.05v0a0,0,0,0,0,0,0s0,0,0,0,0-.05,0-.05h0v0h0s0,0,0,0v.07s0,0,0,0H28s0,0,0,0" transform="translate(-16.56 -15.14)"/><path class="cls-8" d="M28.05,30.61h0s0,0,0,0Zm0,0h.05s0,0,0,0,0,0,0,0,0,.05,0,.05h0s0,0,0,0,0,0,0,0" transform="translate(-16.56 -15.14)"/><path class="cls-8" d="M28.18,30.67s0,0,0,0,0,0,0,0,0,0,0,0a0,0,0,0,1,0,0Zm0,0a0,0,0,0,0,0,0s0,0,0,0,0,.05,0,.05,0,0,0,0v0h0s0,0,0,0v-.1h0s0,0,0,0Z" transform="translate(-16.56 -15.14)"/><path class="cls-8" d="M28.28,30.65v0s0,0,0,0h0s0,0,0,0v0h0v0h0a0,0,0,0,1,0,0h0Z" transform="translate(-16.56 -15.14)"/><path class="cls-8" d="M28.44,30.74h0s0,0,0,0v0a0,0,0,0,0,0,0s0,0,0,0v-.08h0s0,0,0,0v.06s0,0,0,0h.05s0,0,0,0v0s0,0,0,0,0,0,0,0h0s0,0,0,0h.05Z" transform="translate(-16.56 -15.14)"/><path class="cls-8" d="M28.46,30.69h0s0,0,0,0Zm0,0h.06s0,0,0,0,0,0,0,0,0,.05,0,.05h0s0,0,0,0" transform="translate(-16.56 -15.14)"/><path class="cls-8" d="M28.66,30.77h0v0s0,0,0,0h0a0,0,0,0,1,0,0s0,0,0,0-.05,0-.05,0a0,0,0,0,0,0,0h.06m0,0h0a0,0,0,0,1,0,0s0,0,0,0Z" transform="translate(-16.56 -15.14)"/><path class="cls-8" d="M28.7,30.71h0s0,0,0,0h0s0,0,0,0h0s0,0,0,0h0s0,0,0,0a0,0,0,0,1,0,0v0s0,0,0,0h.05s0,0,0,0v0a0,0,0,0,0,0,0h0" transform="translate(-16.56 -15.14)"/><path d="M28.83,30.71h0a0,0,0,0,0,0,0h0s0,0,0,0a0,0,0,0,0,0,0s0,0,0,0h0a0,0,0,0,1,0,0s0,0,0,0" transform="translate(-16.56 -15.14)"/><path class="cls-8" d="M29,30.78h0s0,0,0,0v0a0,0,0,0,0,0,0l0,0v-.08h0s0,0,0,0v.07s0,0,0,0h.05s0,0,0,0v0s0,0,0,0,0,0,0,0v0s0,0,0,0H29Z" transform="translate(-16.56 -15.14)"/><path class="cls-8" d="M29.08,30.74a0,0,0,0,0,0,0,0,0,0,1,0,0,.08,0,0,0,0,0,0,0m0,0a0,0,0,0,1,0,0s0,0,0,0,0,0,0,0a0,0,0,0,1,0,0" transform="translate(-16.56 -15.14)"/><path d="M29.17,30.7h0a0,0,0,0,0,0,0v0h0s0,0,0,0h0s0,0,0,0h0s0,0,0,0h0s0,0,0,0h0s0,0,0,0" transform="translate(-16.56 -15.14)"/><path d="M29.33,30.75h0s0,0,0,0v0h0s0,0,0,0v0l0,0s0,0,0,0v0h0s0,0,0,0h0a0,0,0,0,0,0,0l0,0v0Z" transform="translate(-16.56 -15.14)"/><path class="cls-8" d="M29.42,30.69s0,0,0,0,0,0,0,0v0a0,0,0,0,1,0,0s0,0,0,0m-.05.07v0h0a.05.05,0,0,0,0,0s0,0,0,0,0,0,0,0v0h0s0,0,0,0v.07s0,0,0,0h.05s0,0,0,0" transform="translate(-16.56 -15.14)"/><path class="cls-8" d="M29.54,30.66s0,0,0,0a.06.06,0,0,0-.05.06s0,0,.05,0a.08.08,0,0,0,0-.06m0,0a.05.05,0,0,1,0,0,0,0,0,0,1,0,0s0,0,0,0,0,0,0,0" transform="translate(-16.56 -15.14)"/><path d="M29.59,30.62v0l0,0h0s0,0,0,0h0s0,0,0,0h0l0,0h0s0,0,0,0v0l0,0s0,0,0,0h0s0,0,0,0h0l.05,0h0s0,0,0,0v0s0,0,0,0,0,0,0,0" transform="translate(-16.56 -15.14)"/><path class="cls-8" d="M26.19,31.05h0v0a0,0,0,0,0,0,0s0,0,0,0h0a0,0,0,0,1,0,0s0,0,0,0-.05,0-.05,0,0,0,0,0l0,0h0m0,0,0,0h0s0,0,0,0Z" transform="translate(-16.56 -15.14)"/><path class="cls-8" d="M26.28,31a0,0,0,0,1,0,0s0,0,0,0,0,0,0,0h0Zm0,0h0s0,0,0-.05,0,0,0,0a0,0,0,0,0,0,0V30.9h0s0,0,0,0V31h0Z" transform="translate(-16.56 -15.14)"/><path class="cls-8" d="M26.45,31s0,0-.05,0a.07.07,0,0,0,0,.05s0,0,0,0a.05.05,0,0,0,.05-.05m0,0a0,0,0,0,1,0,0s0,0,0,0,0,0,0,0a0,0,0,0,1,0,0" transform="translate(-16.56 -15.14)"/><path d="M26.48,30.93v0s0,0,0,0l0,0h0a0,0,0,0,1,0,0v0h0v0h0l0,0h0Z" transform="translate(-16.56 -15.14)"/><path d="M26.54,30.92v0s0,0,0,0l0,0h0s0,0,0,0v0h0v0h0l0,0h0Z" transform="translate(-16.56 -15.14)"/><path class="cls-8" d="M26.69,30.93a0,0,0,0,0-.05,0,.07.07,0,0,0,0,.05s0,0,0,0a0,0,0,0,0,.05,0m0,0s0,0,0,0,0,0,0,0,0,0,0,0a0,0,0,0,1,0,0" transform="translate(-16.56 -15.14)"/><path d="M26.79,30.9l0,0s0,0,0,0h0s0,0,0,0h.05s0,0,0,0h0a0,0,0,0,0,0,0l0,0a0,0,0,0,0,0,0l0,0h0s0,0,0,0h0s0,0,0,0h0s0,0,0,0h0s0,0,0,0,0,0,0,0h0s0,0,0,0h0s0,0,0,0Z" transform="translate(-16.56 -15.14)"/><path class="cls-8" d="M27,30.89s0,0,0,0a0,0,0,1,0,0,.08.07.07,0,0,0,0-.05m0,0s0,0,0,0a0,0,0,0,1,0,0s0,0,0,0,0,0,0,0" transform="translate(-16.56 -15.14)"/><path d="M27.07,30.86h0v0s0,0,0,0,0,0,0,0a0,0,0,0,1,0,0s0,0,0,0,0,0,0,0v0h0v0s0,0,0,0h.05s0,0,0,0Z" transform="translate(-16.56 -15.14)"/><path d="M27.22,30.9l0,0h0s0,0,0,0h0a0,0,0,0,1,0,0h0v0h0s0,0,0,0l0,0h0s0,0,0,0a0,0,0,0,1,0,0,0,0,0,0,1,0,0h0v0h0s0,0,0,0a0,0,0,0,0,0,0" transform="translate(-16.56 -15.14)"/><path class="cls-8" d="M27.31,30.92h0v0a0,0,0,0,0,0,0s0,0,0,0h0s0,0,0,0,0,0,0,0-.05,0-.05,0a0,0,0,0,0,0,0h.06m0,0h0a0,0,0,0,1,0,0s0,0,0,0Z" transform="translate(-16.56 -15.14)"/><path class="cls-8" d="M27.35,30.87v0h0s0,0,0,0v0s0,0,0,0h.05s0,0,0,0v0l0,0s0,0,0,0h0s0,0,0,0h.05s0,0,0,0v0s0,0,0,0l0,0" transform="translate(-16.56 -15.14)"/><path class="cls-8" d="M27.51,30.92h0a0,0,0,0,1,0-.06,0,0,0,0,1,0,0Zm0-.05h0s0,0,0,0,0,0,0,0,0,0,0,0h0s0,0,0,0V30.8h0s0,0,0,0Z" transform="translate(-16.56 -15.14)"/><path d="M27.58,31s0,0,0,0h0s0,0,0,0,0,0,0,0h0s0,0,0,0h0" transform="translate(-16.56 -15.14)"/><path class="cls-8" d="M27.76,30.92s0,0,0,0a0,0,0,0,1,0,0h0s0,0,0,0h.05s0,0,0,0v0s0,0,0,0l0,0a0,0,0,0,0,0,0s0,0,0,0v0h0s0,0,0,0v0s0,0,0,0h0s0,0,0,0v0s0,0,0,0a0,0,0,0,1,0,0h0s0,0,0,0h.05s0,0,0,0Z" transform="translate(-16.56 -15.14)"/><path class="cls-8" d="M27.9,31h0s0,0,0,0v-.05h0s0,0,0,0h0s0,0,0,0h0Zm0-.11h0s0,0,0,0" transform="translate(-16.56 -15.14)"/><path class="cls-8" d="M27.94,31v0s0,0,0,0h0s0,0,0,0l0,0h0s0,0,0,0h0s0,0,0,0h0v0h0s0,0,0,0Z" transform="translate(-16.56 -15.14)"/><path class="cls-8" d="M28,31s0,0,0,0,0,0,0,0Zm0,0h.06s0,0,0,0,0,0,0,0A.05.05,0,0,0,28,31h0s0,0,0,0" transform="translate(-16.56 -15.14)"/><path class="cls-8" d="M28.15,31h0s0,0,0,0,0,0,0,0a0,0,0,0,1,0,0Zm0,0a0,0,0,0,0,0,0s0,0,0,0a.05.05,0,0,0,0,.05s0,0,0,0h0s0,0,0,0v-.1h0s0,0,0,0Z" transform="translate(-16.56 -15.14)"/><path class="cls-8" d="M28.3,31l0,.05h0l0-.05h0s0,0,0,0v0l0-.06h0l0,0,0,0h0l0,0,0,.06h0Z" transform="translate(-16.56 -15.14)"/><path class="cls-8" d="M28.41,31.11h0s0,0,0,0v0h0s0,0,0,0h0s0,0,0,0h.05Zm0-.11a0,0,0,0,0,0,0h0s0,0,0,0h0" transform="translate(-16.56 -15.14)"/><path class="cls-8" d="M28.43,31.05v0s0,0,0,0h0s0,0,0,0h0v-.05h0v0h0s0,0,0,0h0Z" transform="translate(-16.56 -15.14)"/><path class="cls-8" d="M28.59,31.14h0s0,0,0,0v0s0,0,0,0,0,0,0,0V31h0s0,0,0,0v.07s0,0,0,0h.05s0,0,0,0v0s0,0,0,0a0,0,0,0,1,0,0v0s0,0,0,0h.05Z" transform="translate(-16.56 -15.14)"/><path class="cls-8" d="M28.73,31.12s0,0,0,0l0,0v0h0a0,0,0,0,1,0,0m-.05.06v0h0s0,0,0,0a0,0,0,0,0,0-.05h-.06s0,0,0,0v.07s0,0,0,0h.05s0,0,0,0" transform="translate(-16.56 -15.14)"/><path class="cls-8" d="M28.81,31.17h0s0,0,0,0v-.05h0s0,0,0,0h0s0,0,0,0h0Zm0-.11h0s0,0,0,0a0,0,0,0,0,0,0" transform="translate(-16.56 -15.14)"/><path class="cls-8" d="M28.85,31.12s0,0,0,0,0,0,0,0Zm0,0h0s0,0,0,0a0,0,0,0,0,0,0,0,0,0,0,0,0,0h0s0,0,0,0" transform="translate(-16.56 -15.14)"/><path d="M29,31.11a0,0,0,0,1,0,0h0s0,0,0,0a0,0,0,0,0,0,0,0,0,0,0,0,0,0h0a0,0,0,0,1,0,0s0,0,0,0" transform="translate(-16.56 -15.14)"/><path class="cls-8" d="M29,31.13a0,0,0,0,1,0,0s0,0,0,0Zm0,0h0s0,0,0,0a0,0,0,0,0,0,0,0,0,0,0,0,0,0h0s0,0,0,0" transform="translate(-16.56 -15.14)"/><path d="M29.15,31.16s0,0,0,0h0s0,0,0,0,0,0,0,0h0v0h0a0,0,0,0,0,0,0,0,0,0,0,0,0,0h0a0,0,0,0,1,0,0s0,0,0,0,0,0,0,0h0v0h0a0,0,0,0,0,0,0" transform="translate(-16.56 -15.14)"/><path class="cls-8" d="M29.31,31.13s0,0,0,0a0,0,0,1,0,0,.08,0,0,0,0,0,0-.08m0,0s0,0,0,0a0,0,0,0,1,0,0s0,0,0,0a0,0,0,0,1,0,0" transform="translate(-16.56 -15.14)"/><path d="M29.37,31.1h0v0s0,0,0,0,0,0,0,0a0,0,0,0,0,0,0l0,0s0,0,0,.05v0h0v0s0,0,0,0h.05s0,0,0,0Z" transform="translate(-16.56 -15.14)"/><path class="cls-8" d="M26.17,31.41a0,0,0,0,1,0,0s0,0,0,0,0,0,0,0h0Zm0,0s0,0,0,0a.05.05,0,0,0,0,.05s0,0,0,0h.06s0,0,0,0v-.1h0s0,0,0,0Z" transform="translate(-16.56 -15.14)"/><path class="cls-8" d="M26.24,31.37a0,0,0,0,1,0,0s0,0,0,0Zm0,0h.05a0,0,0,0,0,0,0s0,0,0,.05,0,0,0,0l0,0h0s0,0,0,0" transform="translate(-16.56 -15.14)"/><path class="cls-8" d="M26.38,31.39h0v0s0,0,0,0,0,0,0,0h0s0,0,0,0,0,0,0,0,0,0,0,0,0,0,0,0,0,0,0,0h0m0,0,0,0h0s0,0,0,0Z" transform="translate(-16.56 -15.14)"/><path class="cls-8" d="M26.46,31.36a0,0,0,0,1,0,0s0,0,0,0,0,0,0,0h0Zm0,0s0,0,0,0a.05.05,0,0,0,0,.05s0,0,0,0h.07s0,0,0,0v-.1h0s0,0,0,0Z" transform="translate(-16.56 -15.14)"/><path d="M26.6,31.29h0s0,0,0,0a0,0,0,0,0,0,0s0,0,0,0l0,0h0l0,0s0,0,0,0a.05.05,0,0,1,0,0" transform="translate(-16.56 -15.14)"/><path class="cls-8" d="M26.73,31.31a0,0,0,0,0,0,0,.07.07,0,0,0,0,.05,0,0,0,0,0,0,0,.07.07,0,0,0,0-.05m0,0s0,0,0,0a0,0,0,0,1,0,0s0,0,0,0a0,0,0,0,1,0,0" transform="translate(-16.56 -15.14)"/><path d="M26.83,31.27h0a0,0,0,0,0,0,0h0s0,0,0,0h0s0,0,0,0h.06s0,0,0,0h0s0,0,0,0h0s0,0,0,0" transform="translate(-16.56 -15.14)"/><path class="cls-8" d="M26.92,31.33h0v0a0,0,0,0,0,0,0s0,0,0,0h0a0,0,0,0,1,0,0s0,0,0,0-.05,0-.05,0l0,0s0,0,0,0,0,0,0,0h0m0,0h0s0,0,0,0Z" transform="translate(-16.56 -15.14)"/><path d="M27,31.33h0s0,0,0,0v-.1h0s0,0,0,0v.07s0,0,0,0H27Z" transform="translate(-16.56 -15.14)"/><path d="M27,31.32s0,0,0,0a0,0,0,0,0,0,0h0" transform="translate(-16.56 -15.14)"/><path d="M18.22,38.36l.17-.17,0,0L20.93,40,19.8,37l.19-.12,2.14,2.27-.53-3.13.21-.09,1.67,2.66.06-3.18h0l.21,0h0l1.11,2.94.69-3.11h.24l.53,3.1,1.27-2.92h0l.2,0h0l-.1,3.15L29.58,36h0l.19.08h0l-.7,3.07L31.43,37l.2.14L30.34,40,33,38.24l.16.17,0,0L31.37,41l1.39-.56c-.36.84-2,3.67-7,5.53h-.07c-3.93-1.22-6.87-4.56-7-5.51L19.9,41Z" transform="translate(-16.56 -15.14)"/><path class="cls-9" d="M18.89,40.8l1.58.71-1.89-2.93,2.81,2-1.28-3.25,2.36,2.52-.62-3.44,1.83,2.93.06-3.49L25,39.08l.74-3.42.56,3.41,1.4-3.2-.11,3.44,2-2.87-.78,3.37,2.51-2.43-1.42,3.14,2.94-1.88-2,2.8,1.78-.7a13.83,13.83,0,0,1-6.82,5.12l0,0,0,0a13.83,13.83,0,0,1-6.78-5.06" transform="translate(-16.56 -15.14)"/></svg>