<svg xmlns="http://www.w3.org/2000/svg" xmlns:xlink="http://www.w3.org/1999/xlink" version="1.1" x="0px" y="0px" viewBox="0 0 100 100" enable-background="new 0 0 100 100" xml:space="preserve"><path d="M75.151,15.906c-5.943-2.098-11.806,4.042-12.05,4.487c-0.519-0.365-1.068-0.692-1.648-0.985  c-0.025-0.802,0.141-6.826-1.889-10.855c-1.779-3.533-3.995-4.155-7.994-4.155c-1.061,0-2.279,0.048-3.537,0.101  c-6.059,0.256-9.29,9.483-9.855,12.393c0.158-0.028,0.308-0.052,0.455-0.074c0.158-0.024,0.309-0.045,0.453-0.064  c0.956-0.123,1.605-0.132,1.815-0.129c0.17-0.016,0.693-0.057,1.461-0.067c0.14-0.002,1.529-0.049,1.685-0.048  c0.14,0,0.281,0.001,0.434,0.004c0.709-3.511,2.209-6.197,5.025-6.325c0.848-0.038,1.394,0.017,2.052,0.017  c2.372,0,2.582,0.114,3.579,2.236c1.1,2.34,0.719,3.758,0.78,5.198c-2.458-0.506-4.384-0.497-7.731-0.564  c0.681,0.131,1.388,0.295,2.109,0.495c0.54,0.15,1.087,0.316,1.639,0.511c5.409,1.91,11.178,6.128,13.198,15.311  c3.783,17.198,3.804,33.737,3.816,43.619l0.004,1.979c0.015,4.401-0.315,7.591-1.092,9.891c-0.065,0.193-0.134,0.381-0.205,0.562  c-0.08,0.201-0.159,0.403-0.247,0.589c0.067-0.032,0.13-0.059,0.197-0.092c0.457-0.223,0.893-0.419,1.307-0.606  c3.202-1.444,5.317-2.397,5.182-10.006c-0.018-1.031-0.066-2.481-0.141-4.237c1.11,0.982,5.275,4.665,8.23,7.245  c3.435,3,4.946,2.046,4.946,2.046c3.709-0.682,5.439-3.755,5.439-3.755C80.696,13.48,75.151,15.906,75.151,15.906z M74.024,66.764  c-0.836-14.123-3.177-34.154-6.293-40.66c-0.162-0.339-0.337-0.651-0.51-0.965c0.719-1.13,2.91-2.95,4.117-3.168  c0,0,8.342,18.479,11.914,51.89C83.252,73.86,76.283,68.251,74.024,66.764z M60.92,35.354c-3.818-17.359-21.656-15.515-22.415-15.43  c-0.037,0.004-0.078,0.005-0.113,0.006c-0.026-0.002-3.135-0.024-7.075,1.67c-1.001,0.431-2.118,1.008-3.287,1.76  c-0.779,0.503-1.583,1.088-2.393,1.766c-0.603,0.505-1.207,1.063-1.809,1.677c-5.019,7.018-7.013,16.379-7.435,18.633  c1.146-0.158,9.96-1.272,23.855-0.204c1.389,0.084,2.659,0.197,3.809,0.336c1.609,0.195,2.986,0.442,4.09,0.742  c0.113,0.01,0.889,0.096,1.987,0.489c3.093,1.107,8.755,4.674,9.438,16.021c0.946,15.694-1.865,26.45-1.901,26.59  c-0.01,0.052-0.907,4.381-9.024,5.886c2.061-1.167,3.977-3.302,4.5-7.217c1.244-9.327,1.942-21.978,0.957-27.003  c-0.986-5.027-2.362-9.302-9.266-10.7c-4.581-0.928-12.917-1.123-19.104-1.123c-2.769,0-5.071,0.039-6.536,0.071  c-0.182,0.004-0.338,0.008-0.493,0.011c-0.186,0.005-0.348,0.008-0.493,0.012c-0.078,0.002-0.171,0.004-0.237,0.006  c-0.304,0-1.451,0.047-2.856,0.534c-0.086,0.03-0.17,0.06-0.253,0.092c-0.205,0.078-0.414,0.159-0.626,0.257  c-0.271,0.127-0.537,0.258-0.785,0.406c-3.156,1.887-4.446,5.4-4.969,7.766c-0.072,0.385-0.137,0.781-0.189,1.2  C7.297,67.88,7.357,76.704,7.504,85.033c0.132,7.46,4.58,8.256,7.828,8.837c0.307,0.054,0.608,0.108,0.898,0.166  c3.598,0.714,19.243,2.335,26,2.596c0,0,0.353,0.043,0.935,0.043c0.273,0,0.631-0.013,1.045-0.049  c0.836-0.033,1.624-0.09,2.366-0.168l0.009,0c0.19,0.004,0.378,0.006,0.568,0.006c1.2,0,2.421-0.091,3.666-0.252  c5.489-1.33,9.588-2.615,9.675-2.642c0.714-0.263,1.352-0.651,1.907-1.259c0.196-0.215,0.383-0.453,0.557-0.731  c1.124-1.8,1.762-5.009,1.743-10.987l-0.004-1.981C64.684,68.798,64.663,52.373,60.92,35.354z M43.676,70.449  c0,0-5.736-0.128-12.109-0.414c-0.17-0.008-0.342-0.016-0.514-0.024c-0.171-0.008-0.342-0.016-0.514-0.024  c-3.691-0.174-7.494-0.402-10.46-0.689c-0.212-0.021-0.427-0.041-0.629-0.062c-0.22-0.023-0.429-0.047-0.638-0.07  c-1.247-0.141-2.289-0.295-3.015-0.462l0.268-2.613l0.059-0.577l0.059-0.577l0.367-3.587c0,0,3.698,0.303,9.183,0.594  c0.172,0.009,0.342,0.018,0.517,0.027c0.17,0.009,0.343,0.018,0.516,0.026c4.922,0.249,11.089,0.475,17.287,0.475L43.676,70.449z"></path></svg>