<svg xmlns="http://www.w3.org/2000/svg" xmlns:xlink="http://www.w3.org/1999/xlink" version="1.0" x="0px" y="0px" viewBox="0 0 100 100" enable-background="new 0 0 100 100" xml:space="preserve"><g><polygon fill="#000000" points="77.789,65.081 83.818,61.929 83.818,48.012 77.789,51.231  "></polygon><path fill="#000000" d="M49.999,65.683c-0.477,0-0.95-0.116-1.384-0.347l-29.5-15.757v13.817l30.884,16.21l17.518-9.157v-13.73   l-16.135,8.617C50.949,65.567,50.474,65.683,49.999,65.683z"></path><path fill="#000000" d="M73.693,48.626l-17.159-9.051c0.054-1.823-0.88-3.608-2.596-4.529c-0.746-0.402-1.551-0.593-2.342-0.593   c-1.771,0-3.486,0.951-4.38,2.62c-1.298,2.415-0.388,5.426,2.027,6.723c0.739,0.396,1.533,0.583,2.315,0.583   c1.034,0,2.047-0.325,2.895-0.926l15.999,8.43v28.518c0,1.215,0.985,2.201,2.201,2.201s2.2-0.986,2.2-2.201V50.565   C74.854,49.754,74.409,49.009,73.693,48.626z"></path><path fill="#000000" d="M49.999,18.585L5.91,39.199l44.089,23.549l17.287-9.234l-12.852-6.739c-0.909,0.355-1.881,0.54-2.876,0.54   c-1.284,0-2.564-0.322-3.702-0.932c-1.86-0.998-3.219-2.661-3.829-4.68c-0.608-2.021-0.396-4.155,0.602-6.015   c1.378-2.571,4.048-4.167,6.967-4.167c1.295,0,2.584,0.327,3.729,0.94c2.064,1.108,3.486,3.035,3.965,5.265L75.08,46.04   c0.934,0.5,1.659,1.27,2.128,2.176l16.881-9.016L49.999,18.585z"></path></g></svg>