<svg id="Layer_1" data-name="Layer 1" xmlns="http://www.w3.org/2000/svg" viewBox="0 0 931.45 243.283"><defs><style>.cls-1{fill:#a3ae4d;}.cls-1,.cls-2,.cls-3,.cls-4,.cls-5{stroke:#1c354e;stroke-linecap:round;stroke-linejoin:round;stroke-width:5px;}.cls-2{fill:#e36960;}.cls-3{fill:#1b354e;}.cls-4{fill:#fed132;}.cls-5{fill:none;}.cls-6{font-size:71px;fill:#11354e;font-family:OpenSans-Bold, Open Sans;font-weight:700;letter-spacing:-0.006em;}.cls-7{font-size:44px;letter-spacing:-0.006em;}</style></defs><title>lblackntl</title><circle class="cls-1" cx="193.745" cy="146.998" r="52.312"/><circle class="cls-2" cx="41.093" cy="95.565" r="38.593"/><path class="cls-3" d="M149.052,228.88a23.411,23.411,0,1,1-23.413-23.408A23.4,23.4,0,0,1,149.052,228.88Z" transform="translate(21.127 -202.972)"/><path class="cls-4" d="M89.052,400.88a23.411,23.411,0,1,1-23.413-23.408A23.4,23.4,0,0,1,89.052,400.88Z" transform="translate(21.127 -202.972)"/><line class="cls-5" x1="69.862" y1="121.282" x2="141.434" y2="146.998"/><line class="cls-5" x1="68.383" y1="68.276" x2="127.154" y2="38.684"/><line class="cls-5" x1="146.768" y1="173.829" x2="110.179" y2="196.908"/><text class="cls-6" transform="translate(266.504 80.392)">BRIDGING THE GAP<tspan class="cls-7"><tspan x="4.168" y="50">Connecting science education </tspan><tspan x="125.288" y="100">with the real world</tspan></tspan></text></svg>