<?xml version="1.0" standalone="no"?>
<!DOCTYPE svg PUBLIC "-//W3C//DTD SVG 20010904//EN"
 "http://www.w3.org/TR/2001/REC-SVG-20010904/DTD/svg10.dtd">
<svg version="1.0" xmlns="http://www.w3.org/2000/svg"
 width="1096.000000pt" height="1096.000000pt" viewBox="0 0 1096.000000 1096.000000"
 preserveAspectRatio="xMidYMid meet">
<metadata>
Created by potrace 1.11, written by Peter Selinger 2001-2013
</metadata>
<g transform="translate(0.000000,1096.000000) scale(0.100000,-0.100000)"
fill="#000000" stroke="none">
<path d="M6205 10150 c-408 -88 -711 -371 -832 -775 -25 -84 -27 -103 -27
-285 0 -185 1 -200 27 -285 16 -49 39 -114 53 -144 13 -30 21 -58 17 -62 -5
-4 -516 -262 -1137 -574 -764 -385 -1133 -565 -1141 -559 -7 5 -62 46 -121 92
-125 95 -352 213 -501 262 -186 59 -296 75 -528 75 -179 0 -227 -3 -323 -23
-151 -30 -274 -72 -412 -138 -203 -98 -349 -203 -504 -364 -229 -240 -380
-534 -447 -870 -30 -151 -33 -452 -6 -600 96 -522 396 -946 858 -1212 93 -53
246 -116 369 -151 566 -163 1189 -14 1631 392 l67 61 1378 -496 c759 -272
1398 -502 1420 -510 l42 -16 7 -91 c21 -278 112 -615 224 -836 l20 -38 -667
-421 c-367 -231 -673 -422 -681 -424 -9 -2 -19 20 -33 67 -56 202 -191 404
-362 541 -99 80 -287 175 -404 204 -223 56 -465 41 -671 -41 -320 -127 -559
-397 -652 -737 -30 -110 -37 -345 -15 -465 100 -533 573 -909 1111 -884 399
19 744 244 922 602 22 44 50 109 61 145 24 73 52 223 52 279 l0 36 547 345
c301 190 626 394 722 455 l174 109 21 -29 c160 -222 281 -358 435 -487 344
-287 747 -464 1194 -523 137 -17 395 -20 535 -4 433 47 876 237 1213 517 446
373 727 890 805 1482 22 172 15 484 -16 660 -189 1074 -1091 1860 -2175 1897
-602 20 -1165 -186 -1622 -594 -314 -280 -565 -700 -673 -1124 -25 -98 -60
-299 -60 -347 0 -21 -4 -43 -9 -50 -6 -11 -304 93 -1346 467 -736 265 -1340
483 -1343 485 -2 3 19 40 48 83 245 371 335 844 244 1293 -47 234 -185 528
-331 708 -19 24 -34 44 -32 46 2 2 506 256 1119 564 l1116 561 57 -64 c150
-167 394 -298 630 -335 119 -19 329 -8 446 24 383 106 670 399 772 791 20 77
24 113 23 255 0 181 -9 235 -67 388 -55 146 -119 244 -242 368 -156 156 -298
239 -505 294 -124 32 -351 37 -475 10z"/>
</g>
</svg>
