<?xml version="1.0" standalone="no"?>
<!DOCTYPE svg PUBLIC "-//W3C//DTD SVG 20010904//EN"
 "http://www.w3.org/TR/2001/REC-SVG-20010904/DTD/svg10.dtd">
<svg version="1.0" xmlns="http://www.w3.org/2000/svg"
 width="1036.000000pt" height="1036.000000pt" viewBox="0 0 1036.000000 1036.000000"
 preserveAspectRatio="xMidYMid meet">
<metadata>
Created by potrace 1.11, written by Peter Selinger 2001-2013
</metadata>
<g transform="translate(0.000000,1036.000000) scale(0.100000,-0.100000)"
fill="#000000" stroke="none">
<path d="M5985 9833 c-326 -40 -635 -242 -801 -527 -90 -153 -145 -347 -148
-526 -3 -145 41 -355 96 -464 11 -21 16 -42 11 -46 -7 -7 -815 -414 -1977
-999 l-300 -150 -36 32 c-72 64 -94 80 -181 137 -213 140 -473 236 -720 267
-35 4 -138 8 -229 8 -148 0 -194 -4 -266 -19 -12 -2 -39 -7 -60 -10 -65 -11
-155 -36 -244 -68 -460 -166 -834 -532 -1013 -988 -25 -65 -63 -183 -71 -224
-20 -96 -26 -133 -33 -188 -10 -77 -10 -366 0 -428 12 -74 17 -104 23 -130 3
-14 8 -36 10 -50 8 -43 50 -172 82 -252 125 -309 364 -598 652 -787 81 -52
262 -142 355 -175 93 -33 256 -73 330 -82 33 -3 69 -8 80 -11 25 -5 321 -4
355 1 91 15 191 34 240 46 89 22 111 30 200 65 208 83 394 202 552 353 54 52
27 55 243 -23 72 -25 191 -68 265 -95 74 -26 191 -68 260 -93 69 -25 215 -77
325 -117 110 -39 223 -80 250 -90 28 -10 122 -43 210 -74 88 -31 169 -61 180
-66 11 -5 92 -34 180 -66 88 -31 210 -74 270 -96 110 -40 251 -90 525 -187
175 -63 190 -68 191 -78 0 -5 2 -33 3 -63 14 -259 91 -567 204 -810 19 -41 36
-78 38 -81 2 -4 -60 -47 -139 -96 -177 -111 -812 -512 -1047 -661 l-174 -110
-23 81 c-111 388 -447 690 -848 763 -72 14 -306 21 -323 10 -4 -2 -27 -7 -52
-10 -55 -7 -156 -36 -229 -65 -231 -93 -456 -307 -561 -534 -169 -367 -128
-791 108 -1105 178 -237 429 -385 727 -428 59 -9 211 -9 275 -1 417 53 774
352 894 747 14 47 27 99 30 115 3 17 7 44 10 60 3 17 6 53 8 81 l3 52 235 148
c129 81 264 166 300 189 36 23 207 131 380 240 173 109 364 229 424 268 84 54
111 66 117 56 9 -17 88 -126 145 -200 50 -66 240 -259 309 -314 28 -22 52 -42
55 -45 17 -19 166 -120 248 -168 286 -170 594 -273 929 -309 146 -16 491 -7
595 16 24 5 61 12 83 16 22 3 58 10 80 16 22 6 47 13 55 15 105 24 359 116
407 147 7 5 48 26 91 47 168 84 394 254 549 411 122 125 191 210 284 353 183
279 299 582 354 926 32 203 23 532 -20 764 -23 117 -98 371 -116 391 -5 5 -9
15 -9 22 0 37 -159 335 -239 448 -41 57 -36 51 -99 130 -263 336 -649 603
-1068 740 -89 30 -210 60 -294 75 -36 6 -76 13 -90 16 -108 19 -407 25 -550
12 -206 -20 -425 -73 -619 -150 -143 -56 -393 -189 -422 -224 -6 -8 -16 -14
-21 -14 -21 0 -212 -157 -315 -258 -229 -225 -402 -484 -517 -769 -39 -98 -96
-277 -111 -353 -20 -95 -35 -184 -40 -235 -10 -98 -12 -115 -16 -119 -2 -1
-132 44 -289 101 -157 57 -289 105 -295 107 -5 2 -19 6 -30 10 -11 4 -49 18
-85 31 -36 13 -85 31 -110 40 -25 9 -52 19 -60 20 -8 2 -100 35 -205 73 -104
38 -325 118 -490 176 -165 59 -309 111 -320 116 -17 7 -120 44 -230 82 -16 5
-39 14 -50 19 -11 4 -134 49 -274 99 -140 50 -256 92 -258 94 -2 2 18 37 45
77 213 318 308 685 279 1084 -7 105 -9 115 -33 234 -47 228 -195 535 -336 700
l-29 33 28 15 c31 16 1361 686 1881 948 l332 167 85 -85 c308 -310 752 -406
1160 -252 195 73 387 225 498 394 66 100 73 113 103 182 78 184 106 398 77
579 -18 109 -22 126 -45 194 -117 345 -396 605 -753 702 -91 25 -301 39 -400
27z"/>
</g>
</svg>
