<svg xmlns="http://www.w3.org/2000/svg" xmlns:xlink="http://www.w3.org/1999/xlink" version="1.1" x="0px" y="0px" viewBox="0 0 100 100" enable-background="new 0 0 100 100" xml:space="preserve"><path d="M45.681,85.812l4.255,6.228c-12.873-0.061-24.703-4.53-34.059-11.977v-5.868c0,0,0.248-4.811,4.954-7.025  c4.706-2.214,7.1-2.656,7.265-2.745c0.165-0.089,6.357-1.535,8.559-3.719l-5.697,14.197l6.605-0.974L45.681,85.812z M79.169,67.17  c-4.706-2.214-7.1-2.656-7.265-2.745c-0.165-0.089-6.357-1.535-8.559-3.719l5.697,14.197l-6.605-0.974l-8.118,11.883l-4.255,6.228  c12.873-0.061,24.703-4.53,34.059-11.977v-5.868C84.123,74.195,83.875,69.384,79.169,67.17z M59.633,55.495  c0,0,10.613,0.325,15.649-4.819c0,0-7.329-2.076-6.012-15.417c1.317-13.34-1.642-25.054-12.364-24.062c0,0-4.648-5.593-13.898-2.076  c-3.176,1.208-11.698,4.261-11.264,22.745s-6.569,18.593-6.569,18.593s3.61,5.252,15.866,5.144v5.516l8.897,30.921h0.121  l9.574-30.921V55.495z"></path></svg>