<svg xmlns="http://www.w3.org/2000/svg" viewBox="0 0 841.88983 99.98962"><title>flow</title><path d="M841.88965,258.362V203.898H.00018v25.44633c212.59131,0,320.64746,7.44872,425.14551,14.65232C527.59686,251.05905,633.53619,258.362,841.88965,258.362Z" transform="translate(0 -203.89796)" style="fill:#d2d6de"/><path d="M.00018,239.63952v-.105H0v23.16712H.00018c208.35345,0,314.2923,10.36537,416.744,20.38938,104.498,10.2241,212.55371,20.79661,425.14551,20.79661V280.82551c-212.59174,0-320.64728-10.57251-425.14532-20.79661C314.29266,250.0049,208.3537,239.63952.00018,239.63952Z" transform="translate(0 -203.89796)" style="fill:#6167a3"/><path d="M841.88983,258.362h-.00018c-208.35345,0-314.29279-10.36537-416.744-20.38938C320.64764,227.74829,212.59149,217.176.00018,217.176v23.16712c208.35352,0,314.29248,10.36537,416.74414,20.38938,104.498,10.2241,212.55359,20.79661,425.14532,20.79661h.00018Z" transform="translate(0 -203.89796)" style="fill:#4c75ab"/></svg>