<svg id="Layer_1" data-name="Layer 1" xmlns="http://www.w3.org/2000/svg" viewBox="0 0 1157.89 768"><defs><style>.cls-1{fill:#456e87;}</style></defs><title>mountain_range</title><g id="Js572v"><path class="cls-1" d="M.13,557.16a10.47,10.47,0,0,1,9.62.09c1.05.53,2.48.37,3.75.43,2.41.11,4.82.1,7.23.23,2.81.15,5.63.71,8.41.49,1.61-.13,3.26-1.25,4.66-2.26,1.73-1.24,3.16-2.88,4.84-4.21a3.69,3.69,0,0,1,2.16-.51,6.14,6.14,0,0,1,2.64.48c5.27,2.63,11.13,2.3,16.7,3.38,4.66.91,9.43,1.23,14.14,1.88,2.4.33,4.79.83,7.19,1.21,3.63.59,7.06,1.85,11,1.46,2.89-.28,6.11.87,8.91,2,3.58,1.49,7,3.11,11,2.43.71-.12,1.49.33,2.25.37a13.29,13.29,0,0,0,4.08,0,6.42,6.42,0,0,1,5.21.43c2,1.23,3.72.56,5.25-.84s2.8-3,4.41-4.31c2-1.56,4-3.29,6.37-4.14a55.26,55.26,0,0,0,9.32-4.51,22.23,22.23,0,0,0,8.7-10c3.85-8.17,10.13-13.68,18.3-17.29,2-.87,3.65-2.39,5.59-3.37s4.22-1.68,6.29-2.63c3.13-1.44,6.29-2.85,9.28-4.54a7.64,7.64,0,0,1,5.07-1.23,15.21,15.21,0,0,0,5.75-.09c6.16-1.73,12.22-.67,18.34,0a28.44,28.44,0,0,0,6.51-.27,11.74,11.74,0,0,1,6.36.91c6.83,2.93,13.81,3.82,20.94.88,1.54-.63,3.19-1,4.79-1.48,2.93-.9,5.61-.58,7.86,1.66a4.57,4.57,0,0,0,4.6,1.24,6.61,6.61,0,0,1,3-.17c4,1.06,7.91.13,11.86-.31a76.53,76.53,0,0,1,8-.12,33.06,33.06,0,0,1,3.45,0,4.07,4.07,0,0,1,2.42.75c1.73,1.93,3.83,2,6,1.47,3.43-.85,6.79-1.2,10.21.16a7.73,7.73,0,0,0,3.43.26,24.34,24.34,0,0,1,12.78,2.18,6.76,6.76,0,0,0,2.58.7c5.25.15,10.51.2,15.76.28.51,0,1.13-.19,1.52,0a7.25,7.25,0,0,0,7.93.08c.4-.25,1.24.11,1.84.31,4.73,1.55,9.41,3.32,14.21,4.63a21.25,21.25,0,0,0,7.25.53,40.73,40.73,0,0,1,12.27.3,12.6,12.6,0,0,0,5.29-.41,34.78,34.78,0,0,1,9.12-.6c6.65.2,13.4,0,19-4.5a9.36,9.36,0,0,0,1.33-1.34c2.91-3.57,5.79-7.17,8.73-10.71A10.8,10.8,0,0,1,448.5,506c4.32-2.42,7.07-6,9.52-10.29,1.93-3.38,5-6.16,7.79-9a71.13,71.13,0,0,0,6.29-7.12c2.37-3.1,5.63-5.51,8.45-8.28,1.81-1.79,3.87-3.46,5.19-5.58,1.85-2.94,4.55-4.74,7.14-6.81,3.88-3.1,7.76-6.19,11.41-9.62,5.08-4.77,9.84-10.23,17.13-12.1,2.83-.72,5.45-2.27,8.23-3.23a20.07,20.07,0,0,1,5.25-1.06c2.7-.16,5.43.15,7.72-1.79a1.75,1.75,0,0,1,1.45-.34c3.59,1.34,7.07-.78,10.64-.31a4.92,4.92,0,0,0,3-.55c4.23-2.5,9.06-2.81,13.65-4,1.23-.32,2.43-.75,3.64-1.16.36-.13.71-.54,1-.5,4.6.51,8.87-2.11,13.53-1.33a17.55,17.55,0,0,0,5.22-.41c2.53-.36,5-1.15,7.55-1.2,3.23-.06,6-.62,8.45-3a36.33,36.33,0,0,1,6.46-4.82,8.74,8.74,0,0,1,4.65-1.37,35.82,35.82,0,0,0,13.6-2.11,103.19,103.19,0,0,1,11.59-2.71c2.73-.58,5.4-1.69,8.28-.94,3-2.62,7.17-2.29,10.54-3.94,1.93-.95,3.59-2.44,5.43-3.59,1.63-1,3.34-1.92,5-2.85,1.46-.8,2.87-1.06,4.26.23s3,.79,4.7.32c3.08-.87,6.21-1.61,9.36-2.21a7.61,7.61,0,0,1,4.19.12c3.19,1.41,6,.17,9-.63,4.08-1.09,8.25-1.84,12.39-2.73a10,10,0,0,0,2.62-.53c8-4.31,16.13-3.54,24.22-.74,3.21,1.11,6.2,1.21,8.87-.51,4.81-3.1,9.28-2.5,14.06,0a13.4,13.4,0,0,0,9,1.26,23.32,23.32,0,0,1,3.83,0c1.64,0,3.28-.16,4.92-.26s3-.22,4.55-.29a17.22,17.22,0,0,0,3,0c4.32-1,8.42.26,12.58,1,2,.36,4.08,1,6,.76a17.3,17.3,0,0,1,7.9.9c2.54.87,5,1.64,7.83.42,1-.44,2.68.39,4,.88,4.12,1.58,8.19,3.13,12.61,1a3.1,3.1,0,0,1,2.24-.12c2.94,1.17,6.39.61,9.06,3a4.53,4.53,0,0,0,4,.27c4.3-1.94,8.5-1.26,12.84-.32a45.05,45.05,0,0,0,9.83,1.27,28.46,28.46,0,0,1,7.57.48c2.91.73,6.08.48,9.13.65,2,.11,4,.24,6,.31,2.28.07,4.56,0,6.83.13,4.54.19,8.89-1.91,13.62-.76,2,.48,4.53-.57,6.62-1.41a36,36,0,0,1,19.87-2.29,75.6,75.6,0,0,0,13.06,1.18c3.46-.05,6.91-.58,10.37-.81a10.13,10.13,0,0,0,7-3.67c4-4.69,9.75-7.09,14.21-11.16a5.42,5.42,0,0,1,3-1.65c5.42,0,9.78-3.6,15.12-4.08a54.56,54.56,0,0,0,12.7-3.05,21.36,21.36,0,0,1,9.47-.82,13.37,13.37,0,0,0,4.93-.22c7.76-2.18,15.76-.93,23.64-2.34.46,1.32.52,2.35,1.07,2.91.93.93,2.32,2.35,3.25,2.17a18.37,18.37,0,0,0,7-2.75c1.66-1.18,3.08-1.73,4.93-1.26,2.56.66,4.51-.08,6.75-1.6s5.24-1.88,7.94-2.61a30.93,30.93,0,0,1,4.2-.55,5.06,5.06,0,0,0,4.24-2.84,8.47,8.47,0,0,1,5.94-4.5,30.86,30.86,0,0,0,5.17-2.08c-.06-3.49,3.28-4.4,5.7-5.89A27.64,27.64,0,0,1,1137,346.7c.5,0,1.09-.25,1.49-.07,6.12,2.68,11.79-.79,17.65-1.33.95-.09,1.78-1.38,2.66-2.11V768H.13Z"/><path d="M.13,550.21l7.1.79c-2.19,1.84-4.66,2-7.1,2.3Z"/><path d="M1073.58,372.11h-2.33l0-.69,2.35-.13Z"/></g></svg>