<svg xmlns="http://www.w3.org/2000/svg" viewBox="0 0 63.12988 11.79395"><title>question</title><path d="M173.59521,221.918a3.83118,3.83118,0,0,1-1.61084.29395,4.12832,4.12832,0,0,1-3.9502-2.42334c-1.94678-.40576-3.20752-2.10107-3.20752-4.67822,0-2.98389,1.68066-4.69238,4.146-4.69238s4.14648,1.72266,4.14648,4.69238c0,2.45117-1.13477,4.104-2.89941,4.6084a2.33653,2.33653,0,0,0,2.00293.85449,2.97958,2.97958,0,0,0,1.0083-.168Zm-4.62256-3.81006c1.24707,0,2.03125-1.1626,2.03125-2.99756,0-1.82129-.78418-2.91357-2.03125-2.91357-1.24658,0-2.03076,1.09229-2.03076,2.91357C166.94189,216.94531,167.72607,218.10791,168.97266,218.10791Z" transform="translate(-164.82666 -210.41797)" style="fill:#231f20"/><path d="M174.82275,210.58594h2.05908v5.11279c0,1.793.56055,2.40918,1.583,2.40918s1.625-.61621,1.625-2.40918v-5.11279h1.98877v4.90234c0,3.06787-1.24658,4.39844-3.61377,4.39844s-3.64209-1.33057-3.64209-4.39844Z" transform="translate(-164.82666 -210.41797)" style="fill:#231f20"/><path d="M184.14648,210.58594h5.729v1.73682h-3.65576v1.835h3.10986v1.72314h-3.10986v2.10107h3.7959v1.73682h-5.86914Z" transform="translate(-164.82666 -210.41797)" style="fill:#231f20"/><path d="M192.39307,217.15527a3.632,3.632,0,0,0,2.24121.95264c.85449,0,1.27441-.33643,1.27441-.88232,0-.57471-.51807-.75684-1.31641-1.09277l-1.17676-.50439a2.65542,2.65542,0,0,1-1.84912-2.49316c0-1.5127,1.35889-2.71729,3.25-2.71729a4.22669,4.22669,0,0,1,2.94141,1.20459l-1.03662,1.30273a2.99453,2.99453,0,0,0-1.90479-.72852c-.70068,0-1.1626.30811-1.1626.82617,0,.56055.60205.75635,1.40039,1.07861l1.1626.47656a2.51813,2.51813,0,0,1,1.80713,2.479c0,1.51318-1.26074,2.82959-3.43164,2.82959a5.06252,5.06252,0,0,1-3.39014-1.31641Z" transform="translate(-164.82666 -210.41797)" style="fill:#231f20"/><path d="M201.05957,212.32275h-2.52148v-1.73682H205.626v1.73682h-2.50732v7.396h-2.05908Z" transform="translate(-164.82666 -210.41797)" style="fill:#231f20"/><path d="M207.03662,210.58594h2.07324v9.13281h-2.07324Z" transform="translate(-164.82666 -210.41797)" style="fill:#231f20"/><path d="M210.80225,215.11035c0-2.98389,1.69482-4.69238,4.146-4.69238,2.46533,0,4.14648,1.72266,4.14648,4.69238,0,2.9834-1.68115,4.77637-4.14648,4.77637C212.49707,219.88672,210.80225,218.09375,210.80225,215.11035Zm6.17725,0c0-1.82129-.78418-2.91357-2.03125-2.91357-1.23242,0-2.03076,1.09229-2.03076,2.91357,0,1.835.79834,2.99756,2.03076,2.99756C216.19531,218.10791,216.97949,216.94531,216.97949,215.11035Z" transform="translate(-164.82666 -210.41797)" style="fill:#231f20"/><path d="M220.79834,210.58594h2.11523l2.38135,4.53809.91064,2.01758h.05566c-.09766-.9668-.26611-2.25537-.26611-3.334v-3.22168h1.96143v9.13281h-2.11523L223.46,215.1665l-.89648-1.98926h-.05615c.09814,1.0083.26611,2.22705.26611,3.30566v3.23584h-1.9751Z" transform="translate(-164.82666 -210.41797)" style="fill:#231f20"/></svg>