<svg xmlns="http://www.w3.org/2000/svg" xmlns:xlink="http://www.w3.org/1999/xlink" viewBox="0 0 1280 82.29685"><defs><clipPath id="a"><path d="M24.06689,9.63751H39.95166c10.18457,0,17.709,3.11621,17.709,12.23633a10.78827,10.78827,0,0,1-8.5127,10.793v.30371C56.29248,34.18683,60.3208,38.0628,60.3208,44.75177c0,9.95605-8.13232,14.59277-19.07715,14.59277H24.06689ZM39.11572,30.23468c6.99219,0,9.88037-2.66016,9.88037-7.29639,0-4.56055-3.19238-6.46045-9.65234-6.46045H32.8833V30.23468Zm1.21582,22.269c7.29639,0,11.32471-2.73633,11.32471-8.36035,0-5.16846-3.95215-7.60059-11.32471-7.60059H32.8833V52.50372ZM68.52637,22.02618h7.22021l.60791,6.6123h.3042c2.66016-4.86426,6.6123-7.52441,10.56445-7.52441a9.4875,9.4875,0,0,1,4.25635.75977l-1.52,7.60059a12.203,12.203,0,0,0-3.87646-.60791c-2.96387,0-6.53613,2.05225-8.81641,7.67627V59.34454H68.52637ZM95.88525,10.54962c0-2.96436,2.28027-5.0166,5.39648-5.0166s5.39648,2.05225,5.39648,5.0166c0,2.88818-2.28027,4.93994-5.39648,4.93994S95.88525,13.4378,95.88525,10.54962Zm.98828,11.47656h8.74023V59.34454H96.87354Zm33.44043-.91211c4.25586,0,6.916,1.59619,9.8042,4.104l-.30371-6.00391V5.68536h8.74023V59.34454h-7.22021l-.60791-4.02832h-.3042c-2.73633,2.73633-6.53613,4.94043-10.56445,4.94043-9.34863,0-15.353-7.2207-15.353-19.5332C114.50488,28.56231,122.18164,21.11407,130.314,21.11407Zm1.67188,31.92188c2.88818,0,5.32031-1.292,7.82861-4.18066V31.4505a11.126,11.126,0,0,0-7.60059-3.11621c-4.78809,0-8.66455,4.48438-8.66455,12.313C123.54932,48.70392,126.58984,53.03595,131.98584,53.03595Zm30.4751,5.09277V57.824a7.01741,7.01741,0,0,1-3.34424-6.23242c0-2.8877,1.97607-5.39648,4.10449-6.916v-.30371a12.60517,12.60517,0,0,1-4.86426-9.88135c0-8.58838,6.916-13.37646,14.74463-13.37646a16.80651,16.80651,0,0,1,5.47217.91211h13.377v6.46045h-6.84033a9.97055,9.97055,0,0,1,2.12793,6.30811c0,8.28516-6.23242,12.69336-14.13672,12.69336a13.77244,13.77244,0,0,1-5.09229-.98828,4.29122,4.29122,0,0,0-1.82422,3.57227c0,2.12793,1.52,3.41992,6.08057,3.41992h6.6123c8.96826,0,13.68066,2.73633,13.68066,9.19629,0,7.373-7.75244,13.14844-19.91309,13.14844-8.89258,0-15.50488-3.19141-15.50488-9.72852C157.14063,62.993,159.041,60.25665,162.46094,58.12872Zm11.55273,12.00781c6.00439,0,10.1084-2.81152,10.1084-6.00391,0-2.88867-2.356-3.72461-6.6123-3.72461h-5.09229a19.76576,19.76576,0,0,1-5.09229-.53125c-1.97607,1.51953-2.88818,3.19141-2.88818,4.93945C164.437,68.16095,168.08545,70.13653,174.01367,70.13653Zm5.54834-35.646c0-4.63623-2.812-7.37207-6.46045-7.37207-3.64795,0-6.53613,2.66016-6.53613,7.37207,0,4.78857,2.88818,7.5249,6.53613,7.5249C176.67383,42.01544,179.562,39.27911,179.562,34.49054Zm18.61768-23.94092c0-2.96436,2.28027-5.0166,5.39648-5.0166s5.39648,2.05225,5.39648,5.0166c0,2.88818-2.28027,4.93994-5.39648,4.93994S198.17969,13.4378,198.17969,10.54962Zm.98828,11.47656h8.74023V59.34454H199.168Zm19.91162,0h7.22021l.6084,5.01611h.30371c3.34424-3.26807,7.14453-5.92822,12.23682-5.92822,7.98047,0,11.47656,5.396,11.47656,14.8208V59.34454h-8.74072V37.075c0-6.15625-1.748-8.43652-5.85205-8.43652-3.26807,0-5.39648,1.59619-8.5127,4.63623V59.34454h-8.74023Zm45.37158,36.10254V57.824a7.01741,7.01741,0,0,1-3.34424-6.23242c0-2.8877,1.97607-5.39648,4.10449-6.916v-.30371a12.60517,12.60517,0,0,1-4.86426-9.88135c0-8.58838,6.916-13.37646,14.74463-13.37646a16.80651,16.80651,0,0,1,5.47217.91211h13.377v6.46045h-6.84033a9.97055,9.97055,0,0,1,2.12793,6.30811c0,8.28516-6.23242,12.69336-14.13672,12.69336a13.77244,13.77244,0,0,1-5.09229-.98828,4.29122,4.29122,0,0,0-1.82422,3.57227c0,2.12793,1.52,3.41992,6.08057,3.41992h6.6123c8.96826,0,13.68066,2.73633,13.68066,9.19629,0,7.373-7.75244,13.14844-19.91309,13.14844-8.89258,0-15.50488-3.19141-15.50488-9.72852C259.13086,62.993,261.03125,60.25665,264.45117,58.12872Zm11.55273,12.00781c6.00439,0,10.1084-2.81152,10.1084-6.00391,0-2.88867-2.356-3.72461-6.6123-3.72461h-5.09229a19.76576,19.76576,0,0,1-5.09229-.53125c-1.97607,1.51953-2.88818,3.19141-2.88818,4.93945C266.42725,68.16095,270.07568,70.13653,276.00391,70.13653Zm5.54834-35.646c0-4.63623-2.812-7.37207-6.46045-7.37207-3.64795,0-6.53613,2.66016-6.53613,7.37207,0,4.78857,2.88818,7.5249,6.53613,7.5249C278.66406,42.01544,281.55225,39.27911,281.55225,34.49054Zm36.47705-5.54785H312.709V22.40606l5.77637-.37988,1.064-10.18457h7.29639V22.02618h9.50049v6.9165H326.8457V46.72735c0,4.4082,1.67236,6.53711,5.24414,6.53711a10.6987,10.6987,0,0,0,3.87646-.83691l1.52,6.46094a23.84936,23.84936,0,0,1-7.60059,1.36816c-8.66406,0-11.85645-5.47266-11.85645-13.5293ZM344.17285,5.68536h8.74023V19.51788l-.30371,7.22021c3.11621-2.96387,6.84033-5.624,11.93262-5.624,7.98047,0,11.47656,5.396,11.47656,14.8208V59.34454h-8.74072V37.075c0-6.15625-1.748-8.43652-5.85205-8.43652-3.26807,0-5.39648,1.59619-8.5127,4.63623V59.34454h-8.74023ZM401.3252,21.11407c10.1084,0,15.42871,7.29639,15.42871,17.709a18.78116,18.78116,0,0,1-.37988,4.10449H392.66064c.76025,6.76465,5.0166,10.56445,11.021,10.56445a15.58924,15.58924,0,0,0,8.66406-2.73633l2.96436,5.47266a23.55377,23.55377,0,0,1-12.76855,4.02832c-10.33691,0-18.39307-7.2207-18.39307-19.5332C384.14844,28.56231,392.585,21.11407,401.3252,21.11407Zm7.82861,16.26465c0-5.92822-2.5083-9.50049-7.60059-9.50049-4.4082,0-8.2085,3.26855-8.96826,9.50049ZM462.42822,8.7254a20.17741,20.17741,0,0,1,14.8208,6.30811l-4.86426,5.47266a12.97552,12.97552,0,0,0-9.88086-4.10449c-8.81641,0-14.74463,6.84033-14.74463,18.01318,0,11.3252,5.32031,18.165,15.27686,18.165,2.73584,0,5.47217-.75977,7.06836-2.2041V39.659h-9.34863V32.43878h17.25293V54.32794a24.06233,24.06233,0,0,1-16.03662,5.92871c-13.2251,0-23.25732-9.12109-23.25732-25.61377C438.71484,18.37774,449.05127,8.7254,462.42822,8.7254ZM508.4834,35.47882c-.07617-3.95215-1.748-7.29639-6.76465-7.29639-3.72412,0-7.22021,1.67188-10.48828,3.64795l-3.19238-5.85205a28.9246,28.9246,0,0,1,15.27686-4.86426c9.34863,0,13.90869,5.7002,13.90869,16.11279V59.34454h-7.144L509.39551,55.24h-.228c-3.34424,2.8125-7.14453,5.0166-11.55273,5.0166-6.53662,0-11.09668-4.4082-11.09668-10.94531C486.51807,41.33087,493.20654,37.15069,508.4834,35.47882Zm-8.13232,17.937c3.04,0,5.396-1.51953,8.13232-4.10449V40.951c-10.1084,1.292-13.45264,3.95215-13.45264,7.67676C495.03076,51.97149,497.23486,53.41583,500.35107,53.41583Zm36.251,8.96875v11.7041h-8.74023V22.02618H535.082l.6084,3.95215h.30371c3.11621-2.66016,7.14453-4.86426,11.24854-4.86426,9.27246,0,14.66895,7.44824,14.66895,19.001,0,12.76855-7.67627,20.1416-15.96094,20.1416-3.26807,0-6.53613-1.52051-9.57666-4.10449Zm7.52441-9.34863c4.94043,0,8.74072-4.4082,8.74072-12.84473,0-7.44873-2.43213-11.85693-8.05664-11.85693-2.73584,0-5.32031,1.36816-8.2085,4.18018V49.91974A11.802,11.802,0,0,0,544.12646,53.03595ZM575.666,22.40606a5.64,5.64,0,0,1,5.624,5.92822,5.63973,5.63973,0,0,1-5.624,5.92822,5.70034,5.70034,0,0,1-5.70068-5.92822A5.70063,5.70063,0,0,1,575.666,22.40606Zm0,25.99414a5.6396,5.6396,0,0,1,5.624,5.92773,5.64044,5.64044,0,0,1-5.624,5.92871,5.93276,5.93276,0,0,1,0-11.85645Zm42.25439-31.31445H603.55566V9.63751h37.46973v7.44824H626.7373V59.34454h-8.81689Zm39.8999,4.02832c10.10938,0,15.42871,7.29639,15.42871,17.709a18.75071,18.75071,0,0,1-.37988,4.10449H649.15625c.75977,6.76465,5.0166,10.56445,11.02051,10.56445a15.58683,15.58683,0,0,0,8.66406-2.73633l2.96484,5.47266a23.55377,23.55377,0,0,1-12.76855,4.02832c-10.33691,0-18.39307-7.2207-18.39307-19.5332C640.644,28.56231,649.08008,21.11407,657.82031,21.11407Zm7.8291,16.26465c0-5.92822-2.50879-9.50049-7.60059-9.50049-4.4082,0-8.209,3.26855-8.96875,9.50049Zm35.415-1.8999c-.07617-3.95215-1.748-7.29639-6.76465-7.29639-3.72363,0-7.21973,1.67188-10.48828,3.64795l-3.19238-5.85205a28.92491,28.92491,0,0,1,15.27734-4.86426c9.34863,0,13.9082,5.7002,13.9082,16.11279V59.34454h-7.14355L701.97656,55.24H701.749c-3.34473,2.8125-7.14453,5.0166-11.55273,5.0166-6.53613,0-11.09668-4.4082-11.09668-10.94531C679.09961,41.33087,685.78809,37.15069,701.06445,35.47882Zm-8.13184,17.937c3.04,0,5.39551-1.51953,8.13184-4.10449V40.951c-10.1084,1.292-13.45215,3.95215-13.45215,7.67676C687.6123,51.97149,689.81641,53.41583,692.93262,53.41583ZM736.708,21.11407a15.39165,15.39165,0,0,1,10.94434,4.332l-4.17969,5.54834a9.29838,9.29838,0,0,0-6.30859-2.73584c-6.00488,0-10.18457,4.93994-10.18457,12.46484,0,7.44824,4.10449,12.38867,9.95605,12.38867a12.33235,12.33235,0,0,0,7.67676-3.19238l3.64844,5.54883a18.6961,18.6961,0,0,1-12.2373,4.78809c-10.18359,0-18.0127-7.14453-18.0127-19.5332C718.01074,28.2586,726.751,21.11407,736.708,21.11407ZM755.55469,5.68536h8.74023V19.51788l-.30371,7.22021c3.11621-2.96387,6.83984-5.624,11.93262-5.624,7.98047,0,11.47656,5.396,11.47656,14.8208V59.34454h-8.74121V37.075c0-6.15625-1.748-8.43652-5.85156-8.43652-3.26855,0-5.39648,1.59619-8.5127,4.63623V59.34454h-8.74023ZM812.707,21.11407c10.1084,0,15.42871,7.29639,15.42871,17.709a18.81172,18.81172,0,0,1-.37988,4.10449H804.042c.76074,6.76465,5.0166,10.56445,11.02148,10.56445a15.59166,15.59166,0,0,0,8.66406-2.73633l2.96387,5.47266a23.55377,23.55377,0,0,1-12.76855,4.02832c-10.33691,0-18.39258-7.2207-18.39258-19.5332C795.53027,28.56231,803.9668,21.11407,812.707,21.11407Zm7.82813,16.26465c0-5.92822-2.50781-9.50049-7.60059-9.50049-4.4082,0-8.208,3.26855-8.96777,9.50049Zm15.958-15.35254h7.2207l.6084,6.6123h.30371c2.66016-4.86426,6.6123-7.52441,10.56445-7.52441a9.48383,9.48383,0,0,1,4.25586.75977l-1.51953,7.60059a12.20209,12.20209,0,0,0-3.876-.60791c-2.96484,0-6.53711,2.05225-8.81738,7.67627V59.34454h-8.74023ZM901.39648,8.7254a19.47142,19.47142,0,0,1,14.13672,6.30811l-4.86426,5.47266c-2.584-2.5083-5.39648-4.10449-9.19629-4.10449-8.13281,0-13.98535,6.84033-13.98535,18.01318,0,11.3252,5.39648,18.165,13.68066,18.165a13.46184,13.46184,0,0,0,10.48926-4.94043l4.86426,5.39648a19.8459,19.8459,0,0,1-15.50488,7.2207c-12.61719,0-22.57324-9.12109-22.57324-25.61377C878.44336,18.37774,888.62793,8.7254,901.39648,8.7254Zm37.84766,12.38867c9.34863,0,17.78418,7.14453,17.78418,19.60938,0,12.38867-8.43555,19.5332-17.78418,19.5332-9.27246,0-17.709-7.14453-17.709-19.5332C921.53516,28.2586,929.97168,21.11407,939.24414,21.11407Zm0,31.998c5.47168,0,8.81641-4.94043,8.81641-12.38867,0-7.5249-3.34473-12.46484-8.81641-12.46484-5.47266,0-8.74121,4.93994-8.74121,12.46484C930.50293,48.17169,933.77148,53.11212,939.24414,53.11212Zm26.44629-31.08594h7.2207l.6084,5.01611h.30371c3.34375-3.26807,7.14453-5.92822,12.23633-5.92822,7.98047,0,11.47656,5.396,11.47656,14.8208V59.34454H988.7959V37.075c0-6.15625-1.748-8.43652-5.85254-8.43652-3.26758,0-5.39648,1.59619-8.5127,4.63623V59.34454h-8.74023Zm61.63672-9.4248a10.30837,10.30837,0,0,0-4.10449-.91162c-3.04,0-4.71191,1.97607-4.71191,6.30811v4.02832h7.29687v6.9165h-7.29687V59.34454h-8.74023V28.94268h-5.0166V22.40606l5.0166-.37988V18.14972c0-7.75244,3.57227-13.37646,12.38867-13.37646a18.883,18.883,0,0,1,6.83984,1.292Zm18.999,8.5127c10.10938,0,15.42969,7.29639,15.42969,17.709a18.81173,18.81173,0,0,1-.37988,4.10449h-23.71387c.75977,6.76465,5.0166,10.56445,11.02051,10.56445a15.59235,15.59235,0,0,0,8.665-2.73633l2.96387,5.47266a23.55376,23.55376,0,0,1-12.76855,4.02832c-10.33691,0-18.39356-7.2207-18.39356-19.5332C1029.14941,28.56231,1037.58594,21.11407,1046.32617,21.11407Zm7.8291,16.26465c0-5.92822-2.50781-9.50049-7.60059-9.50049-4.4082,0-8.209,3.26855-8.96875,9.50049Zm15.957-15.35254h7.2207l.6084,6.6123h.30371c2.66016-4.86426,6.61231-7.52441,10.56445-7.52441a9.49116,9.49116,0,0,1,4.25684.75977l-1.52051,7.60059a12.20208,12.20208,0,0,0-3.876-.60791c-2.96484,0-6.53613,2.05225-8.81641,7.67627V59.34454h-8.74121Zm42.333-.91211c10.1084,0,15.42871,7.29639,15.42871,17.709a18.75075,18.75075,0,0,1-.37988,4.10449h-23.71289c.75977,6.76465,5.01563,10.56445,11.02051,10.56445a15.58924,15.58924,0,0,0,8.66406-2.73633l2.96387,5.47266a23.54855,23.54855,0,0,1-12.76855,4.02832c-10.33594,0-18.39258-7.2207-18.39258-19.5332C1095.26856,28.56231,1103.70508,21.11407,1112.44531,21.11407Zm7.82813,16.26465c0-5.92822-2.50781-9.50049-7.59961-9.50049-4.4082,0-8.209,3.26855-8.96875,9.50049Zm15.958-15.35254h7.2207l.6084,5.01611h.30371c3.34473-3.26807,7.14453-5.92822,12.23633-5.92822,7.98047,0,11.47656,5.396,11.47656,14.8208V59.34454h-8.74023V37.075c0-6.15625-1.748-8.43652-5.85254-8.43652-3.26758,0-5.39551,1.59619-8.51172,4.63623V59.34454h-8.74121Zm58.8252-.91211a15.39166,15.39166,0,0,1,10.94434,4.332l-4.18066,5.54834a9.29613,9.29613,0,0,0-6.30762-2.73584c-6.00488,0-10.18457,4.93994-10.18457,12.46484,0,7.44824,4.10352,12.38867,9.95606,12.38867a12.337,12.337,0,0,0,7.67676-3.19238l3.64844,5.54883a18.698,18.698,0,0,1-12.23731,4.78809c-10.18457,0-18.01269-7.14453-18.01269-19.5332C1176.35938,28.2586,1185.09961,21.11407,1195.05664,21.11407Zm31.76758,0c10.1084,0,15.42871,7.29639,15.42871,17.709a18.75074,18.75074,0,0,1-.37988,4.10449h-23.71289c.75977,6.76465,5.01563,10.56445,11.02051,10.56445a15.58925,15.58925,0,0,0,8.66406-2.73633l2.96387,5.47266A23.54854,23.54854,0,0,1,1228.04,60.25665c-10.33594,0-18.39258-7.2207-18.39258-19.5332C1209.64746,28.56231,1218.084,21.11407,1226.82422,21.11407Zm7.82813,16.26465c0-5.92822-2.50781-9.50049-7.59961-9.50049-4.4082,0-8.209,3.26855-8.96875,9.50049Z" style="fill:none"/></clipPath><clipPath id="b"><rect y="-71.24335" width="1280" height="200" style="fill:none"/></clipPath></defs><title>teacher-conference</title><g style="clip-path:url(#a)"><g style="clip-path:url(#b)"><path d="M-11.37586,161.545q0-320.25668,0-640.51336l1349.39614,0q.00016,199.71062.00011,399.42127c-1.02863.85457-1.99741,2.35631-3.09577,2.458-6.83472.63272-13.43576,4.67833-20.55743,1.54684-.47319-.208-1.1514.06666-1.73539.09134a32.09547,32.09547,0,0,0-15.73143,4.42968c-2.82684,1.74039-6.70668,2.80023-6.63728,6.86319-2.19551.90981-4.03732,2.01737-6.02166,2.41728a9.836,9.836,0,0,0-6.91664,5.24717,5.91066,5.91066,0,0,1-4.941,3.30845,34.132,34.132,0,0,0-4.88915.64164c-3.15156.84082-6.65573,1.29051-9.24723,3.03878-2.61709,1.76559-4.87915,2.62566-7.86335,1.86146-2.1551-.55193-3.81373.089-5.74108,1.46069a21.32173,21.32173,0,0,1-8.135,3.20586c-1.0742.21117-2.69363-1.44082-3.77662-2.52987-.64055-.64422-.718-1.84845-1.25078-3.383-9.18123,1.645-18.49171.17905-27.5348,2.72446a15.76785,15.76785,0,0,1-5.735.25839,24.91318,24.91318,0,0,0-11.03489.946,63.42818,63.42818,0,0,1-14.781,3.5585c-6.22295.55687-11.30449,4.7435-17.61155,4.7558-1.17271.00228-2.51628,1.03788-3.4855,1.92087-5.19421,4.73148-11.86355,7.53152-16.54625,12.9869a11.73424,11.73424,0,0,1-8.17709,4.27386c-4.029.26718-8.04663.891-12.07461.94226a88.12614,88.12614,0,0,1-15.20289-1.36466,41.95512,41.95512,0,0,0-23.14234,2.658c-2.43941.97822-5.39781,2.20523-7.71247,1.64359-5.51135-1.33732-10.56939,1.10418-15.864.89339-2.647-.10542-5.2993-.07056-7.94725-.15846-2.3509-.07791-4.69939-.23253-7.04831-.36272-3.55941-.19739-7.246.10218-10.63923-.7558-3.02077-.76376-5.81993-.58476-8.8083-.5533a52.35875,52.35875,0,0,1-11.45384-1.48485c-5.05617-1.09122-9.94356-1.88523-14.95526.37-1.28153.57669-3.66812.52052-4.61154-.30885-3.10752-2.73179-7.12507-2.07906-10.55006-3.45149a3.601,3.601,0,0,0-2.60095.14548c-5.15446,2.48224-9.89151.67667-14.686-1.1643-1.4848-.57018-3.43-1.53592-4.60044-1.02588-3.26961,1.42478-6.16628.52354-9.11765-.493a20.20234,20.20234,0,0,0-9.19836-1.04727c-2.28293.26825-4.70488-.4644-7.04194-.87854-4.84456-.85842-9.61774-2.32227-14.642-1.15876a20.012,20.012,0,0,1-3.56083.02935c-1.76625.07443-3.529.23006-5.29419.33589-1.91038.11451-3.82065.25065-5.733.30344a26.63689,26.63689,0,0,0-4.4612-.00214,15.60231,15.60231,0,0,1-10.4867-1.473c-5.56566-2.89934-10.77727-3.59595-16.38048.01208-3.11125,2.00342-6.59313,1.89111-10.327.5978-9.423-3.26387-18.93575-4.16231-28.20681.86572a11.68093,11.68093,0,0,1-3.05388.6115c-4.81689,1.03459-9.67737,1.90964-14.42985,3.186-3.47249.93257-6.7103,2.37413-10.43476.72455a8.83873,8.83873,0,0,0-4.87921-.12969c-3.664.6881-7.30434,1.557-10.89279,2.57036-1.94788.55011-3.7837,1.19456-5.47775-.379-1.61537-1.50045-3.26088-1.20093-4.95553-.266-1.96243,1.08271-3.94831,2.13188-5.84694,3.31891-2.1456,1.34143-4.07894,3.07809-6.33073,4.18156-3.92157,1.92175-8.73725,1.535-12.26586,4.59012-3.35307-.87077-6.47343.42169-9.64525,1.09227A120.21167,120.21167,0,0,0,728.52008-1.6889a41.84353,41.84353,0,0,1-15.842,2.45363,10.20021,10.20021,0,0,0-5.41768,1.59307,42.51947,42.51947,0,0,0-7.52024,5.62084c-2.84677,2.73047-6.08315,3.3876-9.842,3.46-2.93616.05655-5.84843.97021-8.78749,1.3897-2.01822.288-4.13588.80834-6.084.48088-5.43229-.9131-10.39984,2.14484-15.75251,1.546-.37068-.0414-.7749.43783-1.19549.58114-1.40337.478-2.80284.98564-4.23707,1.35187-5.346,1.3651-10.967,1.73089-15.88972,4.63718a5.80058,5.80058,0,0,1-3.47068.64582c-4.15921-.55149-8.21015,1.91444-12.39708.3536a2.05785,2.05785,0,0,0-1.69207.403c-2.66146,2.25443-5.84755,1.887-8.98236,2.07988a23.404,23.404,0,0,0-6.117,1.23766c-3.24407,1.11829-6.28785,2.914-9.5865,3.75844-8.48572,2.17229-14.03293,8.5308-19.94412,14.087-4.25162,3.99641-8.76849,7.59118-13.2879,11.2028-3.02274,2.41547-6.1592,4.5093-8.31425,7.93759-1.547,2.4611-3.93585,4.41464-6.049,6.49309-3.28185,3.22788-7.08175,6.03819-9.84445,9.65074a84.14235,84.14235,0,0,1-7.32235,8.29146c-3.2589,3.27372-6.818,6.52087-9.07312,10.453-2.84693,4.964-6.0501,9.16789-11.07948,11.97946a12.57459,12.57459,0,0,0-3.18895,3.11164c-3.42164,4.1278-6.76746,8.31826-10.15973,12.47049a10.29086,10.29086,0,0,1-1.55134,1.56452c-6.556,5.18921-14.4225,5.47649-22.15616,5.24039a40.21953,40.21953,0,0,0-10.63144.69886,14.68627,14.68627,0,0,1-6.1592.47736c-4.78641-1.02484-9.49014-.76623-14.29053-.35547a24.59627,24.59627,0,0,1-8.435-.60952c-5.59231-1.53152-11.04028-3.588-16.55706-5.39978-.69468-.22819-1.66637-.64208-2.1372-.35629-3.14335,1.90819-6.1508,1.66044-9.23693-.08846-.45131-.25576-1.17358-.02476-1.77023-.0341-6.11816-.09587-12.23725-.1594-18.3534-.328a7.95045,7.95045,0,0,1-3.004-.81844,28.34736,28.34736,0,0,0-14.88473-2.54077,8.94787,8.94787,0,0,1-3.99185-.30314c-3.98362-1.57622-7.89152-1.16947-11.89035-.18883-2.56685.62945-5.00242.54545-7.01817-1.70459-.56952-.63571-1.84532-.77-2.82494-.87494a35.6912,35.6912,0,0,0-4.02145-.0319,89.51584,89.51584,0,0,0-9.32926.13513c-4.609.5169-9.147,1.5967-13.81931.35668a7.69592,7.69592,0,0,0-3.54908.20837,5.31756,5.31756,0,0,1-5.35248-1.45262c-2.63054-2.608-5.74413-2.98239-9.15726-1.92383-1.85921.57658-3.78741.97976-5.57856,1.71815-8.30577,3.42433-16.43673,2.38461-24.39093-1.02742a13.64236,13.64236,0,0,0-7.40345-1.05619,33.1885,33.1885,0,0,1-7.57605.31088c-7.13086-.75744-14.19427-1.9911-21.36281.02141a17.4583,17.4583,0,0,1-6.70138.104,8.96989,8.96989,0,0,0-5.89831,1.43362c-3.48377,1.97682-7.16433,3.61744-10.81172,5.29172-2.40474,1.1038-4.96985,1.87332-7.32559,3.06458-2.25314,1.13916-4.20764,2.9031-6.503,3.91872-9.51269,4.20907-16.83422,10.62177-21.31749,20.14068a25.8198,25.8198,0,0,1-10.13261,11.64585,64.72651,64.72651,0,0,1-10.84744,5.25049c-2.70623.99124-5.10029,3.00018-7.4216,4.82468-1.8704,1.47-3.36475,3.40825-5.13336,5.021-1.77932,1.62245-3.76713,2.4063-6.12067.97762-1.91291-1.16112-3.89868-1.065-6.06213-.50136a15.79226,15.79226,0,0,1-4.7475.00165c-.88488-.05128-1.80187-.57394-2.62859-.43453-4.69795.792-8.67227-1.09693-12.84465-2.83529-3.26126-1.35873-7.01012-2.69824-10.378-2.36836-4.55691.44628-8.55285-1.01908-12.784-1.70036-2.79524-.45007-5.57209-1.02555-8.37557-1.41106-5.48537-.75431-11.03868-1.13224-16.46233-2.18772-6.48536-1.26209-13.31258-.878-19.4459-3.94485a7.22166,7.22166,0,0,0-3.08071-.54874,4.24362,4.24362,0,0,0-2.51485.59289c-1.95051,1.54261-3.61818,3.459-5.63147,4.90106-1.63084,1.16826-3.55383,2.4768-5.4344,2.62621-3.228.25642-6.52146-.39094-9.79234-.56785-2.80366-.15171-5.61576-.1421-8.42107-.27069-1.47093-.06737-3.14106.12469-4.36433-.49965a12.17036,12.17036,0,0,0-11.20455-.10136v-4.498c2.84193-.34663,5.72581-.53677,8.27114-2.67386Q-7.24029,162.00728-11.37586,161.545ZM1238.73567-45.86574l-.02767-.953-2.7392.15088.05205.80216Z" style="fill:#a7b8c9"/><path d="M-11.37585,169.64143a12.17036,12.17036,0,0,1,11.20455.10136c1.22327.62435,2.8934.43228,4.36433.49965,2.80531.12859,5.61741.119,8.42107.27069,3.27089.17691,6.5643.82426,9.79234.56785,1.88057-.1494,3.80356-1.45795,5.4344-2.62621,2.01329-1.44208,3.681-3.35845,5.63147-4.90106a4.24362,4.24362,0,0,1,2.51485-.59289,7.22166,7.22166,0,0,1,3.08071.54874c6.13332,3.06689,12.96054,2.68276,19.4459,3.94485,5.42365,1.05548,10.977,1.4334,16.46233,2.18772,2.80349.3855,5.58033.961,8.37557,1.41106,4.23117.68129,8.22712,2.14665,12.784,1.70036,3.36786-.32988,7.11672,1.00963,10.378,2.36836,4.17237,1.73836,8.1467,3.62727,12.84465,2.83529.82672-.13941,1.74371.38325,2.62859.43453a15.79226,15.79226,0,0,0,4.7475-.00165c2.16345-.56362,4.14922-.65976,6.06213.50136,2.35354,1.42868,4.34135.64483,6.12067-.97762,1.76861-1.61273,3.263-3.551,5.13336-5.021,2.32131-1.82451,4.71536-3.83345,7.4216-4.82468a64.72651,64.72651,0,0,0,10.84744-5.25049,25.8198,25.8198,0,0,0,10.13261-11.64585c4.48327-9.51891,11.8048-15.93162,21.31749-20.14068,2.29538-1.01562,4.24988-2.77956,6.503-3.91872,2.35575-1.19126,4.92085-1.96079,7.32559-3.06458,3.64739-1.67428,7.328-3.3149,10.81172-5.29172a8.96989,8.96989,0,0,1,5.89831-1.43362,17.4583,17.4583,0,0,0,6.70138-.104c7.16853-2.01251,14.23194-.77886,21.36281-.02141a33.1885,33.1885,0,0,0,7.57605-.31088,13.64236,13.64236,0,0,1,7.40345,1.05619c7.9542,3.412,16.08516,4.45176,24.39093,1.02742,1.79115-.73839,3.71935-1.14157,5.57856-1.71815,3.41313-1.05855,6.52672-.68414,9.15726,1.92383a5.31756,5.31756,0,0,0,5.35248,1.45262,7.69592,7.69592,0,0,1,3.54908-.20837c4.67232,1.24,9.2103.16022,13.81931-.35668a89.51584,89.51584,0,0,1,9.32926-.13513,35.6912,35.6912,0,0,1,4.02145.0319c.97962.105,2.25542.23923,2.82494.87494,2.01575,2.25,4.45132,2.334,7.01817,1.70459,3.99883-.98064,7.90673-1.38739,11.89035.18883a8.94787,8.94787,0,0,0,3.99185.30314,28.34736,28.34736,0,0,1,14.88473,2.54077,7.95045,7.95045,0,0,0,3.004.81844c6.11615.16856,12.23525.23209,18.3534.328.59665.00933,1.31892-.22166,1.77023.0341,3.08613,1.7489,6.09359,1.99664,9.23693.08846.47083-.28579,1.44252.1281,2.1372.35629,5.51679,1.81182,10.96475,3.86826,16.55706,5.39978a24.59627,24.59627,0,0,0,8.435.60952c4.80039-.41076,9.50411-.66937,14.29053.35547a14.68627,14.68627,0,0,0,6.1592-.47736,40.21953,40.21953,0,0,1,10.63144-.69886c7.73366.2361,15.60014-.05117,22.15616-5.24039a10.29086,10.29086,0,0,0,1.55134-1.56452c3.39227-4.15224,6.73809-8.34269,10.15973-12.47049a12.57459,12.57459,0,0,1,3.18895-3.11164c5.02938-2.81157,8.23255-7.01542,11.07948-11.97946,2.25509-3.93212,5.81422-7.17926,9.07312-10.453a84.14235,84.14235,0,0,0,7.32235-8.29146c2.7627-3.61256,6.5626-6.42286,9.84445-9.65074,2.11315-2.07845,4.50205-4.032,6.049-6.49309,2.155-3.42829,5.2915-5.52211,8.31425-7.93759,4.5194-3.61162,9.03628-7.20639,13.2879-11.2028,5.91119-5.55616,11.45839-11.91467,19.94412-14.087,3.29865-.84442,6.34243-2.64015,9.5865-3.75844a23.404,23.404,0,0,1,6.117-1.23766c3.13481-.19283,6.3209.17455,8.98236-2.07988a2.05785,2.05785,0,0,1,1.69207-.403c4.18694,1.56084,8.23787-.90509,12.39708-.3536a5.80058,5.80058,0,0,0,3.47068-.64582c4.92269-2.90629,10.54375-3.27208,15.88972-4.63718,1.43423-.36623,2.8337-.8739,4.23707-1.35187.42059-.14331.82481-.62254,1.19549-.58114,5.35267.59887,10.32022-2.45907,15.75251-1.546,1.94816.32747,4.06581-.19283,6.084-.48088,2.93907-.41949,5.85134-1.33314,8.78749-1.3897,3.75888-.07242,6.99527-.72955,9.842-3.46a42.51947,42.51947,0,0,1,7.52024-5.62084A10.20021,10.20021,0,0,1,712.67813.76473a41.84353,41.84353,0,0,0,15.842-2.45363,120.21167,120.21167,0,0,1,13.49418-3.16138c3.17182-.67058,6.29219-1.963,9.64525-1.09227,3.5286-3.05514,8.34428-2.66837,12.26586-4.59012,2.25179-1.10347,4.18513-2.84012,6.33073-4.18156,1.89863-1.187,3.88451-2.2362,5.84694-3.31891,1.69465-.935,3.34016-1.23448,4.95553.266,1.694,1.57353,3.52987.92908,5.47775.379,3.58845-1.01336,7.22879-1.88227,10.89279-2.57036a8.83873,8.83873,0,0,1,4.87921.12969c3.72446,1.64957,6.96227.208,10.43476-.72455,4.75248-1.27637,9.613-2.15142,14.42985-3.186a11.68093,11.68093,0,0,0,3.05388-.6115c9.27106-5.028,18.78376-4.12959,28.20681-.86572,3.7339,1.29331,7.21578,1.40562,10.327-.5978,5.60321-3.608,10.81483-2.91142,16.38048-.01208a15.60231,15.60231,0,0,0,10.4867,1.473,26.63689,26.63689,0,0,1,4.4612.00214c1.91236-.05279,3.82263-.18894,5.733-.30344,1.76515-.10583,3.52794-.26147,5.29419-.33589a20.012,20.012,0,0,0,3.56083-.02935c5.02422-1.16351,9.7974.30034,14.642,1.15876,2.33706.41414,4.759,1.14679,7.04194.87854a20.20234,20.20234,0,0,1,9.19836,1.04727c2.95137,1.01658,5.848,1.91782,9.11765.493,1.1704-.51,3.11565.4557,4.60044,1.02588,4.79449,1.841,9.53154,3.64654,14.686,1.1643a3.601,3.601,0,0,1,2.60095-.14548c3.425,1.37243,7.44254.71969,10.55006,3.45149.94341.82937,3.33.88554,4.61154.30885,5.0117-2.25525,9.89909-1.46124,14.95526-.37a52.35875,52.35875,0,0,0,11.45384,1.48485c2.98837-.03146,5.78753-.21046,8.8083.5533,3.39326.858,7.07983.5584,10.63923.7558,2.34893.13018,4.69741.2848,7.04831.36272,2.64795.08791,5.30029.053,7.94725.15846,5.29458.21079,10.35262-2.23071,15.864-.89339,2.31466.56164,5.27306-.66536,7.71247-1.64359a41.95512,41.95512,0,0,1,23.14234-2.658,88.12614,88.12614,0,0,0,15.20289,1.36466c4.028-.05123,8.04564-.67508,12.07461-.94226a11.73424,11.73424,0,0,0,8.17709-4.27386c4.68269-5.45537,11.352-8.25542,16.54625-12.9869.96922-.883,2.3128-1.91859,3.4855-1.92087,6.30706-.0123,11.38861-4.19894,17.61155-4.7558a63.42818,63.42818,0,0,0,14.781-3.5585,24.91318,24.91318,0,0,1,11.03489-.946,15.76785,15.76785,0,0,0,5.735-.25839c9.04309-2.54541,18.35357-1.0795,27.5348-2.72446.53282,1.53457.61024,2.73879,1.25078,3.383,1.083,1.08905,2.70242,2.741,3.77662,2.52987a21.32173,21.32173,0,0,0,8.135-3.20586c1.92735-1.37166,3.586-2.01262,5.74108-1.46069,2.9842.7642,5.24626-.09587,7.86335-1.86146,2.5915-1.74827,6.09567-2.198,9.24723-3.03878a34.132,34.132,0,0,1,4.88915-.64164,5.91066,5.91066,0,0,0,4.941-3.30845,9.836,9.836,0,0,1,6.91664-5.24717c1.98434-.39992,3.82614-1.50747,6.02166-2.41728-.0694-4.063,3.81044-5.1228,6.63728-6.86319a32.09547,32.09547,0,0,1,15.73143-4.42968c.584-.02468,1.2622-.29938,1.73539-.09134,7.12167,3.13149,13.7227-.91412,20.55743-1.54684,1.09836-.10166,2.06714-1.6034,3.09577-2.458V415.17834q-674.69812,0-1349.39625.00011Q-11.37586,292.41007-11.37585,169.64143Z" style="fill:#456d88"/></g></g></svg>